{"glyphs":{"0":{"ha":764,"x_min":47,"x_max":717,"o":"m 382 -24 q 128 92 210 -24 q 47 467 47 208 q 128 838 47 721 q 382 956 210 956 q 633 837 549 956 q 717 467 717 718 q 633 94 717 211 q 382 -24 550 -24 m 382 164 q 469 232 440 164 q 497 478 497 300 q 468 703 497 638 q 382 768 439 768 q 317 741 342 768 q 279 648 292 714 q 267 467 267 582 q 279 283 267 349 q 317 190 292 217 q 382 164 342 164 z "},"1":{"ha":764,"x_min":99,"x_max":689,"o":"m 689 190 l 689 0 l 99 0 l 99 190 l 285 190 l 285 746 l 126 746 l 126 936 l 501 936 l 501 190 l 689 190 z "},"2":{"ha":764,"x_min":63,"x_max":719,"o":"m 63 190 q 313 410 235 339 q 430 538 390 482 q 469 644 469 593 q 432 737 469 706 q 329 768 394 768 q 97 711 214 768 l 97 904 q 232 944 165 933 q 374 956 299 956 q 601 881 514 956 q 689 665 689 806 q 652 510 689 582 q 544 368 615 439 q 343 190 472 297 l 719 190 l 719 0 l 63 0 l 63 190 z "},"3":{"ha":764,"x_min":75,"x_max":703,"o":"m 526 490 q 657 410 611 468 q 703 257 703 351 q 608 52 703 128 q 351 -24 514 -24 q 75 25 188 -24 l 75 218 q 187 178 126 193 q 306 164 247 164 q 437 196 390 164 q 483 289 483 228 q 444 369 483 342 q 332 396 406 396 l 186 396 l 186 583 l 332 583 q 469 675 469 583 q 431 744 469 719 q 319 768 392 768 q 89 719 186 768 l 89 913 q 351 956 192 956 q 598 890 507 956 q 689 714 689 825 q 647 572 689 624 q 526 490 606 519 z "},"4":{"ha":764,"x_min":18,"x_max":751,"o":"m 751 188 l 639 188 l 639 -24 l 422 -24 l 422 188 l 18 188 l 18 367 l 353 949 l 639 949 l 639 367 l 751 367 l 751 188 m 422 367 l 422 683 l 243 367 l 422 367 z "},"5":{"ha":764,"x_min":79,"x_max":710,"o":"m 379 607 q 623 523 536 607 q 710 299 710 439 q 613 60 710 143 q 333 -24 515 -24 q 79 17 196 -24 l 79 208 q 195 176 132 188 q 311 164 258 164 q 490 299 490 164 q 449 388 490 357 q 333 419 408 419 q 205 408 268 419 q 94 378 142 397 l 104 936 l 656 936 l 656 746 l 317 746 l 313 606 q 379 607 335 607 z "},"6":{"ha":764,"x_min":35,"x_max":728,"o":"m 435 592 q 590 554 524 592 q 692 451 657 517 q 728 303 728 386 q 685 130 728 204 q 565 16 642 56 q 393 -24 489 -24 q 126 72 217 -24 q 35 347 35 168 q 483 953 35 718 l 625 819 q 424 682 494 738 q 314 568 353 626 q 435 592 374 592 m 388 153 q 475 188 442 153 q 508 290 508 224 q 476 390 508 353 q 386 428 443 428 q 257 393 319 428 q 254 326 254 351 q 290 197 256 240 q 388 153 324 153 z "},"7":{"ha":764,"x_min":69,"x_max":701,"o":"m 701 936 l 701 746 l 363 -24 l 119 -24 l 476 746 l 69 746 l 69 936 l 701 936 z "},"8":{"ha":764,"x_min":38,"x_max":726,"o":"m 553 488 q 681 393 636 456 q 726 246 726 331 q 634 49 726 122 q 382 -24 542 -24 q 127 49 217 -24 q 38 246 38 121 q 81 393 38 331 q 206 488 124 456 q 103 574 138 518 q 68 704 68 631 q 150 886 68 817 q 382 956 232 956 q 549 923 478 956 q 658 833 619 890 q 696 704 696 776 q 658 575 696 632 q 553 488 621 518 m 382 779 q 313 750 339 779 q 288 675 288 721 q 313 600 288 629 q 382 571 339 571 q 451 600 425 571 q 476 675 476 629 q 451 750 476 721 q 382 779 425 779 m 382 153 q 471 186 435 153 q 507 275 507 219 q 472 364 507 331 q 382 397 436 397 q 292 364 328 397 q 257 275 257 331 q 293 186 257 219 q 382 153 329 153 z "},"9":{"ha":764,"x_min":36,"x_max":729,"o":"m 371 953 q 638 857 547 953 q 729 582 729 761 q 281 -24 729 211 l 139 110 q 340 248 269 192 q 450 363 411 304 q 329 338 392 338 q 174 375 240 338 q 72 478 107 413 q 36 628 36 544 q 79 800 36 726 q 199 913 122 874 q 371 953 275 953 m 378 503 q 507 538 447 503 q 510 603 510 579 q 474 733 508 689 q 376 776 440 776 q 289 741 322 776 q 256 639 256 706 q 288 540 256 576 q 378 503 321 503 z "},"\r":{"ha":833,"x_min":0,"x_max":0,"o":""}," ":{"ha":306,"x_min":0,"x_max":0,"o":""},"A":{"ha":1107,"x_min":40,"x_max":1067,"o":"m 761 238 l 346 238 l 263 0 l 40 0 l 415 1065 l 690 1065 l 1067 0 l 844 0 l 761 238 m 694 428 l 553 833 l 411 428 l 694 428 z "},"Á":{"ha":1107,"x_min":40,"x_max":1067,"o":"m 40 0 m 761 238 l 346 238 l 263 0 l 40 0 l 415 1065 l 690 1065 l 1067 0 l 844 0 l 761 238 m 694 428 l 553 833 l 411 428 l 694 428 m 586 1374 l 831 1374 l 663 1161 l 447 1161 l 586 1374 z "},"Ă":{"ha":1107,"x_min":40,"x_max":1067,"o":"m 40 0 m 761 238 l 346 238 l 263 0 l 40 0 l 415 1065 l 690 1065 l 1067 0 l 844 0 l 761 238 m 694 428 l 553 833 l 411 428 l 694 428 m 556 1153 q 385 1199 447 1153 q 324 1344 324 1246 l 324 1371 l 486 1371 l 486 1349 q 503 1294 486 1311 q 556 1276 519 1276 q 608 1294 592 1276 q 625 1349 625 1311 l 625 1371 l 788 1371 l 788 1344 q 556 1153 788 1153 z "},"Â":{"ha":1107,"x_min":40,"x_max":1067,"o":"m 40 0 m 761 238 l 346 238 l 263 0 l 40 0 l 415 1065 l 690 1065 l 1067 0 l 844 0 l 761 238 m 694 428 l 553 833 l 411 428 l 694 428 m 619 1161 l 554 1296 l 488 1161 l 278 1161 l 411 1374 l 696 1374 l 829 1161 l 619 1161 z "},"Ä":{"ha":1107,"x_min":40,"x_max":1067,"o":"m 40 0 m 761 238 l 346 238 l 263 0 l 40 0 l 415 1065 l 690 1065 l 1067 0 l 844 0 l 761 238 m 694 428 l 553 833 l 411 428 l 694 428 m 611 1367 l 803 1367 l 803 1167 l 611 1167 l 611 1367 m 311 1367 l 503 1367 l 503 1167 l 311 1167 l 311 1367 z "},"À":{"ha":1107,"x_min":40,"x_max":1067,"o":"m 40 0 m 761 238 l 346 238 l 263 0 l 40 0 l 415 1065 l 690 1065 l 1067 0 l 844 0 l 761 238 m 694 428 l 553 833 l 411 428 l 694 428 m 289 1374 l 533 1374 l 672 1161 l 457 1161 l 289 1374 z "},"Ā":{"ha":1107,"x_min":40,"x_max":1067,"o":"m 40 0 m 761 238 l 346 238 l 263 0 l 40 0 l 415 1065 l 690 1065 l 1067 0 l 844 0 l 761 238 m 694 428 l 553 833 l 411 428 l 694 428 m 339 1336 l 768 1336 l 768 1200 l 339 1200 l 339 1336 z "},"Ą":{"ha":1107,"x_min":40,"x_max":1068,"o":"m 40 0 m 761 238 l 346 238 l 263 0 l 40 0 l 415 1065 l 690 1065 l 1067 0 l 844 0 l 761 238 m 694 428 l 553 833 l 411 428 l 694 428 m 961 -356 q 819 -319 867 -356 q 772 -218 772 -283 q 803 -106 772 -161 q 897 0 835 -50 l 1068 0 q 936 -183 936 -101 q 994 -233 936 -233 q 1068 -217 1031 -233 l 1068 -337 q 961 -356 1015 -356 z "},"Å":{"ha":1107,"x_min":40,"x_max":1067,"o":"m 40 0 m 761 238 l 346 238 l 263 0 l 40 0 l 415 1065 l 690 1065 l 1067 0 l 844 0 l 761 238 m 694 428 l 553 833 l 411 428 l 694 428 m 554 1139 q 431 1174 472 1139 q 390 1267 390 1210 q 430 1359 390 1325 q 554 1393 469 1393 q 676 1358 636 1393 q 717 1267 717 1324 q 676 1174 717 1208 q 554 1139 636 1139 m 554 1225 q 589 1236 576 1225 q 601 1267 601 1247 q 554 1307 601 1307 q 506 1267 506 1307 q 554 1225 506 1225 z "},"Ã":{"ha":1107,"x_min":40,"x_max":1067,"o":"m 40 0 m 761 238 l 346 238 l 263 0 l 40 0 l 415 1065 l 690 1065 l 1067 0 l 844 0 l 761 238 m 694 428 l 553 833 l 411 428 l 694 428 m 300 1167 q 340 1318 301 1276 q 443 1360 378 1360 q 524 1344 478 1360 l 575 1325 q 626 1313 614 1313 q 656 1360 656 1313 l 807 1360 q 767 1208 806 1250 q 664 1167 729 1167 q 583 1182 621 1167 l 532 1200 q 481 1213 494 1213 q 451 1167 451 1213 l 300 1167 z "},"Æ":{"ha":1544,"x_min":38,"x_max":1461,"o":"m 1461 179 l 1461 0 l 772 0 l 772 294 l 450 294 l 281 0 l 38 0 l 657 1053 l 1454 1053 l 1454 874 l 993 874 l 993 619 l 1385 619 l 1385 440 l 993 440 l 993 179 l 1461 179 m 772 474 l 772 858 l 551 474 l 772 474 z "},"B":{"ha":1024,"x_min":121,"x_max":947,"o":"m 758 535 q 897 444 847 506 q 947 292 947 382 q 854 72 947 144 q 542 0 761 0 l 121 0 l 121 1053 l 542 1053 q 823 981 740 1053 q 906 771 906 910 q 871 626 906 685 q 758 535 836 568 m 342 617 l 542 617 q 682 746 681 617 q 650 846 682 815 q 542 876 618 876 l 342 876 l 342 617 m 724 308 q 678 408 724 376 q 542 440 632 440 l 342 440 l 342 176 l 542 176 q 683 208 642 176 q 724 308 724 240 z "},"C":{"ha":988,"x_min":56,"x_max":939,"o":"m 600 -24 q 192 123 329 -24 q 56 524 56 269 q 117 803 56 679 q 301 1000 179 928 q 600 1072 424 1072 q 731 1060 674 1072 q 856 1021 789 1049 l 856 828 q 607 885 738 885 q 436 838 510 885 q 322 710 363 792 q 281 525 281 628 q 365 263 281 361 q 600 164 450 164 q 734 184 668 164 q 874 243 800 204 l 939 61 q 769 -2 858 19 q 600 -24 681 -24 z "},"Ć":{"ha":988,"x_min":56,"x_max":939,"o":"m 56 0 m 600 -24 q 192 123 329 -24 q 56 524 56 269 q 117 803 56 679 q 301 1000 179 928 q 600 1072 424 1072 q 731 1060 674 1072 q 856 1021 789 1049 l 856 828 q 607 885 738 885 q 436 838 510 885 q 322 710 363 792 q 281 525 281 628 q 365 263 281 361 q 600 164 450 164 q 734 184 668 164 q 874 243 800 204 l 939 61 q 769 -2 858 19 q 600 -24 681 -24 m 576 1374 l 821 1374 l 653 1161 l 438 1161 l 576 1374 z "},"Č":{"ha":988,"x_min":56,"x_max":939,"o":"m 56 0 m 600 -24 q 192 123 329 -24 q 56 524 56 269 q 117 803 56 679 q 301 1000 179 928 q 600 1072 424 1072 q 731 1060 674 1072 q 856 1021 789 1049 l 856 828 q 607 885 738 885 q 436 838 510 885 q 322 710 363 792 q 281 525 281 628 q 365 263 281 361 q 600 164 450 164 q 734 184 668 164 q 874 243 800 204 l 939 61 q 769 -2 858 19 q 600 -24 681 -24 m 819 1374 l 686 1161 l 401 1161 l 268 1374 l 478 1374 l 544 1239 l 610 1374 l 819 1374 z "},"Ç":{"ha":988,"x_min":56,"x_max":939,"o":"m 613 -68 q 724 -106 685 -68 q 763 -208 763 -144 q 714 -323 763 -281 q 569 -365 665 -365 q 490 -360 525 -365 q 419 -337 456 -354 l 419 -217 q 547 -246 483 -246 q 611 -212 611 -246 q 596 -189 611 -197 q 543 -181 581 -181 q 438 -197 490 -181 l 488 -17 q 164 156 272 14 q 56 524 56 297 q 117 803 56 679 q 301 1000 179 928 q 600 1072 424 1072 q 731 1060 674 1072 q 856 1021 789 1049 l 856 828 q 607 885 738 885 q 436 838 510 885 q 322 710 363 792 q 281 525 281 628 q 365 263 281 361 q 600 164 450 164 q 734 184 668 164 q 874 243 800 204 l 939 61 q 783 1 865 22 q 625 -24 701 -21 l 610 -68 l 613 -68 z "},"Ċ":{"ha":988,"x_min":56,"x_max":939,"o":"m 56 0 m 600 -24 q 192 123 329 -24 q 56 524 56 269 q 117 803 56 679 q 301 1000 179 928 q 600 1072 424 1072 q 731 1060 674 1072 q 856 1021 789 1049 l 856 828 q 607 885 738 885 q 436 838 510 885 q 322 710 363 792 q 281 525 281 628 q 365 263 281 361 q 600 164 450 164 q 734 184 668 164 q 874 243 800 204 l 939 61 q 769 -2 858 19 q 600 -24 681 -24 m 440 1367 l 654 1367 l 654 1167 l 440 1167 l 440 1367 z "},"D":{"ha":1111,"x_min":121,"x_max":1054,"o":"m 486 1053 q 910 919 767 1053 q 1054 525 1054 785 q 911 132 1054 264 q 486 0 768 0 l 121 0 l 121 1053 l 486 1053 m 829 529 q 744 784 829 703 q 486 865 660 865 l 342 865 l 342 188 l 486 188 q 746 269 663 188 q 829 529 829 350 z "},"Ð":{"ha":1111,"x_min":14,"x_max":1054,"o":"m 486 1053 q 910 919 767 1053 q 1054 525 1054 785 q 911 132 1054 264 q 486 0 768 0 l 121 0 l 121 449 l 14 449 l 14 610 l 121 610 l 121 1053 l 486 1053 m 829 529 q 744 784 829 703 q 486 865 660 865 l 342 865 l 342 610 l 561 610 l 561 449 l 342 449 l 342 188 l 486 188 q 746 269 663 188 q 829 529 829 350 z "},"Ď":{"ha":1111,"x_min":121,"x_max":1054,"o":"m 121 0 m 486 1053 q 910 919 767 1053 q 1054 525 1054 785 q 911 132 1054 264 q 486 0 768 0 l 121 0 l 121 1053 l 486 1053 m 829 529 q 744 784 829 703 q 486 865 660 865 l 342 865 l 342 188 l 486 188 q 746 269 663 188 q 829 529 829 350 m 824 1374 l 690 1161 l 406 1161 l 272 1374 l 482 1374 l 549 1239 l 614 1374 l 824 1374 z "},"Đ":{"ha":1111,"x_min":14,"x_max":1054,"o":"m 14 0 m 486 1053 q 910 919 767 1053 q 1054 525 1054 785 q 911 132 1054 264 q 486 0 768 0 l 121 0 l 121 449 l 14 449 l 14 610 l 121 610 l 121 1053 l 486 1053 m 829 529 q 744 784 829 703 q 486 865 660 865 l 342 865 l 342 610 l 561 610 l 561 449 l 342 449 l 342 188 l 486 188 q 746 269 663 188 q 829 529 829 350 z "},"E":{"ha":892,"x_min":121,"x_max":808,"o":"m 808 179 l 808 0 l 121 0 l 121 1053 l 801 1053 l 801 874 l 342 874 l 342 619 l 732 619 l 732 440 l 342 440 l 342 179 l 808 179 z "},"É":{"ha":892,"x_min":121,"x_max":808,"o":"m 121 0 m 808 179 l 808 0 l 121 0 l 121 1053 l 801 1053 l 801 874 l 342 874 l 342 619 l 732 619 l 732 440 l 342 440 l 342 179 l 808 179 m 494 1374 l 739 1374 l 571 1161 l 356 1161 l 494 1374 z "},"Ě":{"ha":892,"x_min":121,"x_max":808,"o":"m 121 0 m 808 179 l 808 0 l 121 0 l 121 1053 l 801 1053 l 801 874 l 342 874 l 342 619 l 732 619 l 732 440 l 342 440 l 342 179 l 808 179 m 739 1374 l 606 1161 l 321 1161 l 188 1374 l 397 1374 l 464 1239 l 529 1374 l 739 1374 z "},"Ê":{"ha":892,"x_min":121,"x_max":808,"o":"m 121 0 m 808 179 l 808 0 l 121 0 l 121 1053 l 801 1053 l 801 874 l 342 874 l 342 619 l 732 619 l 732 440 l 342 440 l 342 179 l 808 179 m 529 1161 l 464 1296 l 397 1161 l 188 1161 l 321 1374 l 606 1374 l 739 1161 l 529 1161 z "},"Ë":{"ha":892,"x_min":121,"x_max":808,"o":"m 121 0 m 808 179 l 808 0 l 121 0 l 121 1053 l 801 1053 l 801 874 l 342 874 l 342 619 l 732 619 l 732 440 l 342 440 l 342 179 l 808 179 m 519 1367 l 711 1367 l 711 1167 l 519 1167 l 519 1367 m 219 1367 l 411 1367 l 411 1167 l 219 1167 l 219 1367 z "},"Ė":{"ha":892,"x_min":121,"x_max":808,"o":"m 121 0 m 808 179 l 808 0 l 121 0 l 121 1053 l 801 1053 l 801 874 l 342 874 l 342 619 l 732 619 l 732 440 l 342 440 l 342 179 l 808 179 m 358 1367 l 572 1367 l 572 1167 l 358 1167 l 358 1367 z "},"È":{"ha":892,"x_min":121,"x_max":808,"o":"m 121 0 m 808 179 l 808 0 l 121 0 l 121 1053 l 801 1053 l 801 874 l 342 874 l 342 619 l 732 619 l 732 440 l 342 440 l 342 179 l 808 179 m 199 1374 l 443 1374 l 582 1161 l 367 1161 l 199 1374 z "},"Ē":{"ha":892,"x_min":121,"x_max":808,"o":"m 121 0 m 250 1336 l 679 1336 l 679 1200 l 250 1200 l 250 1336 m 808 179 l 808 0 l 121 0 l 121 1053 l 801 1053 l 801 874 l 342 874 l 342 619 l 732 619 l 732 440 l 342 440 l 342 179 l 808 179 z "},"Ę":{"ha":892,"x_min":121,"x_max":810,"o":"m 121 0 m 808 179 l 808 0 l 121 0 l 121 1053 l 801 1053 l 801 874 l 342 874 l 342 619 l 732 619 l 732 440 l 342 440 l 342 179 l 808 179 m 703 -356 q 561 -319 608 -356 q 514 -218 514 -283 q 545 -106 514 -161 q 639 0 576 -50 l 810 0 q 678 -183 678 -101 q 736 -233 678 -233 q 810 -217 772 -233 l 810 -337 q 703 -356 757 -356 z "},"F":{"ha":860,"x_min":121,"x_max":801,"o":"m 342 863 l 342 599 l 732 599 l 732 408 l 342 408 l 342 0 l 121 0 l 121 1053 l 801 1053 l 801 863 l 342 863 z "},"G":{"ha":1054,"x_min":56,"x_max":963,"o":"m 963 643 l 963 74 q 782 1 879 26 q 600 -24 685 -24 q 301 45 424 -24 q 117 238 179 114 q 56 525 56 361 q 115 804 56 681 q 296 1000 174 928 q 600 1072 418 1072 q 755 1055 692 1072 q 897 1003 818 1038 l 897 806 q 758 865 826 844 q 600 885 689 885 q 429 839 501 885 q 319 713 357 793 q 281 529 281 632 q 365 264 281 364 q 600 164 449 164 q 746 192 674 164 l 746 453 l 451 453 l 451 643 l 963 643 z "},"Ğ":{"ha":1054,"x_min":56,"x_max":963,"o":"m 56 0 m 963 643 l 963 74 q 782 1 879 26 q 600 -24 685 -24 q 301 45 424 -24 q 117 238 179 114 q 56 525 56 361 q 115 804 56 681 q 296 1000 174 928 q 600 1072 418 1072 q 755 1055 692 1072 q 897 1003 818 1038 l 897 806 q 758 865 826 844 q 600 885 689 885 q 429 839 501 885 q 319 713 357 793 q 281 529 281 632 q 365 264 281 364 q 600 164 449 164 q 746 192 674 164 l 746 453 l 451 453 l 451 643 l 963 643 m 579 1153 q 409 1199 471 1153 q 347 1344 347 1246 l 347 1371 l 510 1371 l 510 1349 q 526 1294 510 1311 q 579 1276 543 1276 q 632 1294 615 1276 q 649 1349 649 1311 l 649 1371 l 811 1371 l 811 1344 q 579 1153 811 1153 z "},"Ģ":{"ha":1054,"x_min":56,"x_max":963,"o":"m 56 0 m 963 643 l 963 74 q 782 1 879 26 q 600 -24 685 -24 q 301 45 424 -24 q 117 238 179 114 q 56 525 56 361 q 115 804 56 681 q 296 1000 174 928 q 600 1072 418 1072 q 755 1055 692 1072 q 897 1003 818 1038 l 897 806 q 758 865 826 844 q 600 885 689 885 q 429 839 501 885 q 319 713 357 793 q 281 529 281 632 q 365 264 281 364 q 600 164 449 164 q 746 192 674 164 l 746 453 l 451 453 l 451 643 l 963 643 m 474 -111 l 696 -111 l 632 -342 l 429 -342 l 474 -111 z "},"Ġ":{"ha":1054,"x_min":56,"x_max":963,"o":"m 56 0 m 963 643 l 963 74 q 782 1 879 26 q 600 -24 685 -24 q 301 45 424 -24 q 117 238 179 114 q 56 525 56 361 q 115 804 56 681 q 296 1000 174 928 q 600 1072 418 1072 q 755 1055 692 1072 q 897 1003 818 1038 l 897 806 q 758 865 826 844 q 600 885 689 885 q 429 839 501 885 q 319 713 357 793 q 281 529 281 632 q 365 264 281 364 q 600 164 449 164 q 746 192 674 164 l 746 453 l 451 453 l 451 643 l 963 643 m 474 1367 l 688 1367 l 688 1167 l 474 1167 l 474 1367 z "},"H":{"ha":1128,"x_min":121,"x_max":1007,"o":"m 1007 1053 l 1007 0 l 786 0 l 786 433 l 342 433 l 342 0 l 121 0 l 121 1053 l 342 1053 l 342 625 l 786 625 l 786 1053 l 1007 1053 z "},"Ħ":{"ha":1076,"x_min":121,"x_max":1007,"o":"m 1007 1053 l 1007 0 l 786 0 l 786 433 l 342 433 l 342 0 l 121 0 l 121 1053 l 342 1053 l 342 925 l 786 925 l 786 1053 l 1007 1053 m 786 625 l 786 738 l 342 738 l 342 625 l 786 625 z "},"I":{"ha":463,"x_min":121,"x_max":342,"o":"m 121 1053 l 342 1053 l 342 0 l 121 0 l 121 1053 z "},"Ĳ":{"ha":958,"x_min":121,"x_max":839,"o":"m 121 0 m 121 1053 l 342 1053 l 342 0 l 121 0 l 121 1053 m 581 -228 q 467 -218 508 -228 l 467 -31 q 539 -37 501 -37 q 587 -27 571 -37 q 610 12 603 -17 q 618 96 618 40 l 618 1053 l 839 1053 l 839 88 q 817 -107 839 -40 q 740 -201 794 -174 q 581 -228 685 -228 z "},"Í":{"ha":463,"x_min":121,"x_max":507,"o":"m 121 0 m 121 1053 l 342 1053 l 342 0 l 121 0 l 121 1053 m 263 1374 l 507 1374 l 339 1161 l 124 1161 l 263 1374 z "},"Î":{"ha":463,"x_min":-46,"x_max":506,"o":"m 0 0 m 121 1053 l 342 1053 l 342 0 l 121 0 l 121 1053 m 296 1161 l 231 1296 l 164 1161 l -46 1161 l 88 1374 l 372 1374 l 506 1161 l 296 1161 z "},"Ï":{"ha":463,"x_min":-12,"x_max":479,"o":"m 0 0 m 121 1053 l 342 1053 l 342 0 l 121 0 l 121 1053 m 288 1367 l 479 1367 l 479 1167 l 288 1167 l 288 1367 m -12 1367 l 179 1367 l 179 1167 l -12 1167 l -12 1367 z "},"İ":{"ha":463,"x_min":121,"x_max":342,"o":"m 121 0 m 121 1053 l 342 1053 l 342 0 l 121 0 l 121 1053 m 126 1367 l 340 1367 l 340 1167 l 126 1167 l 126 1367 z "},"Ì":{"ha":463,"x_min":-35,"x_max":349,"o":"m 0 0 m 121 1053 l 342 1053 l 342 0 l 121 0 l 121 1053 m -35 1374 l 210 1374 l 349 1161 l 133 1161 l -35 1374 z "},"Ī":{"ha":463,"x_min":15,"x_max":444,"o":"m 15 0 m 121 1053 l 342 1053 l 342 0 l 121 0 l 121 1053 m 15 1336 l 444 1336 l 444 1200 l 15 1200 l 15 1336 z "},"Į":{"ha":463,"x_min":21,"x_max":342,"o":"m 342 1053 l 342 0 l 317 0 q 185 -183 185 -101 q 243 -233 185 -233 q 317 -217 279 -233 l 317 -337 q 210 -356 264 -356 q 68 -319 115 -356 q 21 -218 21 -283 q 52 -106 21 -161 q 147 0 83 -50 l 121 0 l 121 1053 l 342 1053 z "},"J":{"ha":497,"x_min":4,"x_max":376,"o":"m 118 -228 q 4 -218 46 -228 l 4 -31 q 76 -37 39 -37 q 124 -27 108 -37 q 148 12 140 -17 q 156 96 156 40 l 156 1053 l 376 1053 l 376 88 q 354 -107 376 -40 q 277 -201 332 -174 q 118 -228 222 -228 z "},"K":{"ha":1011,"x_min":121,"x_max":979,"o":"m 394 400 l 342 342 l 342 0 l 121 0 l 121 1053 l 342 1053 l 342 654 l 697 1053 l 972 1053 l 538 561 l 979 0 l 701 0 l 394 400 z "},"Ķ":{"ha":1011,"x_min":121,"x_max":979,"o":"m 121 0 m 394 400 l 342 342 l 342 0 l 121 0 l 121 1053 l 342 1053 l 342 654 l 697 1053 l 972 1053 l 538 561 l 979 0 l 701 0 l 394 400 m 388 -111 l 610 -111 l 546 -342 l 343 -342 l 388 -111 z "},"L":{"ha":794,"x_min":121,"x_max":739,"o":"m 739 190 l 739 0 l 121 0 l 121 1053 l 342 1053 l 342 190 l 739 190 z "},"Ĺ":{"ha":794,"x_min":117,"x_max":739,"o":"m 117 0 m 739 190 l 739 0 l 121 0 l 121 1053 l 342 1053 l 342 190 l 739 190 m 256 1374 l 500 1374 l 332 1161 l 117 1161 l 256 1374 z "},"Ľ":{"ha":794,"x_min":121,"x_max":739,"o":"m 121 0 m 739 190 l 739 0 l 121 0 l 121 1053 l 342 1053 l 342 190 l 739 190 m 436 1053 l 650 1053 l 549 772 l 367 772 l 436 1053 z "},"Ļ":{"ha":794,"x_min":121,"x_max":739,"o":"m 121 0 m 739 190 l 739 0 l 121 0 l 121 1053 l 342 1053 l 342 190 l 739 190 m 322 -111 l 544 -111 l 481 -342 l 278 -342 l 322 -111 z "},"Ŀ":{"ha":794,"x_min":121,"x_max":739,"o":"m 739 190 l 739 0 l 121 0 l 121 1053 l 342 1053 l 342 190 l 739 190 m 672 425 l 444 425 l 444 669 l 672 669 l 672 425 z "},"Ł":{"ha":794,"x_min":4,"x_max":739,"o":"m 739 190 l 739 0 l 121 0 l 121 336 l 4 289 l 4 478 l 121 525 l 121 1053 l 342 1053 l 342 614 l 604 719 l 604 531 l 342 425 l 342 190 l 739 190 z "},"M":{"ha":1310,"x_min":121,"x_max":1189,"o":"m 1189 1053 l 1189 0 l 968 0 l 968 735 l 708 361 l 597 361 l 342 732 l 342 0 l 121 0 l 121 1053 l 374 1053 l 654 640 l 935 1053 l 1189 1053 z "},"N":{"ha":1128,"x_min":121,"x_max":1007,"o":"m 1007 1053 l 1007 0 l 754 0 l 342 694 l 342 0 l 121 0 l 121 1053 l 372 1053 l 786 358 l 786 1053 l 1007 1053 z "},"Ń":{"ha":1128,"x_min":121,"x_max":1007,"o":"m 121 0 m 1007 1053 l 1007 0 l 754 0 l 342 694 l 342 0 l 121 0 l 121 1053 l 372 1053 l 786 358 l 786 1053 l 1007 1053 m 600 1374 l 844 1374 l 676 1161 l 461 1161 l 600 1374 z "},"Ň":{"ha":1128,"x_min":-85,"x_max":1007,"o":"m 0 0 m 1007 1053 l 1007 0 l 754 0 l 342 694 l 342 0 l 121 0 l 121 1053 l 372 1053 l 786 358 l 786 1053 l 1007 1053 m -15 1363 l 199 1363 l 97 1082 l -85 1082 l -15 1363 z "},"Ņ":{"ha":1128,"x_min":121,"x_max":1007,"o":"m 121 0 m 1007 1053 l 1007 0 l 754 0 l 342 694 l 342 0 l 121 0 l 121 1053 l 372 1053 l 786 358 l 786 1053 l 1007 1053 m 403 -111 l 625 -111 l 561 -342 l 358 -342 l 403 -111 z "},"Ŋ":{"ha":1076,"x_min":121,"x_max":1007,"o":"m 1007 1053 l 1007 -12 q 985 -208 1007 -140 q 908 -302 963 -275 q 749 -329 853 -329 q 635 -319 685 -329 l 635 -132 q 707 -139 669 -139 q 755 -128 739 -139 q 778 -88 771 -117 q 786 -4 786 -60 l 786 6 l 342 704 l 342 0 l 121 0 l 121 1053 l 372 1053 l 786 389 l 786 1053 l 1007 1053 z "},"Ñ":{"ha":1128,"x_min":121,"x_max":1007,"o":"m 121 0 m 1007 1053 l 1007 0 l 754 0 l 342 694 l 342 0 l 121 0 l 121 1053 l 372 1053 l 786 358 l 786 1053 l 1007 1053 m 314 1167 q 353 1318 315 1276 q 457 1360 392 1360 q 538 1344 492 1360 l 589 1325 q 640 1313 628 1313 q 669 1360 669 1313 l 821 1360 q 781 1208 819 1250 q 678 1167 743 1167 q 597 1182 635 1167 l 546 1200 q 494 1213 508 1213 q 465 1167 465 1213 l 314 1167 z "},"O":{"ha":1175,"x_min":56,"x_max":1118,"o":"m 588 -24 q 296 48 415 -24 q 116 244 176 119 q 56 525 56 368 q 116 803 56 679 q 297 999 176 926 q 588 1072 417 1072 q 877 999 757 1072 q 1058 802 997 926 q 1118 525 1118 678 q 1058 244 1118 368 q 878 48 997 119 q 588 -24 758 -24 m 588 164 q 752 211 683 164 q 856 341 821 258 q 892 529 892 424 q 856 711 892 631 q 751 838 819 792 q 588 885 682 885 q 420 838 489 885 q 317 710 351 792 q 282 525 282 628 q 361 264 282 364 q 588 164 440 164 z "},"Ó":{"ha":1175,"x_min":56,"x_max":1118,"o":"m 56 0 m 588 -24 q 296 48 415 -24 q 116 244 176 119 q 56 525 56 368 q 116 803 56 679 q 297 999 176 926 q 588 1072 417 1072 q 877 999 757 1072 q 1058 802 997 926 q 1118 525 1118 678 q 1058 244 1118 368 q 878 48 997 119 q 588 -24 758 -24 m 588 164 q 752 211 683 164 q 856 341 821 258 q 892 529 892 424 q 856 711 892 631 q 751 838 819 792 q 588 885 682 885 q 420 838 489 885 q 317 710 351 792 q 282 525 282 628 q 361 264 282 364 q 588 164 440 164 m 619 1374 l 864 1374 l 696 1161 l 481 1161 l 619 1374 z "},"Ô":{"ha":1175,"x_min":56,"x_max":1118,"o":"m 56 0 m 588 -24 q 296 48 415 -24 q 116 244 176 119 q 56 525 56 368 q 116 803 56 679 q 297 999 176 926 q 588 1072 417 1072 q 877 999 757 1072 q 1058 802 997 926 q 1118 525 1118 678 q 1058 244 1118 368 q 878 48 997 119 q 588 -24 758 -24 m 588 164 q 752 211 683 164 q 856 341 821 258 q 892 529 892 424 q 856 711 892 631 q 751 838 819 792 q 588 885 682 885 q 420 838 489 885 q 317 710 351 792 q 282 525 282 628 q 361 264 282 364 q 588 164 440 164 m 653 1161 l 588 1296 l 521 1161 l 311 1161 l 444 1374 l 729 1374 l 863 1161 l 653 1161 z "},"Ö":{"ha":1175,"x_min":56,"x_max":1118,"o":"m 56 0 m 588 -24 q 296 48 415 -24 q 116 244 176 119 q 56 525 56 368 q 116 803 56 679 q 297 999 176 926 q 588 1072 417 1072 q 877 999 757 1072 q 1058 802 997 926 q 1118 525 1118 678 q 1058 244 1118 368 q 878 48 997 119 q 588 -24 758 -24 m 588 164 q 752 211 683 164 q 856 341 821 258 q 892 529 892 424 q 856 711 892 631 q 751 838 819 792 q 588 885 682 885 q 420 838 489 885 q 317 710 351 792 q 282 525 282 628 q 361 264 282 364 q 588 164 440 164 m 644 1367 l 836 1367 l 836 1167 l 644 1167 l 644 1367 m 344 1367 l 536 1367 l 536 1167 l 344 1167 l 344 1367 z "},"Ò":{"ha":1175,"x_min":56,"x_max":1118,"o":"m 56 0 m 588 -24 q 296 48 415 -24 q 116 244 176 119 q 56 525 56 368 q 116 803 56 679 q 297 999 176 926 q 588 1072 417 1072 q 877 999 757 1072 q 1058 802 997 926 q 1118 525 1118 678 q 1058 244 1118 368 q 878 48 997 119 q 588 -24 758 -24 m 588 164 q 752 211 683 164 q 856 341 821 258 q 892 529 892 424 q 856 711 892 631 q 751 838 819 792 q 588 885 682 885 q 420 838 489 885 q 317 710 351 792 q 282 525 282 628 q 361 264 282 364 q 588 164 440 164 m 324 1374 l 568 1374 l 707 1161 l 492 1161 l 324 1374 z "},"Ő":{"ha":1175,"x_min":56,"x_max":1118,"o":"m 56 0 m 588 -24 q 296 48 415 -24 q 116 244 176 119 q 56 525 56 368 q 116 803 56 679 q 297 999 176 926 q 588 1072 417 1072 q 877 999 757 1072 q 1058 802 997 926 q 1118 525 1118 678 q 1058 244 1118 368 q 878 48 997 119 q 588 -24 758 -24 m 588 164 q 752 211 683 164 q 856 341 821 258 q 892 529 892 424 q 856 711 892 631 q 751 838 819 792 q 588 885 682 885 q 420 838 489 885 q 317 710 351 792 q 282 525 282 628 q 361 264 282 364 q 588 164 440 164 m 778 1374 l 999 1374 l 831 1161 l 639 1161 l 778 1374 m 478 1374 l 700 1374 l 532 1161 l 339 1161 l 478 1374 z "},"Ō":{"ha":1175,"x_min":56,"x_max":1118,"o":"m 56 0 m 588 -24 q 296 48 415 -24 q 116 244 176 119 q 56 525 56 368 q 116 803 56 679 q 297 999 176 926 q 588 1072 417 1072 q 877 999 757 1072 q 1058 802 997 926 q 1118 525 1118 678 q 1058 244 1118 368 q 878 48 997 119 q 588 -24 758 -24 m 588 164 q 752 211 683 164 q 856 341 821 258 q 892 529 892 424 q 856 711 892 631 q 751 838 819 792 q 588 885 682 885 q 420 838 489 885 q 317 710 351 792 q 282 525 282 628 q 361 264 282 364 q 588 164 440 164 m 372 1336 l 801 1336 l 801 1200 l 372 1200 l 372 1336 z "},"Ø":{"ha":1175,"x_min":51,"x_max":1129,"o":"m 1033 847 q 1118 525 1118 713 q 1058 244 1118 368 q 878 48 997 119 q 588 -24 758 -24 q 265 68 396 -24 l 182 -17 l 51 107 l 142 199 q 56 525 56 335 q 116 803 56 679 q 297 999 176 926 q 588 1072 417 1072 q 911 978 779 1072 l 1000 1068 l 1129 944 l 1033 847 m 282 525 q 307 365 282 436 l 764 829 q 588 885 689 885 q 420 838 489 885 q 317 710 351 792 q 282 525 282 628 m 892 538 q 868 681 892 613 l 411 217 q 588 164 486 164 q 753 212 685 164 q 856 344 821 260 q 892 538 892 429 z "},"Õ":{"ha":1175,"x_min":56,"x_max":1118,"o":"m 56 0 m 588 -24 q 296 48 415 -24 q 116 244 176 119 q 56 525 56 368 q 116 803 56 679 q 297 999 176 926 q 588 1072 417 1072 q 877 999 757 1072 q 1058 802 997 926 q 1118 525 1118 678 q 1058 244 1118 368 q 878 48 997 119 q 588 -24 758 -24 m 588 164 q 752 211 683 164 q 856 341 821 258 q 892 529 892 424 q 856 711 892 631 q 751 838 819 792 q 588 885 682 885 q 420 838 489 885 q 317 710 351 792 q 282 525 282 628 q 361 264 282 364 q 588 164 440 164 m 333 1167 q 373 1318 335 1276 q 476 1360 411 1360 q 557 1344 511 1360 l 608 1325 q 660 1313 647 1313 q 689 1360 689 1313 l 840 1360 q 801 1208 839 1250 q 697 1167 763 1167 q 617 1182 654 1167 l 565 1200 q 514 1213 528 1213 q 485 1167 485 1213 l 333 1167 z "},"Œ":{"ha":1542,"x_min":57,"x_max":1458,"o":"m 1458 179 l 1458 0 l 625 0 q 201 134 344 0 q 57 528 57 268 q 200 921 57 789 q 625 1053 343 1053 l 1451 1053 l 1451 874 l 992 874 l 992 619 l 1382 619 l 1382 440 l 992 440 l 992 179 l 1458 179 m 771 188 l 771 865 l 625 865 q 365 784 449 865 q 282 524 282 703 q 367 269 282 350 q 625 188 451 188 l 771 188 z "},"P":{"ha":954,"x_min":121,"x_max":919,"o":"m 532 1053 q 919 711 919 1053 q 822 458 919 544 q 532 371 725 371 l 342 371 l 342 0 l 121 0 l 121 1053 l 532 1053 m 696 711 q 656 828 696 792 q 532 865 615 865 l 342 865 l 342 560 l 532 560 q 654 597 614 560 q 696 711 694 633 z "},"Þ":{"ha":892,"x_min":121,"x_max":919,"o":"m 532 876 q 919 535 919 876 q 822 281 919 368 q 532 194 725 194 l 342 194 l 342 0 l 121 0 l 121 1053 l 342 1053 l 342 876 l 532 876 m 696 535 q 656 652 696 615 q 532 689 615 689 l 342 689 l 342 383 l 532 383 q 654 420 614 383 q 696 535 694 457 z "},"Q":{"ha":1175,"x_min":56,"x_max":1118,"o":"m 1118 525 q 1073 278 1118 390 q 942 93 1028 167 l 1103 -89 l 849 -89 l 771 1 q 588 -24 690 -24 q 296 48 415 -24 q 116 244 176 119 q 56 525 56 368 q 116 803 56 679 q 297 999 176 926 q 588 1072 417 1072 q 877 999 757 1072 q 1058 802 997 926 q 1118 525 1118 678 m 282 525 q 361 264 282 364 q 588 164 440 164 q 629 167 604 164 l 489 329 l 738 329 l 801 254 q 892 529 892 353 q 856 711 892 631 q 751 838 819 792 q 588 885 682 885 q 420 838 489 885 q 317 710 351 792 q 282 525 282 628 z "},"R":{"ha":1017,"x_min":121,"x_max":964,"o":"m 481 397 l 342 397 l 342 0 l 121 0 l 121 1053 l 532 1053 q 919 724 919 1053 q 704 418 919 482 l 964 0 l 717 0 l 481 397 m 342 585 l 532 585 q 696 724 696 585 q 656 831 696 797 q 532 865 615 865 l 342 865 l 342 585 z "},"Ŕ":{"ha":1017,"x_min":121,"x_max":964,"o":"m 121 0 m 481 397 l 342 397 l 342 0 l 121 0 l 121 1053 l 532 1053 q 919 724 919 1053 q 704 418 919 482 l 964 0 l 717 0 l 481 397 m 342 585 l 532 585 q 696 724 696 585 q 656 831 696 797 q 532 865 615 865 l 342 865 l 342 585 m 513 1374 l 757 1374 l 589 1161 l 374 1161 l 513 1374 z "},"Ř":{"ha":1017,"x_min":121,"x_max":964,"o":"m 121 0 m 481 397 l 342 397 l 342 0 l 121 0 l 121 1053 l 532 1053 q 919 724 919 1053 q 704 418 919 482 l 964 0 l 717 0 l 481 397 m 342 585 l 532 585 q 696 724 696 585 q 656 831 696 797 q 532 865 615 865 l 342 865 l 342 585 m 757 1374 l 624 1161 l 339 1161 l 206 1374 l 415 1374 l 482 1239 l 547 1374 l 757 1374 z "},"Ŗ":{"ha":1017,"x_min":121,"x_max":964,"o":"m 121 0 m 481 397 l 342 397 l 342 0 l 121 0 l 121 1053 l 532 1053 q 919 724 919 1053 q 704 418 919 482 l 964 0 l 717 0 l 481 397 m 342 585 l 532 585 q 696 724 696 585 q 656 831 696 797 q 532 865 615 865 l 342 865 l 342 585 m 400 -111 l 622 -111 l 558 -342 l 356 -342 l 400 -111 z "},"S":{"ha":922,"x_min":81,"x_max":854,"o":"m 461 -24 q 81 54 246 -24 l 81 256 q 461 164 254 164 q 592 197 550 164 q 635 285 635 231 q 597 364 635 338 q 469 415 558 390 l 375 442 q 233 497 293 465 q 131 589 172 528 q 89 747 89 650 q 185 990 89 907 q 457 1072 282 1072 q 641 1053 561 1072 q 803 996 721 1035 l 803 801 q 457 885 649 885 q 342 854 376 885 q 308 767 308 824 q 342 688 310 713 q 464 639 375 664 l 560 613 q 710 556 647 589 q 813 459 772 522 q 854 294 854 396 q 749 61 853 146 q 461 -24 644 -24 z "},"Ś":{"ha":922,"x_min":81,"x_max":854,"o":"m 81 0 m 461 -24 q 81 54 246 -24 l 81 256 q 461 164 254 164 q 592 197 550 164 q 635 285 635 231 q 597 364 635 338 q 469 415 558 390 l 375 442 q 233 497 293 465 q 131 589 172 528 q 89 747 89 650 q 185 990 89 907 q 457 1072 282 1072 q 641 1053 561 1072 q 803 996 721 1035 l 803 801 q 457 885 649 885 q 342 854 376 885 q 308 767 308 824 q 342 688 310 713 q 464 639 375 664 l 560 613 q 710 556 647 589 q 813 459 772 522 q 854 294 854 396 q 749 61 853 146 q 461 -24 644 -24 m 494 1374 l 739 1374 l 571 1161 l 356 1161 l 494 1374 z "},"Š":{"ha":922,"x_min":81,"x_max":854,"o":"m 81 0 m 461 -24 q 81 54 246 -24 l 81 256 q 461 164 254 164 q 592 197 550 164 q 635 285 635 231 q 597 364 635 338 q 469 415 558 390 l 375 442 q 233 497 293 465 q 131 589 172 528 q 89 747 89 650 q 185 990 89 907 q 457 1072 282 1072 q 641 1053 561 1072 q 803 996 721 1035 l 803 801 q 457 885 649 885 q 342 854 376 885 q 308 767 308 824 q 342 688 310 713 q 464 639 375 664 l 560 613 q 710 556 647 589 q 813 459 772 522 q 854 294 854 396 q 749 61 853 146 q 461 -24 644 -24 m 739 1374 l 606 1161 l 321 1161 l 188 1374 l 397 1374 l 464 1239 l 529 1374 l 739 1374 z "},"Ş":{"ha":922,"x_min":81,"x_max":854,"o":"m 854 294 q 764 75 853 158 q 517 -21 675 -8 l 500 -68 l 501 -68 q 613 -106 574 -68 q 651 -208 651 -144 q 603 -323 651 -281 q 460 -365 554 -365 q 380 -360 415 -365 q 308 -337 344 -354 l 308 -217 q 436 -246 372 -246 q 500 -212 500 -246 q 485 -189 500 -197 q 432 -181 469 -181 q 326 -197 378 -181 l 376 -21 q 81 54 213 -8 l 81 256 q 461 164 254 164 q 592 197 550 164 q 635 285 635 231 q 597 364 635 338 q 469 415 558 390 l 375 442 q 233 497 293 465 q 131 589 172 528 q 89 747 89 650 q 185 990 89 907 q 457 1072 282 1072 q 641 1053 561 1072 q 803 996 721 1035 l 803 801 q 457 885 649 885 q 342 854 376 885 q 308 767 308 824 q 342 688 310 713 q 464 639 375 664 l 560 613 q 710 556 647 589 q 813 459 772 522 q 854 294 854 396 z "},"Ș":{"ha":922,"x_min":81,"x_max":854,"o":"m 81 0 m 461 -24 q 81 54 246 -24 l 81 256 q 461 164 254 164 q 592 197 550 164 q 635 285 635 231 q 597 364 635 338 q 469 415 558 390 l 375 442 q 233 497 293 465 q 131 589 172 528 q 89 747 89 650 q 185 990 89 907 q 457 1072 282 1072 q 641 1053 561 1072 q 803 996 721 1035 l 803 801 q 457 885 649 885 q 342 854 376 885 q 308 767 308 824 q 342 688 310 713 q 464 639 375 664 l 560 613 q 710 556 647 589 q 813 459 772 522 q 854 294 854 396 q 749 61 853 146 q 461 -24 644 -24 m 349 -111 l 571 -111 l 507 -342 l 304 -342 l 349 -111 z "},"T":{"ha":922,"x_min":56,"x_max":867,"o":"m 867 863 l 572 863 l 572 0 l 350 0 l 350 863 l 56 863 l 56 1053 l 867 1053 l 867 863 z "},"Ŧ":{"ha":853,"x_min":44,"x_max":856,"o":"m 560 863 l 560 643 l 760 643 l 760 454 l 560 454 l 560 0 l 339 0 l 339 454 l 139 454 l 139 643 l 339 643 l 339 863 l 44 863 l 44 1053 l 856 1053 l 856 863 l 560 863 z "},"Ť":{"ha":922,"x_min":56,"x_max":867,"o":"m 56 0 m 867 863 l 572 863 l 572 0 l 350 0 l 350 863 l 56 863 l 56 1053 l 867 1053 l 867 863 m 736 1374 l 603 1161 l 318 1161 l 185 1374 l 394 1374 l 461 1239 l 526 1374 l 736 1374 z "},"Ţ":{"ha":922,"x_min":56,"x_max":867,"o":"m 529 0 l 506 -68 l 507 -68 q 618 -106 579 -68 q 657 -208 657 -144 q 608 -323 657 -281 q 465 -365 560 -365 q 385 -360 421 -365 q 314 -337 350 -354 l 314 -217 q 442 -246 378 -246 q 506 -212 506 -246 q 490 -189 506 -197 q 438 -181 475 -181 q 332 -197 385 -181 l 389 0 l 350 0 l 350 863 l 56 863 l 56 1053 l 867 1053 l 867 863 l 572 863 l 572 0 l 529 0 z "},"Ț":{"ha":922,"x_min":56,"x_max":867,"o":"m 56 0 m 867 863 l 572 863 l 572 0 l 350 0 l 350 863 l 56 863 l 56 1053 l 867 1053 l 867 863 m 354 -111 l 576 -111 l 513 -342 l 310 -342 l 354 -111 z "},"U":{"ha":1126,"x_min":119,"x_max":1007,"o":"m 564 -24 q 231 88 342 -24 q 119 403 119 199 l 119 1053 l 340 1053 l 340 403 q 397 224 340 285 q 564 164 453 164 q 730 224 674 164 q 786 403 786 285 l 786 1053 l 1007 1053 l 1007 403 q 897 88 1007 199 q 564 -24 788 -24 z "},"Ú":{"ha":1126,"x_min":119,"x_max":1007,"o":"m 119 0 m 564 -24 q 231 88 342 -24 q 119 403 119 199 l 119 1053 l 340 1053 l 340 403 q 397 224 340 285 q 564 164 453 164 q 730 224 674 164 q 786 403 786 285 l 786 1053 l 1007 1053 l 1007 403 q 897 88 1007 199 q 564 -24 788 -24 m 594 1374 l 839 1374 l 671 1161 l 456 1161 l 594 1374 z "},"Û":{"ha":1126,"x_min":119,"x_max":1007,"o":"m 119 0 m 564 -24 q 231 88 342 -24 q 119 403 119 199 l 119 1053 l 340 1053 l 340 403 q 397 224 340 285 q 564 164 453 164 q 730 224 674 164 q 786 403 786 285 l 786 1053 l 1007 1053 l 1007 403 q 897 88 1007 199 q 564 -24 788 -24 m 629 1161 l 564 1296 l 497 1161 l 288 1161 l 421 1374 l 706 1374 l 839 1161 l 629 1161 z "},"Ü":{"ha":1126,"x_min":119,"x_max":1007,"o":"m 119 0 m 619 1367 l 811 1367 l 811 1167 l 619 1167 l 619 1367 m 319 1367 l 511 1367 l 511 1167 l 319 1167 l 319 1367 m 564 -24 q 231 88 342 -24 q 119 403 119 199 l 119 1053 l 340 1053 l 340 403 q 397 224 340 285 q 564 164 453 164 q 730 224 674 164 q 786 403 786 285 l 786 1053 l 1007 1053 l 1007 403 q 897 88 1007 199 q 564 -24 788 -24 z "},"Ù":{"ha":1126,"x_min":119,"x_max":1007,"o":"m 119 0 m 564 -24 q 231 88 342 -24 q 119 403 119 199 l 119 1053 l 340 1053 l 340 403 q 397 224 340 285 q 564 164 453 164 q 730 224 674 164 q 786 403 786 285 l 786 1053 l 1007 1053 l 1007 403 q 897 88 1007 199 q 564 -24 788 -24 m 299 1374 l 543 1374 l 682 1161 l 467 1161 l 299 1374 z "},"Ű":{"ha":1126,"x_min":119,"x_max":1007,"o":"m 119 0 m 564 -24 q 231 88 342 -24 q 119 403 119 199 l 119 1053 l 340 1053 l 340 403 q 397 224 340 285 q 564 164 453 164 q 730 224 674 164 q 786 403 786 285 l 786 1053 l 1007 1053 l 1007 403 q 897 88 1007 199 q 564 -24 788 -24 m 754 1374 l 975 1374 l 807 1161 l 615 1161 l 754 1374 m 454 1374 l 676 1374 l 508 1161 l 315 1161 l 454 1374 z "},"Ū":{"ha":1126,"x_min":119,"x_max":1007,"o":"m 119 0 m 564 -24 q 231 88 342 -24 q 119 403 119 199 l 119 1053 l 340 1053 l 340 403 q 397 224 340 285 q 564 164 453 164 q 730 224 674 164 q 786 403 786 285 l 786 1053 l 1007 1053 l 1007 403 q 897 88 1007 199 q 564 -24 788 -24 m 349 1336 l 778 1336 l 778 1200 l 349 1200 l 349 1336 z "},"Ų":{"ha":1126,"x_min":119,"x_max":1007,"o":"m 1007 1053 l 1007 403 q 928 122 1007 229 q 688 -14 849 15 q 572 -183 572 -106 q 631 -233 572 -233 q 704 -217 665 -233 l 704 -337 q 597 -356 651 -356 q 456 -319 503 -356 q 408 -218 408 -283 q 508 -22 408 -112 q 217 102 314 -8 q 119 403 119 213 l 119 1053 l 340 1053 l 340 403 q 397 224 340 285 q 564 164 453 164 q 730 224 674 164 q 786 403 786 285 l 786 1053 l 1007 1053 z "},"Ů":{"ha":1126,"x_min":119,"x_max":1007,"o":"m 119 0 m 564 -24 q 231 88 342 -24 q 119 403 119 199 l 119 1053 l 340 1053 l 340 403 q 397 224 340 285 q 564 164 453 164 q 730 224 674 164 q 786 403 786 285 l 786 1053 l 1007 1053 l 1007 403 q 897 88 1007 199 q 564 -24 788 -24 m 564 1139 q 441 1174 482 1139 q 400 1267 400 1210 q 440 1359 400 1325 q 564 1393 479 1393 q 686 1358 646 1393 q 726 1267 726 1324 q 686 1174 726 1208 q 564 1139 646 1139 m 564 1225 q 599 1236 586 1225 q 611 1267 611 1247 q 564 1307 611 1307 q 515 1267 515 1307 q 564 1225 515 1225 z "},"V":{"ha":1113,"x_min":43,"x_max":1069,"o":"m 1069 1053 l 694 -12 l 419 -12 l 43 1053 l 271 1053 l 557 221 l 842 1053 l 1069 1053 z "},"W":{"ha":1629,"x_min":67,"x_max":1564,"o":"m 1564 1053 l 1294 -12 l 1019 -12 l 815 743 l 611 -12 l 336 -12 l 67 1053 l 282 1053 l 475 247 l 686 1053 l 943 1053 l 1156 247 l 1347 1053 l 1564 1053 z "},"Ẃ":{"ha":1629,"x_min":67,"x_max":1564,"o":"m 67 0 m 1564 1053 l 1294 -12 l 1019 -12 l 815 743 l 611 -12 l 336 -12 l 67 1053 l 282 1053 l 475 247 l 686 1053 l 943 1053 l 1156 247 l 1347 1053 l 1564 1053 m 846 1374 l 1090 1374 l 922 1161 l 707 1161 l 846 1374 z "},"Ŵ":{"ha":1629,"x_min":67,"x_max":1564,"o":"m 67 0 m 1564 1053 l 1294 -12 l 1019 -12 l 815 743 l 611 -12 l 336 -12 l 67 1053 l 282 1053 l 475 247 l 686 1053 l 943 1053 l 1156 247 l 1347 1053 l 1564 1053 m 881 1161 l 815 1296 l 749 1161 l 539 1161 l 672 1374 l 957 1374 l 1090 1161 l 881 1161 z "},"Ẅ":{"ha":1629,"x_min":67,"x_max":1564,"o":"m 67 0 m 1564 1053 l 1294 -12 l 1019 -12 l 815 743 l 611 -12 l 336 -12 l 67 1053 l 282 1053 l 475 247 l 686 1053 l 943 1053 l 1156 247 l 1347 1053 l 1564 1053 m 871 1367 l 1063 1367 l 1063 1167 l 871 1167 l 871 1367 m 571 1367 l 763 1367 l 763 1167 l 571 1167 l 571 1367 z "},"Ẁ":{"ha":1629,"x_min":67,"x_max":1564,"o":"m 67 0 m 1564 1053 l 1294 -12 l 1019 -12 l 815 743 l 611 -12 l 336 -12 l 67 1053 l 282 1053 l 475 247 l 686 1053 l 943 1053 l 1156 247 l 1347 1053 l 1564 1053 m 550 1374 l 794 1374 l 933 1161 l 718 1161 l 550 1374 z "},"X":{"ha":1103,"x_min":46,"x_max":1058,"o":"m 801 0 l 553 375 l 303 0 l 46 0 l 425 543 l 71 1053 l 326 1053 l 553 711 l 779 1053 l 1035 1053 l 681 542 l 1058 0 l 801 0 z "},"Y":{"ha":1011,"x_min":32,"x_max":981,"o":"m 614 407 l 614 0 l 397 0 l 397 407 l 32 1053 l 254 1053 l 506 600 l 758 1053 l 981 1053 l 614 407 z "},"Ý":{"ha":1011,"x_min":32,"x_max":981,"o":"m 32 0 m 614 407 l 614 0 l 397 0 l 397 407 l 32 1053 l 254 1053 l 506 600 l 758 1053 l 981 1053 l 614 407 m 538 1374 l 782 1374 l 614 1161 l 399 1161 l 538 1374 z "},"Ŷ":{"ha":1011,"x_min":32,"x_max":981,"o":"m 32 0 m 614 407 l 614 0 l 397 0 l 397 407 l 32 1053 l 254 1053 l 506 600 l 758 1053 l 981 1053 l 614 407 m 571 1161 l 506 1296 l 439 1161 l 229 1161 l 363 1374 l 647 1374 l 781 1161 l 571 1161 z "},"Ÿ":{"ha":1011,"x_min":32,"x_max":981,"o":"m 32 0 m 614 407 l 614 0 l 397 0 l 397 407 l 32 1053 l 254 1053 l 506 600 l 758 1053 l 981 1053 l 614 407 m 563 1367 l 754 1367 l 754 1167 l 563 1167 l 563 1367 m 263 1367 l 454 1367 l 454 1167 l 263 1167 l 263 1367 z "},"Ỳ":{"ha":1011,"x_min":32,"x_max":981,"o":"m 32 0 m 614 407 l 614 0 l 397 0 l 397 407 l 32 1053 l 254 1053 l 506 600 l 758 1053 l 981 1053 l 614 407 m 240 1374 l 485 1374 l 624 1161 l 408 1161 l 240 1374 z "},"Z":{"ha":1018,"x_min":111,"x_max":931,"o":"m 931 190 l 931 0 l 111 0 l 111 188 l 607 863 l 129 863 l 129 1053 l 885 1053 l 885 865 l 389 190 l 931 190 z "},"Ź":{"ha":1018,"x_min":111,"x_max":931,"o":"m 111 0 m 931 190 l 931 0 l 111 0 l 111 188 l 607 863 l 129 863 l 129 1053 l 885 1053 l 885 865 l 389 190 l 931 190 m 546 1374 l 790 1374 l 622 1161 l 407 1161 l 546 1374 z "},"Ž":{"ha":1018,"x_min":111,"x_max":931,"o":"m 111 0 m 931 190 l 931 0 l 111 0 l 111 188 l 607 863 l 129 863 l 129 1053 l 885 1053 l 885 865 l 389 190 l 931 190 m 789 1374 l 656 1161 l 371 1161 l 238 1374 l 447 1374 l 514 1239 l 579 1374 l 789 1374 z "},"Ż":{"ha":1018,"x_min":111,"x_max":931,"o":"m 111 0 m 931 190 l 931 0 l 111 0 l 111 188 l 607 863 l 129 863 l 129 1053 l 885 1053 l 885 865 l 389 190 l 931 190 m 410 1367 l 624 1367 l 624 1167 l 410 1167 l 410 1367 z "},"a":{"ha":829,"x_min":43,"x_max":739,"o":"m 393 782 q 614 741 539 782 q 714 632 689 700 q 739 458 739 564 l 739 0 l 525 0 l 525 67 q 427 1 475 21 q 321 -18 379 -18 q 118 52 193 -18 q 43 246 43 122 q 120 440 43 372 q 333 508 197 508 q 525 467 443 508 q 513 540 524 513 q 469 581 501 567 q 372 596 436 596 l 228 596 l 228 782 l 393 782 m 364 150 q 525 219 442 150 l 525 318 q 382 353 453 353 q 293 328 326 353 q 260 249 260 303 q 364 150 260 150 z "},"á":{"ha":829,"x_min":43,"x_max":739,"o":"m 43 0 m 393 782 q 614 741 539 782 q 714 632 689 700 q 739 458 739 564 l 739 0 l 525 0 l 525 67 q 427 1 475 21 q 321 -18 379 -18 q 118 52 193 -18 q 43 246 43 122 q 120 440 43 372 q 333 508 197 508 q 525 467 443 508 q 513 540 524 513 q 469 581 501 567 q 372 596 436 596 l 228 596 l 228 782 l 393 782 m 364 150 q 525 219 442 150 l 525 318 q 382 353 453 353 q 293 328 326 353 q 260 249 260 303 q 364 150 260 150 m 431 1124 l 675 1124 l 507 911 l 292 911 l 431 1124 z "},"ă":{"ha":829,"x_min":43,"x_max":739,"o":"m 43 0 m 393 782 q 614 741 539 782 q 714 632 689 700 q 739 458 739 564 l 739 0 l 525 0 l 525 67 q 427 1 475 21 q 321 -18 379 -18 q 118 52 193 -18 q 43 246 43 122 q 120 440 43 372 q 333 508 197 508 q 525 467 443 508 q 513 540 524 513 q 469 581 501 567 q 372 596 436 596 l 228 596 l 228 782 l 393 782 m 364 150 q 525 219 442 150 l 525 318 q 382 353 453 353 q 293 328 326 353 q 260 249 260 303 q 364 150 260 150 m 404 903 q 235 949 296 903 q 174 1094 174 996 l 174 1121 l 335 1121 l 335 1099 q 351 1044 335 1061 q 404 1026 368 1026 q 457 1044 440 1026 q 474 1099 474 1061 l 474 1121 l 636 1121 l 636 1094 q 576 949 638 996 q 404 903 515 903 z "},"â":{"ha":829,"x_min":43,"x_max":739,"o":"m 43 0 m 393 782 q 614 741 539 782 q 714 632 689 700 q 739 458 739 564 l 739 0 l 525 0 l 525 67 q 427 1 475 21 q 321 -18 379 -18 q 118 52 193 -18 q 43 246 43 122 q 120 440 43 372 q 333 508 197 508 q 525 467 443 508 q 513 540 524 513 q 469 581 501 567 q 372 596 436 596 l 228 596 l 228 782 l 393 782 m 364 150 q 525 219 442 150 l 525 318 q 382 353 453 353 q 293 328 326 353 q 260 249 260 303 q 364 150 260 150 m 468 911 l 403 1046 l 336 911 l 126 911 l 260 1124 l 544 1124 l 678 911 l 468 911 z "},"ä":{"ha":829,"x_min":43,"x_max":739,"o":"m 43 0 m 393 782 q 614 741 539 782 q 714 632 689 700 q 739 458 739 564 l 739 0 l 525 0 l 525 67 q 427 1 475 21 q 321 -18 379 -18 q 118 52 193 -18 q 43 246 43 122 q 120 440 43 372 q 333 508 197 508 q 525 467 443 508 q 513 540 524 513 q 469 581 501 567 q 372 596 436 596 l 228 596 l 228 782 l 393 782 m 364 150 q 525 219 442 150 l 525 318 q 382 353 453 353 q 293 328 326 353 q 260 249 260 303 q 364 150 260 150 m 458 1117 l 650 1117 l 650 917 l 458 917 l 458 1117 m 158 1117 l 350 1117 l 350 917 l 158 917 l 158 1117 z "},"à":{"ha":829,"x_min":43,"x_max":739,"o":"m 43 0 m 393 782 q 614 741 539 782 q 714 632 689 700 q 739 458 739 564 l 739 0 l 525 0 l 525 67 q 427 1 475 21 q 321 -18 379 -18 q 118 52 193 -18 q 43 246 43 122 q 120 440 43 372 q 333 508 197 508 q 525 467 443 508 q 513 540 524 513 q 469 581 501 567 q 372 596 436 596 l 228 596 l 228 782 l 393 782 m 364 150 q 525 219 442 150 l 525 318 q 382 353 453 353 q 293 328 326 353 q 260 249 260 303 q 364 150 260 150 m 132 1124 l 376 1124 l 515 911 l 300 911 l 132 1124 z "},"ā":{"ha":829,"x_min":43,"x_max":739,"o":"m 43 0 m 393 782 q 614 741 539 782 q 714 632 689 700 q 739 458 739 564 l 739 0 l 525 0 l 525 67 q 427 1 475 21 q 321 -18 379 -18 q 118 52 193 -18 q 43 246 43 122 q 120 440 43 372 q 333 508 197 508 q 525 467 443 508 q 513 540 524 513 q 469 581 501 567 q 372 596 436 596 l 228 596 l 228 782 l 393 782 m 364 150 q 525 219 442 150 l 525 318 q 382 353 453 353 q 293 328 326 353 q 260 249 260 303 q 364 150 260 150 m 188 1086 l 617 1086 l 617 950 l 188 950 l 188 1086 z "},"ą":{"ha":829,"x_min":43,"x_max":739,"o":"m 393 782 q 614 741 539 782 q 714 632 689 700 q 739 458 739 564 l 739 0 q 608 -183 608 -101 q 665 -233 608 -233 q 739 -217 701 -233 l 739 -337 q 632 -356 689 -356 q 492 -319 539 -356 q 444 -218 444 -283 q 476 -106 444 -161 q 571 0 507 -50 l 525 0 l 525 67 q 427 1 475 21 q 321 -18 379 -18 q 118 52 193 -18 q 43 246 43 122 q 120 440 43 372 q 333 508 197 508 q 525 467 443 508 q 513 540 524 513 q 469 581 501 567 q 372 596 436 596 l 228 596 l 228 782 l 393 782 m 364 150 q 525 219 442 150 l 525 318 q 382 353 453 353 q 293 328 326 353 q 260 249 260 303 q 364 150 260 150 z "},"å":{"ha":829,"x_min":43,"x_max":739,"o":"m 43 0 m 393 782 q 614 741 539 782 q 714 632 689 700 q 739 458 739 564 l 739 0 l 525 0 l 525 67 q 427 1 475 21 q 321 -18 379 -18 q 118 52 193 -18 q 43 246 43 122 q 120 440 43 372 q 333 508 197 508 q 525 467 443 508 q 513 540 524 513 q 469 581 501 567 q 372 596 436 596 l 228 596 l 228 782 l 393 782 m 364 150 q 525 219 442 150 l 525 318 q 382 353 453 353 q 293 328 326 353 q 260 249 260 303 q 364 150 260 150 m 403 889 q 280 924 321 889 q 239 1017 239 960 q 278 1109 239 1075 q 403 1143 318 1143 q 525 1108 485 1143 q 565 1017 565 1074 q 525 924 565 958 q 403 889 485 889 m 403 975 q 438 986 425 975 q 450 1017 450 997 q 403 1057 450 1057 q 354 1017 354 1057 q 403 975 354 975 z "},"ã":{"ha":829,"x_min":43,"x_max":739,"o":"m 43 0 m 393 782 q 614 741 539 782 q 714 632 689 700 q 739 458 739 564 l 739 0 l 525 0 l 525 67 q 427 1 475 21 q 321 -18 379 -18 q 118 52 193 -18 q 43 246 43 122 q 120 440 43 372 q 333 508 197 508 q 525 467 443 508 q 513 540 524 513 q 469 581 501 567 q 372 596 436 596 l 228 596 l 228 782 l 393 782 m 364 150 q 525 219 442 150 l 525 318 q 382 353 453 353 q 293 328 326 353 q 260 249 260 303 q 364 150 260 150 m 149 917 q 188 1068 150 1026 q 292 1110 226 1110 q 372 1094 326 1110 l 424 1075 q 475 1063 463 1063 q 504 1110 504 1063 l 656 1110 q 616 958 654 1000 q 513 917 578 917 q 432 932 469 917 l 381 950 q 329 963 343 963 q 300 917 300 963 l 149 917 z "},"æ":{"ha":1307,"x_min":43,"x_max":1260,"o":"m 751 332 q 971 156 776 156 q 1074 169 1024 156 q 1189 214 1125 183 l 1246 47 q 1105 -8 1175 8 q 943 -24 1035 -24 q 751 10 835 -24 q 614 108 668 44 q 475 10 544 39 q 321 -18 406 -18 q 118 52 193 -18 q 43 246 43 122 q 120 440 43 372 q 333 508 197 508 q 525 467 443 508 q 513 540 524 513 q 469 581 501 567 q 372 596 436 596 l 228 596 l 228 782 l 393 782 q 651 688 582 782 q 767 774 699 744 q 917 804 836 804 q 1167 705 1074 804 q 1260 417 1260 606 l 1260 332 l 751 332 m 901 625 q 806 594 843 625 q 756 494 769 564 l 1036 494 q 996 594 1029 563 q 901 625 963 625 m 364 150 q 544 236 450 150 q 528 317 532 276 q 382 353 456 353 q 293 328 326 353 q 260 249 260 303 q 364 150 260 150 z "},"b":{"ha":944,"x_min":104,"x_max":888,"o":"m 532 804 q 717 758 636 804 q 842 618 797 711 q 888 390 888 525 q 842 163 888 256 q 717 23 797 69 q 532 -24 636 -24 q 318 56 422 -24 l 318 0 l 104 0 l 104 1175 l 318 1175 l 318 724 q 532 804 421 804 m 488 167 q 620 224 575 167 q 665 390 665 281 q 620 556 665 499 q 488 613 575 613 q 318 550 404 613 l 318 231 q 488 167 406 167 z "},"c":{"ha":758,"x_min":56,"x_max":726,"o":"m 449 -24 q 157 87 258 -22 q 56 392 56 196 q 157 694 56 586 q 449 804 258 803 q 566 795 517 804 q 669 765 615 786 l 669 569 q 572 603 618 593 q 472 613 526 613 q 325 555 371 611 q 279 393 279 499 q 467 167 279 168 q 665 229 563 167 l 726 50 q 449 -24 600 -24 z "},"ć":{"ha":758,"x_min":56,"x_max":726,"o":"m 56 0 m 449 -24 q 157 87 258 -22 q 56 392 56 196 q 157 694 56 586 q 449 804 258 803 q 566 795 517 804 q 669 765 615 786 l 669 569 q 572 603 618 593 q 472 613 526 613 q 325 555 371 611 q 279 393 279 499 q 467 167 279 168 q 665 229 563 167 l 726 50 q 449 -24 600 -24 m 460 1124 l 704 1124 l 536 911 l 321 911 l 460 1124 z "},"č":{"ha":758,"x_min":56,"x_max":726,"o":"m 56 0 m 449 -24 q 157 87 258 -22 q 56 392 56 196 q 157 694 56 586 q 449 804 258 803 q 566 795 517 804 q 669 765 615 786 l 669 569 q 572 603 618 593 q 472 613 526 613 q 325 555 371 611 q 279 393 279 499 q 467 167 279 168 q 665 229 563 167 l 726 50 q 449 -24 600 -24 m 707 1124 l 574 911 l 289 911 l 156 1124 l 365 1124 l 432 989 l 497 1124 l 707 1124 z "},"ç":{"ha":758,"x_min":56,"x_max":726,"o":"m 486 -68 q 597 -106 558 -68 q 636 -208 636 -144 q 588 -323 636 -281 q 444 -365 539 -365 q 365 -360 400 -365 q 293 -337 329 -354 l 293 -217 q 421 -246 357 -246 q 485 -212 485 -246 q 469 -189 485 -197 q 417 -181 454 -181 q 311 -197 364 -181 l 363 -17 q 134 115 213 8 q 56 392 56 221 q 157 694 56 586 q 449 804 258 803 q 566 795 517 804 q 669 765 615 786 l 669 569 q 572 603 618 593 q 472 613 526 613 q 325 555 371 611 q 279 393 279 499 q 467 167 279 168 q 665 229 563 167 l 726 50 q 501 -21 618 -12 l 485 -68 l 486 -68 z "},"ċ":{"ha":758,"x_min":56,"x_max":726,"o":"m 56 0 m 449 -24 q 157 87 258 -22 q 56 392 56 196 q 157 694 56 586 q 449 804 258 803 q 566 795 517 804 q 669 765 615 786 l 669 569 q 572 603 618 593 q 472 613 526 613 q 325 555 371 611 q 279 393 279 499 q 467 167 279 168 q 665 229 563 167 l 726 50 q 449 -24 600 -24 m 326 1117 l 540 1117 l 540 917 l 326 917 l 326 1117 z "},"d":{"ha":944,"x_min":56,"x_max":840,"o":"m 840 1175 l 840 0 l 626 0 l 626 56 q 413 -24 522 -24 q 228 23 308 -24 q 101 163 147 69 q 56 390 56 256 q 101 618 56 525 q 228 758 147 711 q 413 804 308 804 q 626 724 524 804 l 626 1175 l 840 1175 m 456 167 q 626 231 539 167 l 626 550 q 456 613 540 613 q 324 556 368 613 q 279 390 279 499 q 324 224 279 281 q 456 167 368 167 z "},"ð":{"ha":922,"x_min":56,"x_max":865,"o":"m 635 1040 q 806 774 746 924 q 865 449 865 625 q 761 104 865 232 q 461 -24 657 -24 q 165 81 274 -24 q 56 382 56 185 q 104 618 56 526 q 232 751 153 710 q 406 792 311 792 q 576 746 492 792 q 461 906 529 833 l 361 828 l 271 933 l 351 997 q 267 1050 307 1029 l 438 1197 q 526 1136 499 1158 l 625 1214 l 718 1104 l 635 1040 m 649 435 q 643 532 649 489 q 460 601 551 601 q 326 553 379 601 q 272 382 272 504 q 324 217 272 268 q 461 167 375 167 q 599 236 550 167 q 649 435 649 306 z "},"ď":{"ha":944,"x_min":56,"x_max":1172,"o":"m 56 0 m 840 1175 l 840 0 l 626 0 l 626 56 q 413 -24 522 -24 q 228 23 308 -24 q 101 163 147 69 q 56 390 56 256 q 101 618 56 525 q 228 758 147 711 q 413 804 308 804 q 626 724 524 804 l 626 1175 l 840 1175 m 456 167 q 626 231 539 167 l 626 550 q 456 613 540 613 q 324 556 368 613 q 279 390 279 499 q 324 224 279 281 q 456 167 368 167 m 958 1050 l 1172 1050 l 1071 769 l 889 769 l 958 1050 z "},"đ":{"ha":944,"x_min":56,"x_max":936,"o":"m 936 879 l 840 879 l 840 0 l 626 0 l 626 56 q 413 -24 522 -24 q 228 23 308 -24 q 101 163 147 69 q 56 390 56 256 q 101 618 56 525 q 228 758 147 711 q 413 804 308 804 q 626 724 524 804 l 626 879 l 401 879 l 401 1038 l 626 1038 l 626 1175 l 840 1175 l 840 1038 l 936 1038 l 936 879 m 456 167 q 626 231 539 167 l 626 550 q 456 613 540 613 q 324 556 368 613 q 279 390 279 499 q 324 224 279 281 q 456 167 368 167 z "},"e":{"ha":839,"x_min":56,"x_max":792,"o":"m 283 332 q 503 156 308 156 q 606 169 556 156 q 721 214 657 183 l 778 47 q 637 -8 707 8 q 475 -24 567 -24 q 247 28 342 -24 q 104 174 153 81 q 56 392 56 268 q 106 615 56 522 q 242 756 156 708 q 433 804 328 804 q 697 706 601 804 q 792 417 792 607 l 792 332 l 283 332 m 433 625 q 338 594 375 625 q 288 494 301 564 l 568 494 q 528 594 561 563 q 433 625 494 625 z "},"é":{"ha":839,"x_min":56,"x_max":792,"o":"m 56 0 m 283 332 q 503 156 308 156 q 606 169 556 156 q 721 214 657 183 l 778 47 q 637 -8 707 8 q 475 -24 567 -24 q 247 28 342 -24 q 104 174 153 81 q 56 392 56 268 q 106 615 56 522 q 242 756 156 708 q 433 804 328 804 q 697 706 601 804 q 792 417 792 607 l 792 332 l 283 332 m 433 625 q 338 594 375 625 q 288 494 301 564 l 568 494 q 528 594 561 563 q 433 625 494 625 m 463 1124 l 707 1124 l 539 911 l 324 911 l 463 1124 z "},"ě":{"ha":839,"x_min":56,"x_max":792,"o":"m 56 0 m 283 332 q 503 156 308 156 q 606 169 556 156 q 721 214 657 183 l 778 47 q 637 -8 707 8 q 475 -24 567 -24 q 247 28 342 -24 q 104 174 153 81 q 56 392 56 268 q 106 615 56 522 q 242 756 156 708 q 433 804 328 804 q 697 706 601 804 q 792 417 792 607 l 792 332 l 283 332 m 433 625 q 338 594 375 625 q 288 494 301 564 l 568 494 q 528 594 561 563 q 433 625 494 625 m 710 1124 l 576 911 l 292 911 l 158 1124 l 368 1124 l 435 989 l 500 1124 l 710 1124 z "},"ê":{"ha":839,"x_min":56,"x_max":792,"o":"m 56 0 m 283 332 q 503 156 308 156 q 606 169 556 156 q 721 214 657 183 l 778 47 q 637 -8 707 8 q 475 -24 567 -24 q 247 28 342 -24 q 104 174 153 81 q 56 392 56 268 q 106 615 56 522 q 242 756 156 708 q 433 804 328 804 q 697 706 601 804 q 792 417 792 607 l 792 332 l 283 332 m 433 625 q 338 594 375 625 q 288 494 301 564 l 568 494 q 528 594 561 563 q 433 625 494 625 m 500 911 l 435 1046 l 368 911 l 158 911 l 292 1124 l 576 1124 l 710 911 l 500 911 z "},"ë":{"ha":839,"x_min":56,"x_max":792,"o":"m 56 0 m 283 332 q 503 156 308 156 q 606 169 556 156 q 721 214 657 183 l 778 47 q 637 -8 707 8 q 475 -24 567 -24 q 247 28 342 -24 q 104 174 153 81 q 56 392 56 268 q 106 615 56 522 q 242 756 156 708 q 433 804 328 804 q 697 706 601 804 q 792 417 792 607 l 792 332 l 283 332 m 433 625 q 338 594 375 625 q 288 494 301 564 l 568 494 q 528 594 561 563 q 433 625 494 625 m 492 1117 l 683 1117 l 683 917 l 492 917 l 492 1117 m 192 1117 l 383 1117 l 383 917 l 192 917 l 192 1117 z "},"ė":{"ha":839,"x_min":56,"x_max":792,"o":"m 56 0 m 283 332 q 503 156 308 156 q 606 169 556 156 q 721 214 657 183 l 778 47 q 637 -8 707 8 q 475 -24 567 -24 q 247 28 342 -24 q 104 174 153 81 q 56 392 56 268 q 106 615 56 522 q 242 756 156 708 q 433 804 328 804 q 697 706 601 804 q 792 417 792 607 l 792 332 l 283 332 m 433 625 q 338 594 375 625 q 288 494 301 564 l 568 494 q 528 594 561 563 q 433 625 494 625 m 331 1117 l 544 1117 l 544 917 l 331 917 l 331 1117 z "},"è":{"ha":839,"x_min":56,"x_max":792,"o":"m 56 0 m 283 332 q 503 156 308 156 q 606 169 556 156 q 721 214 657 183 l 778 47 q 637 -8 707 8 q 475 -24 567 -24 q 247 28 342 -24 q 104 174 153 81 q 56 392 56 268 q 106 615 56 522 q 242 756 156 708 q 433 804 328 804 q 697 706 601 804 q 792 417 792 607 l 792 332 l 283 332 m 433 625 q 338 594 375 625 q 288 494 301 564 l 568 494 q 528 594 561 563 q 433 625 494 625 m 165 1124 l 410 1124 l 549 911 l 333 911 l 165 1124 z "},"ē":{"ha":839,"x_min":56,"x_max":792,"o":"m 56 0 m 283 332 q 503 156 308 156 q 606 169 556 156 q 721 214 657 183 l 778 47 q 637 -8 707 8 q 475 -24 567 -24 q 247 28 342 -24 q 104 174 153 81 q 56 392 56 268 q 106 615 56 522 q 242 756 156 708 q 433 804 328 804 q 697 706 601 804 q 792 417 792 607 l 792 332 l 283 332 m 433 625 q 338 594 375 625 q 288 494 301 564 l 568 494 q 528 594 561 563 q 433 625 494 625 m 219 1086 l 649 1086 l 649 950 l 219 950 l 219 1086 z "},"ę":{"ha":839,"x_min":56,"x_max":792,"o":"m 283 332 q 503 156 308 156 q 606 169 556 156 q 721 214 657 183 l 778 47 q 674 1 721 17 q 540 -183 540 -101 q 597 -233 540 -233 q 671 -217 633 -233 l 671 -337 q 564 -356 621 -356 q 424 -319 471 -356 q 376 -218 376 -283 q 472 -24 376 -111 q 245 29 339 -24 q 103 175 151 82 q 56 392 56 268 q 106 615 56 522 q 242 756 156 708 q 433 804 328 804 q 697 706 601 804 q 792 417 792 607 l 792 332 l 283 332 m 433 625 q 338 594 375 625 q 288 494 301 564 l 568 494 q 528 594 561 563 q 433 625 494 625 z "},"f":{"ha":540,"x_min":44,"x_max":506,"o":"m 426 1003 q 369 984 385 1003 q 353 917 353 965 l 353 782 l 506 782 l 506 590 l 353 590 l 353 0 l 139 0 l 139 590 l 44 590 l 44 782 l 139 782 l 139 990 q 371 1193 139 1193 q 506 1176 425 1193 l 506 992 q 426 1003 469 1003 z "},"g":{"ha":933,"x_min":50,"x_max":835,"o":"m 835 782 l 835 -1 q 744 -253 835 -157 q 478 -349 653 -349 q 290 -337 371 -349 q 138 -299 210 -326 l 138 -100 q 281 -144 208 -131 q 411 -158 353 -158 q 574 -115 526 -158 q 621 13 621 -72 l 621 83 q 407 4 517 4 q 147 103 244 4 q 50 404 50 201 q 96 624 50 533 q 222 759 142 714 q 407 804 303 804 q 621 724 518 804 l 621 782 l 835 782 m 450 194 q 621 258 531 194 l 621 550 q 450 613 533 613 q 317 558 363 613 q 272 404 272 504 q 316 244 272 293 q 450 194 360 194 z "},"ğ":{"ha":933,"x_min":50,"x_max":835,"o":"m 50 0 m 835 782 l 835 -1 q 744 -253 835 -157 q 478 -349 653 -349 q 290 -337 371 -349 q 138 -299 210 -326 l 138 -100 q 281 -144 208 -131 q 411 -158 353 -158 q 574 -115 526 -158 q 621 13 621 -72 l 621 83 q 407 4 517 4 q 147 103 244 4 q 50 404 50 201 q 96 624 50 533 q 222 759 142 714 q 407 804 303 804 q 621 724 518 804 l 621 782 l 835 782 m 450 194 q 621 258 531 194 l 621 550 q 450 613 533 613 q 317 558 363 613 q 272 404 272 504 q 316 244 272 293 q 450 194 360 194 m 468 903 q 299 949 360 903 q 238 1094 238 996 l 238 1121 l 399 1121 l 399 1099 q 415 1044 399 1061 q 468 1026 432 1026 q 521 1044 504 1026 q 538 1099 538 1061 l 538 1121 l 700 1121 l 700 1094 q 640 949 701 996 q 468 903 579 903 z "},"ģ":{"ha":933,"x_min":50,"x_max":835,"o":"m 50 0 m 835 782 l 835 -1 q 744 -253 835 -157 q 478 -349 653 -349 q 290 -337 371 -349 q 138 -299 210 -326 l 138 -100 q 281 -144 208 -131 q 411 -158 353 -158 q 574 -115 526 -158 q 621 13 621 -72 l 621 83 q 407 4 517 4 q 147 103 244 4 q 50 404 50 201 q 96 624 50 533 q 222 759 142 714 q 407 804 303 804 q 621 724 518 804 l 621 782 l 835 782 m 450 194 q 621 258 531 194 l 621 550 q 450 613 533 613 q 317 558 363 613 q 272 404 272 504 q 316 244 272 293 q 450 194 360 194 m 422 1171 l 625 1171 l 581 940 l 358 940 l 422 1171 z "},"ġ":{"ha":933,"x_min":50,"x_max":835,"o":"m 50 0 m 835 782 l 835 -1 q 744 -253 835 -157 q 478 -349 653 -349 q 290 -337 371 -349 q 138 -299 210 -326 l 138 -100 q 281 -144 208 -131 q 411 -158 353 -158 q 574 -115 526 -158 q 621 13 621 -72 l 621 83 q 407 4 517 4 q 147 103 244 4 q 50 404 50 201 q 96 624 50 533 q 222 759 142 714 q 407 804 303 804 q 621 724 518 804 l 621 782 l 835 782 m 450 194 q 621 258 531 194 l 621 550 q 450 613 533 613 q 317 558 363 613 q 272 404 272 504 q 316 244 272 293 q 450 194 360 194 m 363 1117 l 576 1117 l 576 917 l 363 917 l 363 1117 z "},"h":{"ha":943,"x_min":104,"x_max":846,"o":"m 542 799 q 770 720 694 799 q 846 469 846 642 l 846 0 l 632 0 l 632 469 q 601 573 632 539 q 496 607 571 607 q 318 533 407 607 l 318 0 l 104 0 l 104 1175 l 318 1175 l 318 714 q 542 799 421 799 z "},"ħ":{"ha":943,"x_min":6,"x_max":846,"o":"m 542 799 q 770 720 694 799 q 846 469 846 642 l 846 0 l 632 0 l 632 469 q 601 573 632 539 q 496 607 571 607 q 318 533 407 607 l 318 0 l 104 0 l 104 879 l 6 879 l 6 1038 l 104 1038 l 104 1175 l 318 1175 l 318 1038 l 539 1038 l 539 879 l 318 879 l 318 714 q 542 799 421 799 z "},"i":{"ha":422,"x_min":104,"x_max":318,"o":"m 104 1121 l 318 1121 l 318 911 l 104 911 l 104 1121 m 104 782 l 318 782 l 318 0 l 104 0 l 104 782 z "},"ı":{"ha":422,"x_min":104,"x_max":318,"o":"m 104 782 l 318 782 l 318 0 l 104 0 l 104 782 z "},"í":{"ha":422,"x_min":100,"x_max":483,"o":"m 100 0 m 104 782 l 318 782 l 318 0 l 104 0 l 104 782 m 239 1124 l 483 1124 l 315 911 l 100 911 l 239 1124 z "},"î":{"ha":422,"x_min":-65,"x_max":486,"o":"m 0 0 m 104 782 l 318 782 l 318 0 l 104 0 l 104 782 m 276 911 l 211 1046 l 144 911 l -65 911 l 68 1124 l 353 1124 l 486 911 l 276 911 z "},"ï":{"ha":422,"x_min":-33,"x_max":458,"o":"m 0 0 m 104 782 l 318 782 l 318 0 l 104 0 l 104 782 m 267 1117 l 458 1117 l 458 917 l 267 917 l 267 1117 m -33 1117 l 158 1117 l 158 917 l -33 917 l -33 1117 z "},"ì":{"ha":422,"x_min":-60,"x_max":324,"o":"m 0 0 m 104 782 l 318 782 l 318 0 l 104 0 l 104 782 m -60 1124 l 185 1124 l 324 911 l 108 911 l -60 1124 z "},"ĳ":{"ha":844,"x_min":104,"x_max":740,"o":"m 104 0 m 104 1121 l 318 1121 l 318 911 l 104 911 l 104 1121 m 104 782 l 318 782 l 318 0 l 104 0 l 104 782 m 526 1121 l 740 1121 l 740 911 l 526 911 l 526 1121 m 508 -347 q 374 -331 454 -347 l 374 -147 q 453 -157 413 -157 q 511 -136 496 -157 q 526 -61 526 -115 l 526 785 l 740 785 l 740 -136 q 684 -294 740 -242 q 508 -347 628 -347 z "},"ī":{"ha":422,"x_min":-4,"x_max":425,"o":"m 0 0 m 104 782 l 318 782 l 318 0 l 104 0 l 104 782 m -4 1086 l 425 1086 l 425 950 l -4 950 l -4 1086 z "},"į":{"ha":422,"x_min":1,"x_max":318,"o":"m 318 1121 l 318 911 l 104 911 l 104 1121 l 318 1121 m 104 782 l 318 782 l 318 0 l 296 0 q 165 -183 165 -101 q 222 -233 165 -233 q 296 -217 258 -233 l 296 -337 q 189 -356 246 -356 q 49 -319 96 -356 q 1 -218 1 -283 q 33 -106 1 -161 q 128 0 64 -50 l 104 0 l 104 782 z "},"j":{"ha":422,"x_min":-49,"x_max":318,"o":"m 104 1121 l 318 1121 l 318 911 l 104 911 l 104 1121 m 86 -347 q -49 -331 32 -347 l -49 -147 q 31 -157 -10 -157 q 89 -136 74 -157 q 104 -61 104 -115 l 104 785 l 318 785 l 318 -136 q 262 -294 318 -242 q 86 -347 206 -347 z "},"ȷ":{"ha":422,"x_min":-49,"x_max":318,"o":"m 86 -347 q -49 -331 32 -347 l -49 -147 q 31 -157 -10 -157 q 89 -136 74 -157 q 104 -61 104 -115 l 104 785 l 318 785 l 318 -136 q 262 -294 318 -242 q 86 -347 206 -347 z "},"k":{"ha":888,"x_min":104,"x_max":868,"o":"m 388 285 l 318 213 l 318 0 l 104 0 l 104 1175 l 318 1175 l 318 481 l 581 758 l 839 758 l 528 432 l 868 0 l 613 0 l 388 285 z "},"ķ":{"ha":888,"x_min":104,"x_max":868,"o":"m 104 0 m 388 285 l 318 213 l 318 0 l 104 0 l 104 1175 l 318 1175 l 318 481 l 581 758 l 839 758 l 528 432 l 868 0 l 613 0 l 388 285 m 339 -111 l 561 -111 l 497 -342 l 294 -342 l 339 -111 z "},"l":{"ha":506,"x_min":104,"x_max":471,"o":"m 336 -18 q 104 185 104 -18 l 104 1175 l 318 1175 l 318 260 q 334 191 318 210 q 392 172 350 172 q 471 183 435 172 l 471 -1 q 336 -18 390 -18 z "},"ĺ":{"ha":506,"x_min":97,"x_max":481,"o":"m 97 0 m 336 -18 q 104 185 104 -18 l 104 1175 l 318 1175 l 318 260 q 334 191 318 210 q 392 172 350 172 q 471 183 435 172 l 471 -1 q 336 -18 390 -18 m 236 1540 l 481 1540 l 313 1328 l 97 1328 l 236 1540 z "},"ľ":{"ha":506,"x_min":104,"x_max":656,"o":"m 104 0 m 336 -18 q 104 185 104 -18 l 104 1175 l 318 1175 l 318 260 q 334 191 318 210 q 392 172 350 172 q 471 183 435 172 l 471 -1 q 336 -18 390 -18 m 442 1053 l 656 1053 l 554 772 l 372 772 l 442 1053 z "},"ļ":{"ha":506,"x_min":104,"x_max":471,"o":"m 104 0 m 336 -18 q 104 185 104 -18 l 104 1175 l 318 1175 l 318 260 q 334 191 318 210 q 392 172 350 172 q 471 183 435 172 l 471 -1 q 336 -18 390 -18 m 203 -111 l 425 -111 l 361 -342 l 158 -342 l 203 -111 z "},"ŀ":{"ha":506,"x_min":104,"x_max":575,"o":"m 104 0 m 336 -18 q 104 185 104 -18 l 104 1175 l 318 1175 l 318 260 q 334 191 318 210 q 392 172 350 172 q 471 183 435 172 l 471 -1 q 336 -18 390 -18 m 347 608 l 575 608 l 575 364 l 347 364 l 347 608 z "},"ł":{"ha":506,"x_min":4,"x_max":471,"o":"m 318 533 l 318 260 q 334 191 318 210 q 392 172 350 172 q 471 183 435 172 l 471 -1 q 336 -18 390 -18 q 104 185 104 -18 l 104 468 l 4 438 l 4 624 l 104 653 l 104 1175 l 318 1175 l 318 718 l 471 764 l 471 579 l 318 533 z "},"m":{"ha":1418,"x_min":104,"x_max":1326,"o":"m 1033 799 q 1254 721 1182 799 q 1326 469 1326 643 l 1326 0 l 1113 0 l 1113 469 q 1085 573 1113 539 q 989 607 1057 607 q 819 532 906 607 q 822 469 822 493 l 822 0 l 608 0 l 608 469 q 581 573 608 539 q 485 607 553 607 q 318 535 401 607 l 318 0 l 104 0 l 104 782 l 318 782 l 318 715 q 420 778 369 758 q 529 799 471 799 q 781 676 714 799 q 903 769 843 739 q 1033 799 964 799 z "},"n":{"ha":943,"x_min":104,"x_max":846,"o":"m 542 799 q 770 720 694 799 q 846 469 846 642 l 846 0 l 632 0 l 632 469 q 601 573 632 539 q 496 607 571 607 q 318 533 407 607 l 318 0 l 104 0 l 104 782 l 318 782 l 318 714 q 542 799 421 799 z "},"ń":{"ha":943,"x_min":104,"x_max":846,"o":"m 104 0 m 542 799 q 770 720 694 799 q 846 469 846 642 l 846 0 l 632 0 l 632 469 q 601 573 632 539 q 496 607 571 607 q 318 533 407 607 l 318 0 l 104 0 l 104 782 l 318 782 l 318 714 q 542 799 421 799 m 511 1124 l 756 1124 l 588 911 l 372 911 l 511 1124 z "},"ň":{"ha":943,"x_min":-135,"x_max":846,"o":"m 0 0 m 542 799 q 770 720 694 799 q 846 469 846 642 l 846 0 l 632 0 l 632 469 q 601 573 632 539 q 496 607 571 607 q 318 533 407 607 l 318 0 l 104 0 l 104 782 l 318 782 l 318 714 q 542 799 421 799 m -65 1053 l 149 1053 l 47 772 l -135 772 l -65 1053 z "},"ņ":{"ha":943,"x_min":104,"x_max":846,"o":"m 104 0 m 542 799 q 770 720 694 799 q 846 469 846 642 l 846 0 l 632 0 l 632 469 q 601 573 632 539 q 496 607 571 607 q 318 533 407 607 l 318 0 l 104 0 l 104 782 l 318 782 l 318 714 q 542 799 421 799 m 378 -111 l 600 -111 l 536 -342 l 333 -342 l 378 -111 z "},"ŋ":{"ha":940,"x_min":104,"x_max":846,"o":"m 542 799 q 770 720 694 799 q 846 469 846 642 l 846 -136 q 790 -294 846 -242 q 614 -347 733 -347 q 479 -331 560 -347 l 479 -147 q 558 -157 518 -157 q 616 -136 600 -157 q 632 -61 632 -115 l 632 469 q 601 573 632 539 q 496 607 571 607 q 318 533 407 607 l 318 0 l 104 0 l 104 782 l 318 782 l 318 714 q 542 799 421 799 z "},"ñ":{"ha":943,"x_min":104,"x_max":846,"o":"m 104 0 m 542 799 q 770 720 694 799 q 846 469 846 642 l 846 0 l 632 0 l 632 469 q 601 573 632 539 q 496 607 571 607 q 318 533 407 607 l 318 0 l 104 0 l 104 782 l 318 782 l 318 714 q 542 799 421 799 m 229 917 q 269 1068 231 1026 q 372 1110 307 1110 q 453 1094 407 1110 l 504 1075 q 556 1063 543 1063 q 585 1110 585 1063 l 736 1110 q 697 958 735 1000 q 593 917 658 917 q 513 932 550 917 l 461 950 q 410 963 424 963 q 381 917 381 963 l 229 917 z "},"o":{"ha":931,"x_min":56,"x_max":875,"o":"m 467 -24 q 242 31 335 -24 q 102 178 149 85 q 56 390 56 272 q 102 601 56 507 q 242 749 149 694 q 467 804 335 804 q 690 749 599 804 q 828 601 782 694 q 875 390 875 507 q 828 178 875 272 q 690 31 782 85 q 467 -24 599 -24 m 467 160 q 604 220 557 160 q 651 390 651 281 q 604 559 651 499 q 467 619 557 619 q 327 559 375 619 q 279 390 279 499 q 327 221 279 282 q 467 160 375 160 z "},"ó":{"ha":931,"x_min":56,"x_max":875,"o":"m 56 0 m 467 -24 q 242 31 335 -24 q 102 178 149 85 q 56 390 56 272 q 102 601 56 507 q 242 749 149 694 q 467 804 335 804 q 690 749 599 804 q 828 601 782 694 q 875 390 875 507 q 828 178 875 272 q 690 31 782 85 q 467 -24 599 -24 m 467 160 q 604 220 557 160 q 651 390 651 281 q 604 559 651 499 q 467 619 557 619 q 327 559 375 619 q 279 390 279 499 q 327 221 279 282 q 467 160 375 160 m 493 1124 l 738 1124 l 569 911 l 354 911 l 493 1124 z "},"ô":{"ha":931,"x_min":56,"x_max":875,"o":"m 56 0 m 467 -24 q 242 31 335 -24 q 102 178 149 85 q 56 390 56 272 q 102 601 56 507 q 242 749 149 694 q 467 804 335 804 q 690 749 599 804 q 828 601 782 694 q 875 390 875 507 q 828 178 875 272 q 690 31 782 85 q 467 -24 599 -24 m 467 160 q 604 220 557 160 q 651 390 651 281 q 604 559 651 499 q 467 619 557 619 q 327 559 375 619 q 279 390 279 499 q 327 221 279 282 q 467 160 375 160 m 531 911 l 465 1046 l 399 911 l 189 911 l 322 1124 l 607 1124 l 740 911 l 531 911 z "},"ö":{"ha":931,"x_min":56,"x_max":875,"o":"m 56 0 m 467 -24 q 242 31 335 -24 q 102 178 149 85 q 56 390 56 272 q 102 601 56 507 q 242 749 149 694 q 467 804 335 804 q 690 749 599 804 q 828 601 782 694 q 875 390 875 507 q 828 178 875 272 q 690 31 782 85 q 467 -24 599 -24 m 467 160 q 604 220 557 160 q 651 390 651 281 q 604 559 651 499 q 467 619 557 619 q 327 559 375 619 q 279 390 279 499 q 327 221 279 282 q 467 160 375 160 m 522 1117 l 714 1117 l 714 917 l 522 917 l 522 1117 m 222 1117 l 414 1117 l 414 917 l 222 917 l 222 1117 z "},"ò":{"ha":931,"x_min":56,"x_max":875,"o":"m 56 0 m 467 -24 q 242 31 335 -24 q 102 178 149 85 q 56 390 56 272 q 102 601 56 507 q 242 749 149 694 q 467 804 335 804 q 690 749 599 804 q 828 601 782 694 q 875 390 875 507 q 828 178 875 272 q 690 31 782 85 q 467 -24 599 -24 m 467 160 q 604 220 557 160 q 651 390 651 281 q 604 559 651 499 q 467 619 557 619 q 327 559 375 619 q 279 390 279 499 q 327 221 279 282 q 467 160 375 160 m 194 1124 l 439 1124 l 578 911 l 363 911 l 194 1124 z "},"ő":{"ha":931,"x_min":56,"x_max":878,"o":"m 56 0 m 467 -24 q 242 31 335 -24 q 102 178 149 85 q 56 390 56 272 q 102 601 56 507 q 242 749 149 694 q 467 804 335 804 q 690 749 599 804 q 828 601 782 694 q 875 390 875 507 q 828 178 875 272 q 690 31 782 85 q 467 -24 599 -24 m 467 160 q 604 220 557 160 q 651 390 651 281 q 604 559 651 499 q 467 619 557 619 q 327 559 375 619 q 279 390 279 499 q 327 221 279 282 q 467 160 375 160 m 656 1124 l 878 1124 l 710 911 l 517 911 l 656 1124 m 356 1124 l 578 1124 l 410 911 l 217 911 l 356 1124 z "},"ō":{"ha":931,"x_min":56,"x_max":875,"o":"m 56 0 m 467 -24 q 242 31 335 -24 q 102 178 149 85 q 56 390 56 272 q 102 601 56 507 q 242 749 149 694 q 467 804 335 804 q 690 749 599 804 q 828 601 782 694 q 875 390 875 507 q 828 178 875 272 q 690 31 782 85 q 467 -24 599 -24 m 467 160 q 604 220 557 160 q 651 390 651 281 q 604 559 651 499 q 467 619 557 619 q 327 559 375 619 q 279 390 279 499 q 327 221 279 282 q 467 160 375 160 m 250 1086 l 679 1086 l 679 950 l 250 950 l 250 1086 z "},"ø":{"ha":931,"x_min":46,"x_max":886,"o":"m 818 621 q 875 390 875 519 q 828 178 875 272 q 690 31 782 85 q 467 -24 599 -24 q 224 42 324 -24 l 165 -17 l 46 96 l 113 161 q 56 390 56 260 q 102 601 56 507 q 242 749 149 694 q 467 804 335 804 q 707 739 606 804 l 769 799 l 886 686 l 818 621 m 279 390 q 283 326 279 358 l 561 597 q 467 619 522 619 q 327 559 375 619 q 279 390 279 499 m 651 390 q 647 454 651 425 l 369 183 q 467 160 413 160 q 604 220 557 160 q 651 390 651 281 z "},"õ":{"ha":931,"x_min":56,"x_max":875,"o":"m 56 0 m 467 -24 q 242 31 335 -24 q 102 178 149 85 q 56 390 56 272 q 102 601 56 507 q 242 749 149 694 q 467 804 335 804 q 690 749 599 804 q 828 601 782 694 q 875 390 875 507 q 828 178 875 272 q 690 31 782 85 q 467 -24 599 -24 m 467 160 q 604 220 557 160 q 651 390 651 281 q 604 559 651 499 q 467 619 557 619 q 327 559 375 619 q 279 390 279 499 q 327 221 279 282 q 467 160 375 160 m 211 917 q 251 1068 213 1026 q 354 1110 289 1110 q 435 1094 389 1110 l 486 1075 q 538 1063 525 1063 q 567 1110 567 1063 l 718 1110 q 678 958 717 1000 q 575 917 640 917 q 494 932 532 917 l 443 950 q 392 963 406 963 q 363 917 363 963 l 211 917 z "},"œ":{"ha":1435,"x_min":56,"x_max":1388,"o":"m 879 332 q 1099 156 904 156 q 1202 169 1151 156 q 1317 214 1253 183 l 1374 47 q 1233 -8 1303 8 q 1071 -24 1163 -24 q 890 14 968 -24 q 763 121 811 51 q 635 15 713 53 q 456 -24 558 -24 q 236 31 326 -24 q 101 178 146 85 q 56 390 56 272 q 101 601 56 507 q 236 749 146 694 q 456 804 326 804 q 635 767 558 804 q 761 661 711 729 q 881 767 808 731 q 1040 804 954 804 q 1295 706 1203 804 q 1388 417 1388 607 l 1388 332 l 879 332 m 1029 625 q 934 594 971 625 q 883 494 897 564 l 1164 494 q 1124 594 1157 563 q 1029 625 1090 625 m 467 160 q 604 220 557 160 q 651 390 651 281 q 604 559 651 499 q 467 619 557 619 q 327 559 375 619 q 279 390 279 499 q 327 221 279 282 q 467 160 375 160 z "},"p":{"ha":944,"x_min":104,"x_max":888,"o":"m 532 804 q 717 758 636 804 q 842 618 797 711 q 888 390 888 525 q 842 163 888 256 q 717 23 797 69 q 532 -24 636 -24 q 318 56 422 -24 l 318 -325 l 104 -325 l 104 782 l 318 782 l 318 724 q 532 804 421 804 m 488 167 q 620 224 575 167 q 665 390 665 281 q 620 556 665 499 q 488 613 575 613 q 318 550 404 613 l 318 231 q 488 167 406 167 z "},"þ":{"ha":865,"x_min":104,"x_max":888,"o":"m 532 804 q 717 758 636 804 q 842 618 797 711 q 888 390 888 525 q 842 163 888 256 q 717 23 797 69 q 532 -24 636 -24 q 318 56 422 -24 l 318 -325 l 104 -325 l 104 1175 l 318 1175 l 318 724 q 532 804 421 804 m 488 167 q 620 224 575 167 q 665 390 665 281 q 620 556 665 499 q 488 613 575 613 q 318 550 404 613 l 318 231 q 488 167 406 167 z "},"q":{"ha":944,"x_min":56,"x_max":840,"o":"m 840 782 l 840 -325 l 626 -325 l 626 56 q 413 -24 522 -24 q 228 23 308 -24 q 101 163 147 69 q 56 390 56 256 q 101 618 56 525 q 228 758 147 711 q 413 804 308 804 q 626 724 524 804 l 626 782 l 840 782 m 456 167 q 626 231 539 167 l 626 550 q 456 613 540 613 q 324 556 368 613 q 279 390 279 499 q 324 224 279 281 q 456 167 368 167 z "},"r":{"ha":610,"x_min":104,"x_max":568,"o":"m 568 799 l 568 607 l 536 607 q 318 526 426 607 l 318 0 l 104 0 l 104 782 l 318 782 l 318 707 q 536 799 425 799 l 568 799 z "},"ŕ":{"ha":610,"x_min":104,"x_max":597,"o":"m 104 0 m 568 799 l 568 607 l 536 607 q 318 526 426 607 l 318 0 l 104 0 l 104 782 l 318 782 l 318 707 q 536 799 425 799 l 568 799 m 353 1124 l 597 1124 l 429 911 l 214 911 l 353 1124 z "},"ř":{"ha":610,"x_min":49,"x_max":600,"o":"m 49 0 m 568 799 l 568 607 l 536 607 q 318 526 426 607 l 318 0 l 104 0 l 104 782 l 318 782 l 318 707 q 536 799 425 799 l 568 799 m 600 1124 l 467 911 l 182 911 l 49 1124 l 258 1124 l 325 989 l 390 1124 l 600 1124 z "},"ŗ":{"ha":610,"x_min":64,"x_max":568,"o":"m 64 0 m 568 799 l 568 607 l 536 607 q 318 526 426 607 l 318 0 l 104 0 l 104 782 l 318 782 l 318 707 q 536 799 425 799 l 568 799 m 108 -111 l 331 -111 l 267 -342 l 64 -342 l 108 -111 z "},"s":{"ha":767,"x_min":65,"x_max":707,"o":"m 386 -24 q 217 -8 290 -24 q 65 44 144 7 l 65 236 q 220 174 142 193 q 386 156 299 156 q 490 225 490 156 q 474 268 490 253 q 421 292 457 283 l 297 318 q 131 397 185 342 q 76 551 76 453 q 393 804 76 804 q 671 754 524 804 l 671 569 q 545 610 617 594 q 403 625 474 625 q 317 610 342 625 q 293 565 293 594 q 308 528 293 540 q 357 508 324 517 l 481 482 q 653 403 599 458 q 707 236 707 347 q 620 42 707 107 q 386 -24 533 -24 z "},"ś":{"ha":767,"x_min":65,"x_max":707,"o":"m 65 0 m 386 -24 q 217 -8 290 -24 q 65 44 144 7 l 65 236 q 220 174 142 193 q 386 156 299 156 q 490 225 490 156 q 474 268 490 253 q 421 292 457 283 l 297 318 q 131 397 185 342 q 76 551 76 453 q 393 804 76 804 q 671 754 524 804 l 671 569 q 545 610 617 594 q 403 625 474 625 q 317 610 342 625 q 293 565 293 594 q 308 528 293 540 q 357 508 324 517 l 481 482 q 653 403 599 458 q 707 236 707 347 q 620 42 707 107 q 386 -24 533 -24 m 424 1124 l 668 1124 l 500 911 l 285 911 l 424 1124 z "},"š":{"ha":767,"x_min":65,"x_max":707,"o":"m 65 0 m 386 -24 q 217 -8 290 -24 q 65 44 144 7 l 65 236 q 220 174 142 193 q 386 156 299 156 q 490 225 490 156 q 474 268 490 253 q 421 292 457 283 l 297 318 q 131 397 185 342 q 76 551 76 453 q 393 804 76 804 q 671 754 524 804 l 671 569 q 545 610 617 594 q 403 625 474 625 q 317 610 342 625 q 293 565 293 594 q 308 528 293 540 q 357 508 324 517 l 481 482 q 653 403 599 458 q 707 236 707 347 q 620 42 707 107 q 386 -24 533 -24 m 669 1124 l 536 911 l 251 911 l 118 1124 l 328 1124 l 394 989 l 460 1124 l 669 1124 z "},"ş":{"ha":767,"x_min":65,"x_max":707,"o":"m 707 236 q 637 56 707 121 q 446 -21 567 -8 l 429 -68 l 431 -68 q 542 -106 503 -68 q 581 -208 581 -144 q 532 -323 581 -281 q 389 -365 483 -365 q 309 -360 344 -365 q 238 -337 274 -354 l 238 -217 q 365 -246 301 -246 q 429 -212 429 -246 q 414 -189 429 -197 q 361 -181 399 -181 q 256 -197 307 -181 l 306 -21 q 185 0 242 -15 q 65 44 128 15 l 65 236 q 220 174 142 193 q 386 156 299 156 q 490 225 490 156 q 474 268 490 253 q 421 292 457 283 l 297 318 q 131 397 185 342 q 76 551 76 453 q 393 804 76 804 q 671 754 524 804 l 671 569 q 545 610 617 594 q 403 625 474 625 q 317 610 342 625 q 293 565 293 594 q 308 528 293 540 q 357 508 324 517 l 481 482 q 653 403 599 458 q 707 236 707 347 z "},"ș":{"ha":767,"x_min":65,"x_max":707,"o":"m 65 0 m 386 -24 q 217 -8 290 -24 q 65 44 144 7 l 65 236 q 220 174 142 193 q 386 156 299 156 q 490 225 490 156 q 474 268 490 253 q 421 292 457 283 l 297 318 q 131 397 185 342 q 76 551 76 453 q 393 804 76 804 q 671 754 524 804 l 671 569 q 545 610 617 594 q 403 625 474 625 q 317 610 342 625 q 293 565 293 594 q 308 528 293 540 q 357 508 324 517 l 481 482 q 653 403 599 458 q 707 236 707 347 q 620 42 707 107 q 386 -24 533 -24 m 278 -111 l 500 -111 l 436 -342 l 233 -342 l 278 -111 z "},"ß":{"ha":922,"x_min":104,"x_max":889,"o":"m 601 -24 q 510 -17 550 -24 q 424 8 469 -11 l 424 192 q 567 156 500 156 q 644 174 618 156 q 672 235 671 193 q 650 285 672 267 q 578 329 628 303 q 491 381 525 357 q 432 452 457 406 q 407 569 407 499 q 426 674 407 632 q 481 763 444 717 q 524 833 510 806 q 538 900 538 861 q 513 978 538 954 q 439 1003 489 1003 q 347 969 376 1003 q 318 854 318 936 l 318 0 l 104 0 l 104 854 q 190 1111 104 1029 q 446 1193 275 1193 q 670 1120 589 1193 q 751 915 751 1047 q 729 783 751 836 q 668 674 707 731 q 633 617 643 636 q 624 574 624 597 q 646 527 624 546 q 715 482 668 508 q 803 425 769 451 q 863 353 838 399 q 889 240 889 308 q 809 43 886 110 q 601 -24 732 -24 z "},"t":{"ha":588,"x_min":44,"x_max":542,"o":"m 364 568 l 364 260 q 380 192 364 211 q 438 172 396 172 q 522 183 482 172 l 522 0 q 382 -18 442 -18 q 206 33 263 -18 q 150 186 150 85 l 150 568 l 44 568 l 44 758 l 150 758 l 150 1022 l 364 1022 l 364 758 l 542 758 l 542 568 l 364 568 z "},"ŧ":{"ha":588,"x_min":44,"x_max":543,"o":"m 364 293 l 364 260 q 380 192 364 211 q 438 172 396 172 q 522 183 482 172 l 522 0 q 382 -18 442 -18 q 206 33 263 -18 q 150 186 150 85 l 150 293 l 46 293 l 46 476 l 150 476 l 150 568 l 44 568 l 44 758 l 150 758 l 150 1022 l 364 1022 l 364 758 l 542 758 l 542 568 l 364 568 l 364 476 l 543 476 l 543 293 l 364 293 z "},"ť":{"ha":588,"x_min":44,"x_max":678,"o":"m 44 0 m 364 568 l 364 260 q 380 192 364 211 q 438 172 396 172 q 522 183 482 172 l 522 0 q 382 -18 442 -18 q 206 33 263 -18 q 150 186 150 85 l 150 568 l 44 568 l 44 758 l 150 758 l 150 1022 l 364 1022 l 364 758 l 542 758 l 542 568 l 364 568 m 464 1122 l 678 1122 l 576 842 l 394 842 l 464 1122 z "},"ţ":{"ha":588,"x_min":44,"x_max":544,"o":"m 394 -68 q 506 -106 467 -68 q 544 -208 544 -144 q 496 -323 544 -281 q 351 -365 447 -365 q 272 -360 307 -365 q 201 -337 238 -354 l 201 -217 q 329 -246 265 -246 q 393 -212 393 -246 q 378 -189 393 -197 q 325 -181 363 -181 q 219 -197 272 -181 l 274 -4 q 150 186 150 36 l 150 568 l 44 568 l 44 758 l 150 758 l 150 1022 l 364 1022 l 364 758 l 542 758 l 542 568 l 364 568 l 364 260 q 380 192 364 211 q 438 172 396 172 q 522 183 482 172 l 522 0 q 410 -17 449 -15 l 392 -68 l 394 -68 z "},"ț":{"ha":588,"x_min":44,"x_max":542,"o":"m 44 0 m 364 568 l 364 260 q 380 192 364 211 q 438 172 396 172 q 522 183 482 172 l 522 0 q 382 -18 442 -18 q 206 33 263 -18 q 150 186 150 85 l 150 568 l 44 568 l 44 758 l 150 758 l 150 1022 l 364 1022 l 364 758 l 542 758 l 542 568 l 364 568 m 242 -111 l 464 -111 l 400 -342 l 197 -342 l 242 -111 z "},"u":{"ha":943,"x_min":97,"x_max":839,"o":"m 839 782 l 839 0 l 625 0 l 625 67 q 401 -17 521 -17 q 173 61 249 -17 q 97 311 97 139 l 97 782 l 311 782 l 311 311 q 342 208 311 242 q 447 174 374 174 q 625 249 535 174 l 625 782 l 839 782 z "},"ú":{"ha":943,"x_min":97,"x_max":839,"o":"m 97 0 m 839 782 l 839 0 l 625 0 l 625 67 q 401 -17 521 -17 q 173 61 249 -17 q 97 311 97 139 l 97 782 l 311 782 l 311 311 q 342 208 311 242 q 447 174 374 174 q 625 249 535 174 l 625 782 l 839 782 m 499 1124 l 743 1124 l 575 911 l 360 911 l 499 1124 z "},"û":{"ha":943,"x_min":97,"x_max":839,"o":"m 97 0 m 839 782 l 839 0 l 625 0 l 625 67 q 401 -17 521 -17 q 173 61 249 -17 q 97 311 97 139 l 97 782 l 311 782 l 311 311 q 342 208 311 242 q 447 174 374 174 q 625 249 535 174 l 625 782 l 839 782 m 536 911 l 471 1046 l 404 911 l 194 911 l 328 1124 l 613 1124 l 746 911 l 536 911 z "},"ü":{"ha":943,"x_min":97,"x_max":839,"o":"m 97 0 m 839 782 l 839 0 l 625 0 l 625 67 q 401 -17 521 -17 q 173 61 249 -17 q 97 311 97 139 l 97 782 l 311 782 l 311 311 q 342 208 311 242 q 447 174 374 174 q 625 249 535 174 l 625 782 l 839 782 m 526 1117 l 718 1117 l 718 917 l 526 917 l 526 1117 m 226 1117 l 418 1117 l 418 917 l 226 917 l 226 1117 z "},"ù":{"ha":943,"x_min":97,"x_max":839,"o":"m 97 0 m 839 782 l 839 0 l 625 0 l 625 67 q 401 -17 521 -17 q 173 61 249 -17 q 97 311 97 139 l 97 782 l 311 782 l 311 311 q 342 208 311 242 q 447 174 374 174 q 625 249 535 174 l 625 782 l 839 782 m 200 1124 l 444 1124 l 583 911 l 368 911 l 200 1124 z "},"ű":{"ha":943,"x_min":97,"x_max":883,"o":"m 97 0 m 839 782 l 839 0 l 625 0 l 625 67 q 401 -17 521 -17 q 173 61 249 -17 q 97 311 97 139 l 97 782 l 311 782 l 311 311 q 342 208 311 242 q 447 174 374 174 q 625 249 535 174 l 625 782 l 839 782 m 661 1124 l 883 1124 l 715 911 l 522 911 l 661 1124 m 361 1124 l 583 1124 l 415 911 l 222 911 l 361 1124 z "},"ū":{"ha":943,"x_min":97,"x_max":839,"o":"m 97 0 m 839 782 l 839 0 l 625 0 l 625 67 q 401 -17 521 -17 q 173 61 249 -17 q 97 311 97 139 l 97 782 l 311 782 l 311 311 q 342 208 311 242 q 447 174 374 174 q 625 249 535 174 l 625 782 l 839 782 m 256 1086 l 685 1086 l 685 950 l 256 950 l 256 1086 z "},"ų":{"ha":943,"x_min":97,"x_max":839,"o":"m 839 782 l 839 0 q 707 -183 707 -103 q 765 -233 707 -233 q 839 -217 801 -233 l 839 -337 q 732 -356 786 -356 q 592 -319 639 -356 q 544 -218 544 -283 q 575 -106 544 -161 q 669 0 606 -50 l 625 0 l 625 67 q 401 -17 521 -17 q 173 61 249 -17 q 97 311 97 139 l 97 782 l 311 782 l 311 311 q 342 208 311 242 q 447 174 374 174 q 625 249 535 174 l 625 782 l 839 782 z "},"ů":{"ha":943,"x_min":97,"x_max":839,"o":"m 97 0 m 839 782 l 839 0 l 625 0 l 625 67 q 401 -17 521 -17 q 173 61 249 -17 q 97 311 97 139 l 97 782 l 311 782 l 311 311 q 342 208 311 242 q 447 174 374 174 q 625 249 535 174 l 625 782 l 839 782 m 471 889 q 348 924 389 889 q 307 1017 307 960 q 347 1109 307 1075 q 471 1143 386 1143 q 593 1108 553 1143 q 633 1017 633 1074 q 593 924 633 958 q 471 889 553 889 m 471 975 q 506 986 493 975 q 518 1017 518 997 q 471 1057 518 1057 q 422 1017 422 1057 q 471 975 422 975 z "},"v":{"ha":858,"x_min":28,"x_max":831,"o":"m 831 782 l 568 -12 l 293 -12 l 28 782 l 247 782 l 431 186 l 611 782 l 831 782 z "},"w":{"ha":1301,"x_min":39,"x_max":1263,"o":"m 1263 782 l 1054 -12 l 803 -12 l 651 481 l 500 -12 l 249 -12 l 39 782 l 258 782 l 379 254 l 524 782 l 778 782 l 924 254 l 1043 782 l 1263 782 z "},"ẃ":{"ha":1301,"x_min":39,"x_max":1263,"o":"m 39 0 m 1263 782 l 1054 -12 l 803 -12 l 651 481 l 500 -12 l 249 -12 l 39 782 l 258 782 l 379 254 l 524 782 l 778 782 l 924 254 l 1043 782 l 1263 782 m 679 1124 l 924 1124 l 756 911 l 540 911 l 679 1124 z "},"ŵ":{"ha":1301,"x_min":39,"x_max":1263,"o":"m 39 0 m 1263 782 l 1054 -12 l 803 -12 l 651 481 l 500 -12 l 249 -12 l 39 782 l 258 782 l 379 254 l 524 782 l 778 782 l 924 254 l 1043 782 l 1263 782 m 715 911 l 650 1046 l 583 911 l 374 911 l 507 1124 l 792 1124 l 925 911 l 715 911 z "},"ẅ":{"ha":1301,"x_min":39,"x_max":1263,"o":"m 39 0 m 1263 782 l 1054 -12 l 803 -12 l 651 481 l 500 -12 l 249 -12 l 39 782 l 258 782 l 379 254 l 524 782 l 778 782 l 924 254 l 1043 782 l 1263 782 m 707 1117 l 899 1117 l 899 917 l 707 917 l 707 1117 m 407 1117 l 599 1117 l 599 917 l 407 917 l 407 1117 z "},"ẁ":{"ha":1301,"x_min":39,"x_max":1263,"o":"m 39 0 m 1263 782 l 1054 -12 l 803 -12 l 651 481 l 500 -12 l 249 -12 l 39 782 l 258 782 l 379 254 l 524 782 l 778 782 l 924 254 l 1043 782 l 1263 782 m 381 1124 l 625 1124 l 764 911 l 549 911 l 381 1124 z "},"x":{"ha":854,"x_min":33,"x_max":821,"o":"m 571 0 l 424 236 l 283 0 l 33 0 l 294 408 l 47 782 l 297 782 l 428 568 l 561 782 l 808 782 l 554 397 l 821 0 l 571 0 z "},"y":{"ha":813,"x_min":28,"x_max":785,"o":"m 785 782 l 465 -124 q 396 -260 435 -211 q 306 -328 357 -308 q 178 -349 254 -349 q 57 -331 111 -349 l 57 -147 q 142 -158 99 -158 q 228 -136 196 -158 q 283 -50 261 -114 l 300 -1 l 28 782 l 247 782 l 404 294 l 576 782 l 785 782 z "},"ý":{"ha":813,"x_min":28,"x_max":785,"o":"m 28 0 m 785 782 l 465 -124 q 396 -260 435 -211 q 306 -328 357 -308 q 178 -349 254 -349 q 57 -331 111 -349 l 57 -147 q 142 -158 99 -158 q 228 -136 196 -158 q 283 -50 261 -114 l 300 -1 l 28 782 l 247 782 l 404 294 l 576 782 l 785 782 m 435 1124 l 679 1124 l 511 911 l 296 911 l 435 1124 z "},"ŷ":{"ha":813,"x_min":28,"x_max":785,"o":"m 28 0 m 785 782 l 465 -124 q 396 -260 435 -211 q 306 -328 357 -308 q 178 -349 254 -349 q 57 -331 111 -349 l 57 -147 q 142 -158 99 -158 q 228 -136 196 -158 q 283 -50 261 -114 l 300 -1 l 28 782 l 247 782 l 404 294 l 576 782 l 785 782 m 472 911 l 407 1046 l 340 911 l 131 911 l 264 1124 l 549 1124 l 682 911 l 472 911 z "},"ÿ":{"ha":813,"x_min":28,"x_max":785,"o":"m 28 0 m 785 782 l 465 -124 q 396 -260 435 -211 q 306 -328 357 -308 q 178 -349 254 -349 q 57 -331 111 -349 l 57 -147 q 142 -158 99 -158 q 228 -136 196 -158 q 283 -50 261 -114 l 300 -1 l 28 782 l 247 782 l 404 294 l 576 782 l 785 782 m 463 1117 l 654 1117 l 654 917 l 463 917 l 463 1117 m 163 1117 l 354 1117 l 354 917 l 163 917 l 163 1117 z "},"ỳ":{"ha":813,"x_min":28,"x_max":785,"o":"m 28 0 m 785 782 l 465 -124 q 396 -260 435 -211 q 306 -328 357 -308 q 178 -349 254 -349 q 57 -331 111 -349 l 57 -147 q 142 -158 99 -158 q 228 -136 196 -158 q 283 -50 261 -114 l 300 -1 l 28 782 l 247 782 l 404 294 l 576 782 l 785 782 m 136 1124 l 381 1124 l 519 911 l 304 911 l 136 1124 z "},"z":{"ha":785,"x_min":90,"x_max":725,"o":"m 725 188 l 725 0 l 90 0 l 90 188 l 451 593 l 115 593 l 115 782 l 694 782 l 694 593 l 335 188 l 725 188 z "},"ź":{"ha":785,"x_min":90,"x_max":725,"o":"m 90 0 m 725 188 l 725 0 l 90 0 l 90 188 l 451 593 l 115 593 l 115 782 l 694 782 l 694 593 l 335 188 l 725 188 m 425 1124 l 669 1124 l 501 911 l 286 911 l 425 1124 z "},"ž":{"ha":785,"x_min":90,"x_max":725,"o":"m 90 0 m 725 188 l 725 0 l 90 0 l 90 188 l 451 593 l 115 593 l 115 782 l 694 782 l 694 593 l 335 188 l 725 188 m 672 1124 l 539 911 l 254 911 l 121 1124 l 331 1124 l 397 989 l 463 1124 l 672 1124 z "},"ż":{"ha":785,"x_min":90,"x_max":725,"o":"m 90 0 m 725 188 l 725 0 l 90 0 l 90 188 l 451 593 l 115 593 l 115 782 l 694 782 l 694 593 l 335 188 l 725 188 m 293 1117 l 507 1117 l 507 917 l 293 917 l 293 1117 z "},"ﬁ":{"ha":963,"x_min":44,"x_max":858,"o":"m 44 0 m 426 1003 q 369 984 385 1003 q 353 917 353 965 l 353 782 l 506 782 l 506 590 l 353 590 l 353 0 l 139 0 l 139 590 l 44 590 l 44 782 l 139 782 l 139 990 q 371 1193 139 1193 q 506 1176 425 1193 l 506 992 q 426 1003 469 1003 m 644 1121 l 858 1121 l 858 911 l 644 911 l 644 1121 m 644 782 l 858 782 l 858 0 l 644 0 l 644 782 z "},"ﬂ":{"ha":1046,"x_min":44,"x_max":1011,"o":"m 44 0 m 426 1003 q 369 984 385 1003 q 353 917 353 965 l 353 782 l 506 782 l 506 590 l 353 590 l 353 0 l 139 0 l 139 590 l 44 590 l 44 782 l 139 782 l 139 990 q 371 1193 139 1193 q 506 1176 425 1193 l 506 992 q 426 1003 469 1003 m 876 -18 q 644 185 644 -18 l 644 1175 l 858 1175 l 858 260 q 874 191 858 210 q 932 172 890 172 q 1011 183 975 172 l 1011 -1 q 876 -18 931 -18 z "},"ª":{"ha":551,"x_min":15,"x_max":507,"o":"m 268 971 q 419 938 367 971 q 490 847 472 904 q 507 706 507 790 l 507 394 l 354 394 l 354 432 q 210 382 293 382 q 70 431 125 382 q 15 567 15 481 q 69 713 15 661 q 218 764 124 764 q 353 736 293 764 q 328 802 350 781 q 253 824 307 824 l 143 824 l 143 971 l 268 971 m 253 513 q 354 544 301 513 l 354 621 q 260 635 304 635 q 183 571 183 635 q 203 526 183 540 q 253 513 224 513 z "},"º":{"ha":718,"x_min":58,"x_max":660,"o":"m 360 382 q 197 422 265 382 q 94 532 129 463 q 58 688 58 601 q 94 841 58 772 q 197 950 129 910 q 360 990 265 990 q 521 950 453 990 q 624 841 589 910 q 660 688 660 772 q 624 532 660 601 q 521 422 589 463 q 360 382 453 382 m 360 526 q 465 572 429 526 q 501 688 501 618 q 465 801 501 757 q 360 846 429 846 q 255 801 293 846 q 217 688 217 756 q 254 572 217 618 q 360 526 292 526 z "},"ॲ":{"ha":1035,"x_min":21,"x_max":1128,"o":"m 21 0 m 1049 926 l 1049 774 l 917 774 l 917 0 l 726 0 l 726 281 l 494 281 q 374 108 483 161 q 101 56 264 56 l 21 56 l 21 210 l 101 210 q 306 331 306 210 q 269 399 306 376 q 156 422 233 422 l 85 422 l 85 576 l 157 576 q 269 603 233 576 q 306 679 306 631 q 265 751 306 729 q 143 774 224 774 l 64 774 l 64 926 l 143 926 q 410 876 324 926 q 496 707 496 825 q 465 587 496 636 q 369 506 435 538 q 463 435 429 486 l 726 435 l 726 774 l 579 774 l 579 926 l 1049 926 m 821 1032 q 587 1094 660 1032 q 514 1285 514 1157 l 514 1311 l 692 1311 l 692 1285 q 722 1208 692 1231 q 821 1186 753 1186 q 919 1208 889 1186 q 950 1285 950 1231 l 950 1311 l 1128 1311 l 1128 1285 q 1056 1093 1128 1154 q 821 1032 983 1032 z "},"ऄ":{"ha":1035,"x_min":21,"x_max":1049,"o":"m 1049 926 l 1049 774 l 917 774 l 917 0 l 726 0 l 726 281 l 494 281 q 374 108 483 161 q 101 56 264 56 l 21 56 l 21 210 l 101 210 q 306 331 306 210 q 269 399 306 376 q 156 422 233 422 l 85 422 l 85 576 l 157 576 q 269 603 233 576 q 306 679 306 631 q 265 751 306 729 q 143 774 224 774 l 64 774 l 64 926 l 143 926 q 410 876 324 926 q 496 707 496 825 q 465 587 496 636 q 369 506 435 538 q 463 435 429 486 l 726 435 l 726 774 l 579 774 l 579 926 l 726 926 l 726 982 q 700 1075 726 1049 q 601 1101 674 1101 l 369 1101 q 172 1131 242 1101 q 74 1222 101 1161 q 46 1386 46 1283 l 46 1429 l 236 1429 l 236 1386 q 247 1308 236 1335 q 285 1268 257 1281 q 369 1256 314 1256 l 601 1256 q 805 1227 738 1256 q 894 1142 872 1199 q 917 982 917 1085 l 917 926 l 1049 926 z "},"अ":{"ha":1035,"x_min":21,"x_max":1049,"o":"m 1049 926 l 1049 774 l 917 774 l 917 0 l 726 0 l 726 281 l 494 281 q 374 108 483 161 q 101 56 264 56 l 21 56 l 21 210 l 101 210 q 306 331 306 210 q 269 399 306 376 q 156 422 233 422 l 85 422 l 85 576 l 157 576 q 269 603 233 576 q 306 679 306 631 q 265 751 306 729 q 143 774 224 774 l 64 774 l 64 926 l 143 926 q 410 876 324 926 q 496 707 496 825 q 465 587 496 636 q 369 506 435 538 q 463 435 429 486 l 726 435 l 726 774 l 579 774 l 579 926 l 1049 926 z "},"आ":{"ha":1463,"x_min":21,"x_max":1476,"o":"m 1476 774 l 1344 774 l 1344 0 l 1153 0 l 1153 774 l 1049 774 l 917 774 l 917 0 l 726 0 l 726 281 l 494 281 q 374 108 483 161 q 101 56 264 56 l 21 56 l 21 210 l 101 210 q 306 331 306 210 q 269 399 306 376 q 156 422 233 422 l 85 422 l 85 576 l 157 576 q 269 603 233 576 q 306 679 306 631 q 265 751 306 729 q 143 774 224 774 l 64 774 l 64 926 l 143 926 q 410 876 324 926 q 496 707 496 825 q 465 587 496 636 q 369 506 435 538 q 463 435 429 486 l 726 435 l 726 774 l 579 774 l 579 926 l 1049 926 l 1476 926 l 1476 774 z "},"इ":{"ha":756,"x_min":-14,"x_max":769,"o":"m 325 540 q 274 529 290 540 q 257 492 257 518 q 264 462 257 478 q 282 438 271 446 l 422 438 q 635 385 564 438 q 707 218 707 332 q 635 34 707 94 q 428 -26 564 -26 l 417 -26 q 246 4 326 -26 l 246 -100 l 78 -100 l 78 242 l 246 242 l 246 157 q 401 128 313 128 l 417 128 q 517 207 517 128 q 422 283 517 283 l 179 283 q 103 378 139 315 q 67 508 67 440 q 129 651 67 610 q 325 693 192 693 l 419 693 l 419 774 l -14 774 l -14 926 l 769 926 l 769 774 l 610 774 l 610 540 l 325 540 z "},"ई":{"ha":756,"x_min":-14,"x_max":769,"o":"m 325 540 q 274 529 290 540 q 257 492 257 518 q 264 462 257 478 q 282 438 271 446 l 422 438 q 635 385 564 438 q 707 218 707 332 q 635 34 707 94 q 428 -26 564 -26 l 417 -26 q 246 4 326 -26 l 246 -100 l 78 -100 l 78 242 l 246 242 l 246 157 q 401 128 313 128 l 417 128 q 517 207 517 128 q 422 283 517 283 l 179 283 q 103 378 139 315 q 67 508 67 440 q 129 651 67 610 q 325 693 192 693 l 419 693 l 419 774 l -14 774 l -14 926 l 432 926 q 392 1041 407 981 q 376 1157 376 1101 q 444 1319 376 1264 q 617 1374 511 1374 q 739 1353 682 1374 l 739 1194 q 647 1219 686 1219 q 589 1196 611 1219 q 567 1125 567 1172 q 580 1036 567 1079 q 622 926 593 993 l 769 926 l 769 774 l 610 774 l 610 540 l 325 540 z "},"उ":{"ha":822,"x_min":-14,"x_max":838,"o":"m 838 774 l 678 774 q 719 650 719 729 q 690 542 719 586 q 594 475 661 497 q 690 396 660 453 q 719 263 719 339 q 378 0 719 0 q 36 275 36 0 l 36 344 l 228 344 l 228 275 q 269 183 228 211 q 378 154 311 154 q 487 183 446 154 q 528 275 528 211 q 495 369 528 338 q 390 400 463 400 l 292 400 l 292 553 l 392 553 q 494 584 460 553 q 528 663 528 615 q 505 728 528 704 q 426 774 482 751 l -14 774 l -14 926 l 838 926 l 838 774 z "},"ऊ":{"ha":1160,"x_min":-14,"x_max":1163,"o":"m 1163 774 l 678 774 q 719 650 719 729 q 594 475 719 518 q 668 426 639 460 q 763 470 717 456 q 865 485 810 485 q 1061 431 999 485 q 1124 242 1124 376 q 1059 55 1124 110 q 861 0 994 0 l 844 0 q 806 2 825 0 q 772 7 786 4 l 772 158 q 831 154 826 154 l 847 154 q 911 174 889 154 q 933 242 933 194 q 911 311 933 292 q 838 331 889 331 q 772 324 800 331 q 717 304 744 318 q 719 263 719 276 q 378 0 719 0 q 36 275 36 0 l 36 344 l 228 344 l 228 275 q 269 183 228 211 q 378 154 311 154 q 487 183 446 154 q 528 275 528 211 q 495 369 528 338 q 390 400 463 400 l 292 400 l 292 553 l 392 553 q 494 583 461 553 q 528 663 528 614 q 504 728 528 704 q 426 774 481 751 l -14 774 l -14 926 l 1163 926 l 1163 774 z "},"ऋ":{"ha":1182,"x_min":-14,"x_max":1196,"o":"m 669 774 l 669 519 l 789 519 l 789 663 l 981 663 l 981 494 q 1101 368 1063 425 q 1140 242 1140 311 q 1051 61 1140 122 q 822 0 963 0 l 781 0 l 781 154 l 822 154 q 914 176 879 154 q 949 243 949 199 q 926 308 949 279 q 853 367 904 336 l 669 367 l 669 0 l 478 0 l 478 236 l 165 -19 l 53 104 l 467 438 q 366 502 413 486 q 258 518 319 518 q 172 508 224 518 q 72 485 121 499 l 72 647 q 173 670 118 661 q 269 679 228 679 q 379 663 331 679 q 478 608 428 647 l 478 774 l -14 774 l -14 926 l 1196 926 l 1196 774 l 669 774 z "},"ॠ":{"ha":1200,"x_min":-14,"x_max":1224,"o":"m 1063 -169 q 1224 -131 1146 -169 l 1224 -282 q 1043 -311 1158 -311 q 848 -267 913 -311 q 783 -132 783 -222 q 851 -6 783 -47 q 772 50 796 14 q 749 136 749 86 q 836 272 749 232 l 789 367 l 669 367 l 669 0 l 478 0 l 478 236 l 165 -19 l 53 104 l 467 438 q 366 502 413 486 q 258 518 319 518 q 172 508 224 518 q 72 485 121 499 l 72 647 q 173 670 118 661 q 269 679 228 679 q 379 663 331 679 q 478 608 428 647 l 478 774 l -14 774 l -14 926 l 1213 926 l 1213 774 l 669 774 l 669 519 l 782 519 l 782 663 l 974 663 l 974 378 l 1013 300 q 1099 293 1069 300 l 1099 151 q 1007 158 1069 158 q 955 147 969 158 q 940 115 940 136 q 956 83 940 93 q 1018 72 972 72 l 1126 72 l 1126 -29 l 1122 -29 l 1122 -69 l 1025 -69 q 975 -117 975 -69 q 997 -158 975 -146 q 1063 -169 1018 -169 z "},"ऌ":{"ha":1044,"x_min":-14,"x_max":1106,"o":"m 849 774 l 849 586 q 974 510 931 565 q 1018 375 1018 456 q 999 276 1018 318 q 951 206 979 233 q 882 144 924 178 q 826 92 843 111 q 808 49 808 72 q 889 -15 806 -15 q 982 -2 932 -15 q 1061 31 1032 11 l 1061 -131 q 868 -169 992 -169 q 681 -115 746 -169 q 615 33 615 -61 q 649 142 617 99 q 739 232 681 185 q 806 297 783 269 q 828 358 828 324 q 806 421 828 399 q 743 443 783 443 q 673 410 696 443 q 650 306 650 376 l 650 275 l 460 275 l 460 306 q 437 410 458 376 q 372 443 415 443 q 301 410 324 443 q 276 306 278 376 q 306 196 278 238 q 410 154 335 154 l 472 154 l 472 0 l 410 0 q 162 88 238 0 q 86 306 86 176 q 153 518 86 439 q 349 597 221 597 q 554 494 496 597 q 657 582 592 558 l 657 774 l -14 774 l -14 926 l 1106 926 l 1106 774 l 849 774 z "},"ॡ":{"ha":1092,"x_min":-14,"x_max":1106,"o":"m 849 774 l 849 586 q 974 510 931 565 q 1018 375 1018 456 q 982 245 1018 294 q 882 144 946 196 q 826 94 844 115 q 808 49 808 74 q 889 -15 806 -15 q 986 -3 929 -15 l 986 -158 q 881 -171 926 -171 l 868 -171 q 849 -222 849 -190 q 867 -263 849 -251 q 929 -275 886 -275 q 1004 -266 971 -275 q 1075 -236 1038 -257 l 1075 -387 q 990 -410 1031 -404 q 894 -417 950 -417 q 657 -243 657 -417 q 701 -128 657 -176 q 615 33 615 -68 q 649 142 617 99 q 739 232 681 185 q 806 297 783 269 q 828 358 828 324 q 806 421 828 399 q 743 443 783 443 q 673 410 696 443 q 650 306 650 376 l 650 275 l 460 275 l 460 306 q 437 410 458 376 q 372 443 415 443 q 301 410 324 443 q 276 306 278 376 q 306 196 278 238 q 410 154 335 154 l 472 154 l 472 0 l 410 0 q 162 88 238 0 q 86 306 86 176 q 153 518 86 439 q 349 597 221 597 q 554 494 496 597 q 657 582 592 558 l 657 774 l -14 774 l -14 926 l 1106 926 l 1106 774 l 849 774 z "},"ऍ":{"ha":849,"x_min":-14,"x_max":863,"o":"m 0 10 m 863 774 l 743 774 l 743 554 q 678 359 743 414 q 472 304 613 304 l 418 304 l 418 457 l 472 457 q 534 476 515 458 q 553 554 553 494 l 553 774 l 321 774 l 321 386 q 353 235 321 283 q 436 174 386 186 q 568 163 486 163 l 711 163 l 711 10 l 568 10 q 333 37 426 10 q 184 146 239 64 q 129 386 129 228 l 129 774 l -14 774 l -14 926 l 863 926 l 863 774 m 415 986 q 181 1049 254 986 q 108 1239 108 1111 l 108 1265 l 286 1265 l 286 1239 q 317 1163 286 1185 q 415 1140 347 1140 q 514 1163 483 1140 q 544 1239 544 1185 l 544 1265 l 722 1265 l 722 1239 q 650 1047 722 1108 q 415 986 578 986 z "},"ऎ":{"ha":849,"x_min":-117,"x_max":863,"o":"m 863 774 l 743 774 l 743 554 q 678 359 743 414 q 472 304 613 304 l 418 304 l 418 457 l 472 457 q 534 476 515 458 q 553 554 553 494 l 553 774 l 321 774 l 321 386 q 353 235 321 283 q 436 174 386 186 q 568 163 486 163 l 711 163 l 711 10 l 568 10 q 333 37 426 10 q 184 146 239 64 q 129 386 129 228 l 129 774 l -14 774 l -14 926 l 564 926 l 564 982 q 538 1075 564 1049 q 439 1101 511 1101 l 207 1101 q 9 1131 79 1101 q -89 1222 -61 1161 q -117 1386 -117 1283 l -117 1429 l 75 1429 l 75 1386 q 85 1308 75 1335 q 124 1268 96 1281 q 207 1256 151 1256 l 439 1256 q 643 1227 575 1256 q 733 1142 711 1199 q 756 982 756 1085 l 756 926 l 863 926 l 863 774 z "},"ए":{"ha":849,"x_min":-14,"x_max":863,"o":"m 863 774 l 743 774 l 743 554 q 678 359 743 414 q 472 304 613 304 l 418 304 l 418 457 l 472 457 q 534 476 515 458 q 553 554 553 494 l 553 774 l 321 774 l 321 386 q 353 235 321 283 q 436 174 386 186 q 568 163 486 163 l 711 163 l 711 10 l 568 10 q 333 37 426 10 q 184 146 239 64 q 129 386 129 228 l 129 774 l -14 774 l -14 926 l 863 926 l 863 774 z "},"ऐ":{"ha":849,"x_min":-14,"x_max":863,"o":"m 863 774 l 743 774 l 743 554 q 678 359 743 414 q 472 304 613 304 l 418 304 l 418 457 l 472 457 q 534 476 515 458 q 553 554 553 494 l 553 774 l 321 774 l 321 386 q 353 235 321 283 q 436 174 386 186 q 568 163 486 163 l 711 163 l 711 10 l 568 10 q 333 37 426 10 q 184 146 239 64 q 129 386 129 228 l 129 774 l -14 774 l -14 926 l 563 926 l 526 1089 q 488 1172 513 1150 q 410 1193 463 1193 l 282 1193 l 282 1347 l 410 1347 q 560 1329 504 1347 q 653 1256 615 1311 q 717 1089 692 1200 l 754 926 l 863 926 l 863 774 z "},"ऑ":{"ha":1463,"x_min":21,"x_max":1554,"o":"m 21 0 m 1476 774 l 1344 774 l 1344 0 l 1153 0 l 1153 774 l 1049 774 l 917 774 l 917 0 l 726 0 l 726 281 l 494 281 q 374 108 483 161 q 101 56 264 56 l 21 56 l 21 210 l 101 210 q 306 331 306 210 q 269 399 306 376 q 156 422 233 422 l 85 422 l 85 576 l 157 576 q 269 603 233 576 q 306 679 306 631 q 265 751 306 729 q 143 774 224 774 l 64 774 l 64 926 l 143 926 q 410 876 324 926 q 496 707 496 825 q 465 587 496 636 q 369 506 435 538 q 463 435 429 486 l 726 435 l 726 774 l 579 774 l 579 926 l 1049 926 l 1476 926 l 1476 774 m 1247 1032 q 1013 1094 1086 1032 q 940 1285 940 1157 l 940 1311 l 1118 1311 l 1118 1285 q 1149 1208 1118 1231 q 1247 1186 1179 1186 q 1346 1208 1315 1186 q 1376 1285 1376 1231 l 1376 1311 l 1554 1311 l 1554 1285 q 1482 1093 1554 1154 q 1247 1032 1410 1032 z "},"ऒ":{"ha":1463,"x_min":21,"x_max":1476,"o":"m 1476 774 l 1344 774 l 1344 0 l 1153 0 l 1153 774 l 1049 774 l 917 774 l 917 0 l 726 0 l 726 281 l 494 281 q 374 108 483 161 q 101 56 264 56 l 21 56 l 21 210 l 101 210 q 306 331 306 210 q 269 399 306 376 q 156 422 233 422 l 85 422 l 85 576 l 157 576 q 269 603 233 576 q 306 679 306 631 q 265 751 306 729 q 143 774 224 774 l 64 774 l 64 926 l 143 926 q 410 876 324 926 q 496 707 496 825 q 465 587 496 636 q 369 506 435 538 q 463 435 429 486 l 726 435 l 726 774 l 579 774 l 579 926 l 1049 926 l 1153 926 l 1153 982 q 1126 1075 1153 1049 q 1028 1101 1100 1101 l 796 1101 q 598 1131 668 1101 q 500 1222 528 1161 q 472 1386 472 1283 l 472 1429 l 664 1429 l 664 1386 q 674 1308 664 1335 q 713 1268 685 1281 q 796 1256 740 1256 l 1028 1256 q 1232 1227 1164 1256 q 1322 1142 1300 1199 q 1344 982 1344 1085 l 1344 926 l 1476 926 l 1476 774 z "},"ओ":{"ha":1463,"x_min":21,"x_max":1476,"o":"m 1476 774 l 1344 774 l 1344 0 l 1153 0 l 1153 774 l 1049 774 l 917 774 l 917 0 l 726 0 l 726 281 l 494 281 q 374 108 483 161 q 101 56 264 56 l 21 56 l 21 210 l 101 210 q 306 331 306 210 q 269 399 306 376 q 156 422 233 422 l 85 422 l 85 576 l 157 576 q 269 603 233 576 q 306 679 306 631 q 265 751 306 729 q 143 774 224 774 l 64 774 l 64 926 l 143 926 q 410 876 324 926 q 496 707 496 825 q 465 587 496 636 q 369 506 435 538 q 463 435 429 486 l 726 435 l 726 774 l 579 774 l 579 926 l 1049 926 l 1151 926 l 1115 1089 q 1076 1172 1101 1150 q 999 1193 1051 1193 l 871 1193 l 871 1347 l 999 1347 q 1149 1329 1093 1347 q 1242 1256 1204 1311 q 1306 1089 1281 1200 l 1343 926 l 1476 926 l 1476 774 z "},"औ":{"ha":1463,"x_min":21,"x_max":1476,"o":"m 1476 774 l 1344 774 l 1344 0 l 1153 0 l 1153 774 l 1049 774 l 917 774 l 917 0 l 726 0 l 726 281 l 494 281 q 374 108 483 161 q 101 56 264 56 l 21 56 l 21 210 l 101 210 q 306 331 306 210 q 269 399 306 376 q 156 422 233 422 l 85 422 l 85 576 l 157 576 q 269 603 233 576 q 306 679 306 631 q 265 751 306 729 q 143 774 224 774 l 64 774 l 64 926 l 143 926 q 410 876 324 926 q 496 707 496 825 q 465 587 496 636 q 369 506 435 538 q 463 435 429 486 l 726 435 l 726 774 l 579 774 l 579 926 l 1049 926 l 1143 926 l 1071 1017 q 995 1073 1038 1060 q 863 1086 953 1086 l 721 1086 l 721 1239 l 863 1239 q 1029 1218 971 1239 q 1136 1144 1088 1197 l 1118 1226 q 1075 1290 1108 1274 q 974 1306 1042 1306 l 846 1306 l 846 1460 l 974 1460 q 1123 1442 1067 1460 q 1216 1375 1179 1425 q 1275 1226 1253 1325 l 1343 926 l 1476 926 l 1476 774 z "},"ॳ":{"ha":1035,"x_min":21,"x_max":1049,"o":"m 1049 926 l 1049 774 l 917 774 l 917 0 l 726 0 l 726 281 l 494 281 q 374 108 483 161 q 101 56 264 56 l 21 56 l 21 210 l 101 210 q 306 331 306 210 q 269 399 306 376 q 156 422 233 422 l 85 422 l 85 576 l 157 576 q 269 603 233 576 q 306 679 306 631 q 265 751 306 729 q 143 774 224 774 l 64 774 l 64 926 l 143 926 q 410 876 324 926 q 496 707 496 825 q 465 587 496 636 q 369 506 435 538 q 463 435 429 486 l 726 435 l 726 774 l 579 774 l 579 926 l 729 926 l 729 1254 l 914 1254 l 914 926 l 1049 926 z "},"ॴ":{"ha":1463,"x_min":21,"x_max":1476,"o":"m 1476 774 l 1344 774 l 1344 0 l 1153 0 l 1153 774 l 1049 774 l 917 774 l 917 0 l 726 0 l 726 281 l 494 281 q 374 108 483 161 q 101 56 264 56 l 21 56 l 21 210 l 101 210 q 306 331 306 210 q 269 399 306 376 q 156 422 233 422 l 85 422 l 85 576 l 157 576 q 269 603 233 576 q 306 679 306 631 q 265 751 306 729 q 143 774 224 774 l 64 774 l 64 926 l 143 926 q 410 876 324 926 q 496 707 496 825 q 465 587 496 636 q 369 506 435 538 q 463 435 429 486 l 726 435 l 726 774 l 579 774 l 579 926 l 1049 926 l 1153 926 l 1153 1254 l 1344 1254 l 1344 926 l 1476 926 l 1476 774 z "},"ॶ":{"ha":1035,"x_min":21,"x_max":1114,"o":"m 21 0 m 1049 926 l 1049 774 l 917 774 l 917 0 l 726 0 l 726 281 l 494 281 q 374 108 483 161 q 101 56 264 56 l 21 56 l 21 210 l 101 210 q 306 331 306 210 q 269 399 306 376 q 156 422 233 422 l 85 422 l 85 576 l 157 576 q 269 603 233 576 q 306 679 306 631 q 265 751 306 729 q 143 774 224 774 l 64 774 l 64 926 l 143 926 q 410 876 324 926 q 496 707 496 825 q 465 587 496 636 q 369 506 435 538 q 463 435 429 486 l 726 435 l 726 774 l 579 774 l 579 926 l 1049 926 m 768 -310 q 563 -265 654 -310 q 422 -143 471 -219 l 542 -47 q 647 -130 592 -103 q 768 -157 701 -157 q 890 -130 835 -157 q 994 -47 944 -103 l 1114 -143 q 974 -265 1065 -219 q 768 -310 882 -310 z "},"ॷ":{"ha":1035,"x_min":21,"x_max":1114,"o":"m 21 0 m 1049 926 l 1049 774 l 917 774 l 917 0 l 726 0 l 726 281 l 494 281 q 374 108 483 161 q 101 56 264 56 l 21 56 l 21 210 l 101 210 q 306 331 306 210 q 269 399 306 376 q 156 422 233 422 l 85 422 l 85 576 l 157 576 q 269 603 233 576 q 306 679 306 631 q 265 751 306 729 q 143 774 224 774 l 64 774 l 64 926 l 143 926 q 410 876 324 926 q 496 707 496 825 q 465 587 496 636 q 369 506 435 538 q 463 435 429 486 l 726 435 l 726 774 l 579 774 l 579 926 l 1049 926 m 768 -310 q 563 -265 654 -310 q 422 -143 471 -219 l 542 -47 q 647 -130 592 -103 q 768 -157 701 -157 q 890 -130 835 -157 q 994 -47 944 -103 l 1114 -143 q 974 -265 1065 -219 q 768 -310 882 -310 m 768 -567 q 563 -522 654 -567 q 422 -400 471 -476 l 542 -304 q 647 -387 592 -360 q 768 -414 701 -414 q 890 -387 835 -414 q 994 -304 944 -360 l 1114 -400 q 974 -522 1065 -476 q 768 -567 882 -567 z "},"ा":{"ha":426,"x_min":-14,"x_max":440,"o":"m 440 774 l 308 774 l 308 0 l 118 0 l 118 774 l -14 774 l -14 926 l 440 926 l 440 774 z "},"ि":{"ha":426,"x_min":-15,"x_max":1099,"o":"m 643 1328 q 906 1292 807 1328 q 1051 1176 1004 1256 q 1099 965 1097 1097 l 1099 844 l 907 844 l 907 965 q 876 1102 907 1057 q 790 1161 844 1147 q 643 1175 736 1175 l 574 1175 q 426 1161 481 1175 q 340 1102 371 1147 q 310 965 310 1057 l 310 926 l 442 926 l 442 774 l 310 774 l 310 0 l 118 0 l 118 774 l -15 774 l -15 926 l 118 926 l 118 965 q 165 1176 118 1097 q 310 1292 211 1256 q 574 1328 410 1328 l 643 1328 z "},"ी":{"ha":426,"x_min":-308,"x_max":440,"o":"m 440 774 l 308 774 l 308 0 l 118 0 l 118 774 l -14 774 l -14 926 l 118 926 l 118 1018 q 106 1117 118 1083 q 72 1163 94 1151 q 11 1175 49 1175 l -11 1175 q -72 1163 -49 1175 q -106 1117 -94 1151 q -118 1018 -118 1083 l -118 844 l -308 844 l -308 1031 q -239 1260 -308 1192 q -11 1328 -169 1328 l 11 1328 q 239 1260 169 1328 q 308 1031 308 1192 l 308 926 l 440 926 l 440 774 z "},"ॉ":{"ha":426,"x_min":-94,"x_max":519,"o":"m 0 0 m 440 774 l 308 774 l 308 0 l 118 0 l 118 774 l -14 774 l -14 926 l 440 926 l 440 774 m 213 1032 q -22 1094 51 1032 q -94 1285 -94 1157 l -94 1311 l 83 1311 l 83 1285 q 114 1208 83 1231 q 213 1186 144 1186 q 311 1208 281 1186 q 342 1285 342 1231 l 342 1311 l 519 1311 l 519 1285 q 447 1093 519 1154 q 213 1032 375 1032 z "},"ॊ":{"ha":426,"x_min":-562,"x_max":440,"o":"m 440 774 l 308 774 l 308 0 l 118 0 l 118 774 l -14 774 l -14 926 l 118 926 l 118 982 q 92 1075 118 1049 q -7 1101 65 1101 l -239 1101 q -437 1131 -367 1101 q -535 1222 -507 1161 q -562 1386 -562 1283 l -562 1429 l -372 1429 l -372 1386 q -362 1308 -372 1335 q -323 1268 -351 1281 q -239 1256 -294 1256 l -7 1256 q 197 1227 129 1256 q 286 1142 264 1199 q 308 982 308 1085 l 308 926 l 440 926 l 440 774 z "},"ो":{"ha":426,"x_min":-164,"x_max":440,"o":"m 440 774 l 308 774 l 308 0 l 118 0 l 118 774 l -14 774 l -14 926 l 117 926 l 79 1089 q 41 1172 65 1150 q -36 1193 17 1193 l -164 1193 l -164 1347 l -36 1347 q 114 1329 58 1347 q 208 1256 169 1311 q 271 1089 246 1200 l 307 926 l 440 926 l 440 774 z "},"ौ":{"ha":426,"x_min":-314,"x_max":440,"o":"m 440 774 l 308 774 l 308 0 l 118 0 l 118 774 l -14 774 l -14 926 l 108 926 l 36 1017 q -40 1073 3 1060 q -172 1086 -83 1086 l -314 1086 l -314 1239 l -172 1239 q -6 1218 -64 1239 q 101 1144 53 1197 l 83 1226 q 40 1290 72 1274 q -61 1306 7 1306 l -189 1306 l -189 1460 l -61 1460 q 88 1442 32 1460 q 181 1375 144 1425 q 239 1226 217 1325 l 307 926 l 440 926 l 440 774 z "},"ॎ":{"ha":421,"x_min":113,"x_max":435,"o":"m 435 774 l 303 774 l 303 0 l 113 0 l 113 926 l 435 926 l 435 774 z "},"ऻ":{"ha":426,"x_min":-14,"x_max":440,"o":"m 440 774 l 308 774 l 308 0 l 118 0 l 118 774 l -14 774 l -14 926 l 118 926 l 118 1254 l 308 1254 l 308 926 l 440 926 l 440 774 z "},"क":{"ha":1151,"x_min":-14,"x_max":1165,"o":"m 671 774 l 671 606 q 824 642 744 642 l 833 642 q 1051 587 982 642 q 1121 392 1121 532 q 1053 199 1121 256 q 843 142 986 142 l 826 142 q 782 144 806 142 q 743 149 758 146 l 743 300 q 813 294 785 294 l 829 294 q 905 317 879 294 q 931 392 931 339 q 902 469 931 449 q 808 489 874 489 l 799 489 q 732 482 761 489 q 671 458 703 475 l 671 0 l 481 0 l 481 176 q 329 142 407 142 l 319 142 q 101 197 171 142 q 32 392 32 251 q 100 585 32 528 q 311 642 168 642 l 328 642 q 372 640 349 642 q 411 635 396 638 l 411 483 q 342 489 367 489 l 325 489 q 248 467 274 489 q 222 392 222 444 q 251 315 222 335 q 346 294 281 296 l 354 294 q 421 301 392 294 q 481 325 450 308 l 481 774 l -14 774 l -14 926 l 1165 926 l 1165 774 l 671 774 z "},"ख":{"ha":1332,"x_min":-14,"x_max":1346,"o":"m 1346 774 l 1214 774 l 1214 0 l 1024 0 l 1024 224 q 892 197 969 197 l 867 197 q 693 251 756 197 q 631 419 631 304 q 691 585 631 529 q 851 642 751 642 l 868 642 q 954 635 910 642 l 954 483 q 903 489 915 489 l 886 489 q 821 419 821 489 q 842 364 821 378 q 908 350 863 350 l 926 350 q 1024 372 972 350 l 1024 774 l 588 774 l 588 549 q 523 365 588 417 q 318 313 458 313 l 310 313 l 310 271 q 346 180 310 206 q 469 154 382 154 l 699 154 l 699 0 l 469 0 q 209 58 300 0 q 118 271 118 115 l 118 596 l 310 596 l 310 465 l 318 465 q 377 481 358 465 q 396 549 396 497 l 396 774 l -14 774 l -14 926 l 1346 926 l 1346 774 z "},"ग":{"ha":944,"x_min":-14,"x_max":958,"o":"m 958 774 l 826 774 l 826 0 l 636 0 l 636 774 l 467 774 l 467 436 q 274 219 467 219 q 131 257 186 219 q 43 383 76 294 l 185 461 q 216 395 201 417 q 249 374 231 374 q 271 388 265 374 q 276 438 276 403 l 276 774 l -14 774 l -14 926 l 958 926 l 958 774 z "},"घ":{"ha":867,"x_min":-14,"x_max":881,"o":"m 881 926 l 881 774 l 749 774 l 749 0 l 558 0 l 558 172 q 400 138 483 138 l 375 138 q 174 190 240 138 q 108 361 108 243 q 186 528 108 479 q 90 584 122 546 q 58 685 58 622 q 81 774 58 738 l -14 774 l -14 926 l 881 926 m 424 290 q 558 326 496 290 l 558 774 l 269 774 q 249 706 249 747 q 285 633 250 651 q 399 615 321 615 l 460 615 l 460 568 l 463 568 l 463 461 l 399 461 q 324 444 349 461 q 299 376 299 426 q 322 308 299 325 q 399 290 346 292 l 424 290 z "},"ङ":{"ha":857,"x_min":-14,"x_max":871,"o":"m 871 926 l 871 774 l 610 774 l 610 654 l 608 654 l 608 535 l 324 535 q 272 524 289 535 q 256 486 256 513 q 263 457 256 472 q 281 432 269 442 l 421 432 q 633 379 561 432 q 706 213 706 326 q 634 28 706 89 q 426 -32 563 -32 l 414 -32 q 202 -3 292 -32 q 24 82 113 25 l 93 231 q 253 148 182 174 q 400 122 324 122 l 415 122 q 515 201 515 122 q 421 279 515 279 l 178 279 q 101 372 138 310 q 65 504 65 435 q 128 647 65 606 q 324 688 190 688 l 419 688 l 419 774 l -14 774 l -14 926 l 871 926 m 743 592 l 863 472 l 743 356 l 625 472 l 743 592 z "},"च":{"ha":888,"x_min":-14,"x_max":901,"o":"m 901 926 l 901 774 l 769 774 l 769 0 l 579 0 l 579 161 q 453 140 517 140 l 414 140 q 206 196 282 140 q 131 368 131 251 q 176 504 131 447 l 57 504 l 57 657 l 503 657 l 503 504 l 364 504 q 321 389 321 465 q 354 315 321 336 q 451 293 388 293 l 475 293 q 579 315 528 293 l 579 774 l -14 774 l -14 926 l 901 926 z "},"छ":{"ha":1065,"x_min":-14,"x_max":1079,"o":"m 901 774 l 901 701 q 960 645 942 683 q 978 546 978 607 l 978 353 q 860 83 978 160 q 531 6 742 7 l 518 6 q 215 67 328 6 q 103 268 103 128 q 131 398 103 343 q 221 475 160 453 q 124 540 153 496 q 96 647 96 583 q 107 721 96 692 q 140 774 118 750 l -14 774 l -14 926 l 1079 926 l 1079 774 l 901 774 m 710 774 l 393 774 q 312 728 338 753 q 286 660 286 703 q 322 583 286 610 q 431 556 357 556 l 485 556 l 485 401 l 435 401 q 328 372 361 401 q 294 279 294 343 q 358 188 294 217 q 521 160 422 160 l 532 160 q 718 202 650 161 q 786 353 786 243 l 786 536 q 780 561 786 554 q 754 568 774 568 q 728 560 736 568 q 721 536 721 553 l 721 400 l 554 400 l 554 546 q 590 666 554 625 q 710 717 626 707 l 710 774 z "},"ज":{"ha":993,"x_min":-14,"x_max":1007,"o":"m 1007 926 l 1007 774 l 875 774 l 875 0 l 685 0 l 685 475 l 589 475 l 589 406 q 531 199 589 264 q 329 133 474 133 q 138 199 196 133 q 81 406 81 265 l 81 628 l 260 628 l 260 389 q 275 313 260 338 q 329 288 290 288 q 385 312 371 288 q 399 389 399 336 l 399 628 l 685 628 l 685 774 l -14 774 l -14 926 l 1007 926 z "},"झ":{"ha":1172,"x_min":-14,"x_max":1186,"o":"m 1186 774 l 1054 774 l 1054 0 l 863 0 l 863 204 l 700 204 q 424 -21 690 -21 l 413 -21 q 246 7 322 -21 l 246 -94 l 78 -94 l 78 246 l 246 246 l 246 160 q 397 132 314 132 l 414 132 q 510 211 510 132 q 418 289 510 289 l 179 289 q 103 382 139 319 q 67 514 67 444 q 129 657 67 615 q 325 699 192 699 l 413 699 l 413 774 l -14 774 l -14 926 l 1186 926 l 1186 774 m 863 774 l 603 774 l 603 544 l 325 544 q 274 534 290 544 q 257 496 257 524 q 264 467 257 482 q 282 442 271 451 l 418 442 q 661 358 596 442 l 863 358 l 863 774 z "},"ञ":{"ha":864,"x_min":-14,"x_max":878,"o":"m 878 926 l 878 774 l 746 774 l 746 0 l 556 0 l 556 324 l 449 324 q 348 161 429 211 q 117 111 267 111 l 53 111 l 53 264 l 117 264 q 227 294 192 264 q 263 397 263 324 q 228 503 263 476 q 117 531 194 531 l 53 531 l 53 683 l 117 683 q 347 636 267 683 q 447 476 428 589 l 556 476 l 556 774 l -14 774 l -14 926 l 878 926 z "},"ट":{"ha":731,"x_min":-14,"x_max":744,"o":"m 371 518 q 256 481 293 518 q 219 336 219 443 q 235 223 219 263 q 279 169 250 183 q 357 154 308 154 l 383 154 q 484 185 453 154 q 515 301 515 217 l 515 343 l 707 343 l 707 301 q 629 72 707 143 q 383 1 551 1 l 357 1 q 107 77 186 1 q 28 336 28 153 q 112 595 28 519 q 371 671 196 671 l 421 671 l 421 774 l -14 774 l -14 926 l 744 926 l 744 774 l 613 774 l 613 518 l 371 518 z "},"ठ":{"ha":789,"x_min":-14,"x_max":803,"o":"m 671 751 q 622 617 671 668 q 703 510 678 578 q 729 338 729 442 q 694 139 729 213 q 587 33 658 65 q 401 1 515 1 l 381 1 q 131 77 210 1 q 51 338 51 153 q 135 597 51 521 q 394 674 218 674 q 461 690 442 674 q 481 751 481 707 l 481 774 l -14 774 l -14 926 l 803 926 l 803 774 l 671 774 l 671 751 m 401 154 q 479 169 450 154 q 524 224 508 183 q 539 338 539 264 q 503 481 539 443 q 394 519 468 519 q 279 482 317 519 q 242 338 242 444 q 258 223 242 263 q 305 169 274 183 q 389 154 336 154 l 401 154 z "},"ड":{"ha":753,"x_min":-14,"x_max":767,"o":"m 324 535 q 272 524 289 535 q 256 486 256 513 q 263 457 256 472 q 281 432 269 442 l 421 432 q 633 379 561 432 q 706 213 706 326 q 634 28 706 89 q 426 -32 563 -32 l 414 -32 q 202 -3 292 -32 q 24 82 113 25 l 93 231 q 253 148 182 174 q 400 122 324 122 l 415 122 q 515 201 515 122 q 421 279 515 279 l 178 279 q 101 372 138 310 q 65 504 65 435 q 128 647 65 606 q 324 688 190 688 l 419 688 l 419 774 l -14 774 l -14 926 l 767 926 l 767 774 l 610 774 l 610 654 l 608 654 l 608 535 l 324 535 z "},"ढ":{"ha":731,"x_min":-14,"x_max":744,"o":"m 371 518 q 256 481 293 518 q 219 336 219 443 q 235 223 219 263 q 279 169 250 183 q 357 154 308 154 l 383 154 q 483 173 451 154 q 515 236 515 192 l 515 279 q 508 303 515 296 q 486 311 501 311 q 456 278 456 311 l 456 222 l 288 222 l 288 300 q 337 417 288 382 q 501 453 386 453 q 658 408 610 453 q 707 276 707 363 l 707 239 q 628 60 707 118 q 383 1 549 1 l 357 1 q 108 77 188 1 q 28 336 28 153 q 112 595 28 519 q 371 671 196 671 l 421 671 l 421 774 l -14 774 l -14 926 l 744 926 l 744 774 l 613 774 l 613 518 l 371 518 z "},"ण":{"ha":1033,"x_min":-14,"x_max":1047,"o":"m 1047 926 l 1047 774 l 915 774 l 915 0 l 724 0 l 724 774 l 617 774 l 617 525 q 553 322 617 379 q 356 264 490 264 q 158 322 221 264 q 94 525 94 379 l 94 774 l -14 774 l -14 926 l 1047 926 m 426 774 l 286 774 l 286 514 q 303 438 286 460 q 356 417 321 417 q 409 438 392 417 q 426 514 426 460 l 426 774 z "},"त":{"ha":814,"x_min":-14,"x_max":828,"o":"m 828 926 l 828 774 l 696 774 l 696 0 l 504 0 l 504 471 l 351 471 q 288 458 311 471 q 254 413 265 446 q 242 315 243 379 q 267 188 243 221 q 344 154 290 154 l 374 154 l 374 0 l 344 0 q 122 72 192 0 q 51 315 51 144 q 83 497 51 429 q 179 594 114 564 q 351 625 244 625 l 504 625 l 504 774 l -14 774 l -14 926 l 828 926 z "},"थ":{"ha":931,"x_min":69,"x_max":944,"o":"m 944 926 l 944 774 l 813 774 l 813 0 l 622 0 l 622 222 q 527 183 575 194 q 418 171 479 171 q 213 231 288 171 q 96 444 138 292 q 234 505 194 483 q 296 565 274 526 q 318 674 318 603 l 318 726 q 310 778 318 764 q 278 792 301 792 q 246 778 254 792 q 238 726 238 764 l 238 628 l 69 628 l 69 726 q 119 881 69 829 q 278 933 168 933 q 438 883 389 933 q 486 726 486 832 l 486 674 q 468 542 486 593 q 414 456 450 490 q 314 388 378 422 q 358 337 332 350 q 436 324 385 324 q 531 336 486 324 q 622 378 575 349 l 622 774 l 532 774 l 532 926 l 944 926 z "},"द":{"ha":753,"x_min":-14,"x_max":767,"o":"m 422 525 q 319 513 357 525 q 261 470 281 501 q 242 379 242 439 q 274 265 242 296 q 376 233 307 233 l 388 233 q 478 251 433 233 l 478 367 l 668 367 l 668 -21 l 478 -21 l 478 101 q 358 79 426 79 l 347 79 q 126 147 201 79 q 51 374 51 215 q 142 609 51 540 q 422 678 232 678 l 444 678 l 444 774 l -14 774 l -14 926 l 767 926 l 767 774 l 635 774 l 635 525 l 422 525 z "},"ध":{"ha":949,"x_min":71,"x_max":963,"o":"m 963 926 l 963 774 l 831 774 l 831 0 l 640 0 l 640 138 q 454 110 554 110 l 439 110 q 210 167 288 110 q 132 349 132 224 q 153 453 132 411 q 222 529 174 496 q 107 608 143 560 q 71 736 71 657 q 148 897 71 850 q 389 944 225 944 l 406 944 q 449 942 429 944 l 449 789 q 406 792 421 792 l 389 792 q 292 775 322 792 q 261 710 261 758 q 306 639 263 656 q 446 622 349 622 l 514 622 l 514 457 l 457 457 q 357 435 390 457 q 324 360 324 413 q 356 285 324 307 q 457 263 389 264 l 482 263 q 640 289 578 263 l 640 774 l 518 774 l 518 926 l 963 926 z "},"न":{"ha":810,"x_min":-14,"x_max":824,"o":"m 824 926 l 824 774 l 692 774 l 692 0 l 501 0 l 501 443 l 268 443 q 228 434 240 443 q 217 400 217 425 q 235 360 217 379 q 290 328 254 342 l 213 199 q 76 285 115 235 q 36 417 36 335 q 264 597 36 597 l 501 597 l 501 774 l -14 774 l -14 926 l 824 926 z "},"ऩ":{"ha":810,"x_min":-14,"x_max":824,"o":"m 0 0 m 824 926 l 824 774 l 692 774 l 692 0 l 501 0 l 501 443 l 268 443 q 228 434 240 443 q 217 400 217 425 q 235 360 217 379 q 290 328 254 342 l 213 199 q 76 285 115 235 q 36 417 36 335 q 264 597 36 597 l 501 597 l 501 774 l -14 774 l -14 926 l 824 926 m 156 0 l 275 118 l 393 0 l 275 -117 l 156 0 z "},"प":{"ha":836,"x_min":-14,"x_max":850,"o":"m 850 926 l 850 774 l 718 774 l 718 0 l 526 0 l 526 290 q 368 251 461 251 q 160 314 229 251 q 90 531 90 376 l 90 774 l -14 774 l -14 926 l 850 926 m 403 404 q 526 449 467 404 l 526 774 l 281 774 l 281 531 q 308 433 281 461 q 403 404 335 404 z "},"फ":{"ha":1175,"x_min":-14,"x_max":1189,"o":"m 694 774 l 694 606 q 847 642 767 642 l 857 642 q 1075 587 1006 642 q 1144 392 1144 532 q 1076 199 1144 256 q 865 142 1008 142 l 849 142 q 804 144 828 142 q 765 149 781 146 l 765 300 q 835 294 810 294 l 851 294 q 928 317 903 294 q 954 392 954 339 q 925 469 954 449 q 831 489 896 489 l 822 489 q 756 482 785 489 q 694 458 726 475 l 694 0 l 504 0 l 504 289 q 433 260 471 269 q 344 251 396 251 q 153 313 217 251 q 90 531 90 375 l 90 774 l -14 774 l -14 926 l 1189 926 l 1189 774 l 694 774 m 381 404 q 504 446 447 404 l 504 774 l 281 774 l 281 531 q 303 433 281 461 q 381 404 325 404 z "},"ब":{"ha":789,"x_min":-14,"x_max":803,"o":"m 803 926 l 803 774 l 671 774 l 671 0 l 481 0 l 481 176 q 329 142 407 142 l 319 142 q 101 197 171 142 q 32 392 32 251 q 100 585 32 528 q 311 642 168 642 l 328 642 q 372 640 349 642 q 411 635 396 638 l 411 483 q 342 489 367 489 l 338 489 l 481 325 l 481 774 l -14 774 l -14 926 l 803 926 m 354 294 l 360 294 l 231 442 q 222 392 222 421 q 251 315 222 335 q 346 294 281 296 l 354 294 z "},"भ":{"ha":1047,"x_min":63,"x_max":1061,"o":"m 1061 926 l 1061 774 l 929 774 l 929 0 l 738 0 l 738 336 l 496 336 l 496 225 l 306 225 l 306 736 q 298 780 306 768 q 268 792 290 792 q 239 779 247 792 q 231 736 231 767 l 231 636 l 63 636 l 63 736 q 114 883 63 833 q 279 933 165 933 q 446 885 396 933 q 496 736 496 836 l 496 490 l 738 490 l 738 774 l 597 774 l 597 926 l 1061 926 z "},"म":{"ha":836,"x_min":-14,"x_max":850,"o":"m 850 926 l 850 774 l 718 774 l 718 0 l 526 0 l 526 342 l 285 342 l 285 229 l 94 229 l 94 774 l -14 774 l -14 926 l 850 926 m 526 494 l 526 774 l 285 774 l 285 494 l 526 494 z "},"य":{"ha":864,"x_min":-14,"x_max":878,"o":"m 878 926 l 878 774 l 746 774 l 746 0 l 554 0 l 554 210 q 397 176 476 176 q 234 197 299 176 q 121 278 169 218 q 39 450 72 338 q 181 533 142 492 q 219 629 219 575 q 164 774 219 693 l -14 774 l -14 926 l 878 926 m 397 331 q 554 369 476 331 l 554 774 l 354 774 q 396 688 381 731 q 411 614 411 644 q 375 495 411 547 q 257 400 339 443 q 313 345 276 360 q 397 331 349 331 z "},"र":{"ha":703,"x_min":-14,"x_max":717,"o":"m 311 313 l 311 271 q 347 180 311 206 q 471 154 383 154 l 650 154 l 650 0 l 471 0 q 210 58 301 0 q 119 271 119 115 l 119 596 l 311 596 l 311 465 l 318 465 q 377 481 358 465 q 396 549 396 497 l 396 774 l -14 774 l -14 926 l 717 926 l 717 774 l 588 774 l 588 549 q 523 365 588 417 q 318 313 458 313 l 311 313 z "},"ऱ":{"ha":703,"x_min":-14,"x_max":717,"o":"m 0 0 m 311 313 l 311 271 q 347 180 311 206 q 471 154 383 154 l 650 154 l 650 0 l 471 0 q 210 58 301 0 q 119 271 119 115 l 119 596 l 311 596 l 311 465 l 318 465 q 377 481 358 465 q 396 549 396 497 l 396 774 l -14 774 l -14 926 l 717 926 l 717 774 l 588 774 l 588 549 q 523 365 588 417 q 318 313 458 313 l 311 313 m -1 -107 l 118 11 l 236 -107 l 118 -224 l -1 -107 z "},"ल":{"ha":1118,"x_min":-14,"x_max":1132,"o":"m 1132 926 l 1132 774 l 1000 774 l 1000 0 l 810 0 l 810 443 q 753 457 786 457 q 650 308 650 457 l 650 278 l 592 278 l 592 275 l 460 275 l 460 306 q 437 410 458 376 q 372 443 415 443 q 301 410 324 443 q 276 306 278 376 q 306 196 278 238 q 410 154 335 154 l 472 154 l 472 0 l 410 0 q 162 88 238 0 q 86 306 86 176 q 153 518 86 439 q 349 597 221 597 q 549 504 489 597 q 742 611 603 611 q 810 601 774 611 l 810 774 l -14 774 l -14 926 l 1132 926 z "},"ळ":{"ha":1082,"x_min":-14,"x_max":1096,"o":"m 846 774 l 846 642 q 990 550 940 621 q 1040 383 1040 479 q 970 190 1040 267 q 772 114 900 114 q 637 140 694 114 q 542 213 579 165 q 451 140 507 167 q 319 114 394 114 q 114 190 186 114 q 42 383 42 267 q 73 519 42 458 q 167 616 104 581 q 319 651 231 651 q 542 554 467 651 q 656 633 586 611 l 656 774 l -14 774 l -14 926 l 1096 926 l 1096 774 l 846 774 m 343 268 q 420 300 394 268 q 446 383 446 332 q 420 466 446 435 q 343 497 394 497 q 260 466 286 497 q 233 383 233 435 q 260 300 233 332 q 343 268 286 268 m 744 268 q 824 300 797 268 q 850 383 850 332 q 824 466 850 435 q 744 497 799 497 q 663 466 689 497 q 636 383 636 435 q 663 300 636 332 q 744 268 689 268 z "},"ऴ":{"ha":1082,"x_min":-14,"x_max":1096,"o":"m 0 0 m 846 774 l 846 642 q 990 550 940 621 q 1040 383 1040 479 q 970 190 1040 267 q 772 114 900 114 q 637 140 694 114 q 542 213 579 165 q 451 140 507 167 q 319 114 394 114 q 114 190 186 114 q 42 383 42 267 q 73 519 42 458 q 167 616 104 581 q 319 651 231 651 q 542 554 467 651 q 656 633 586 611 l 656 774 l -14 774 l -14 926 l 1096 926 l 1096 774 l 846 774 m 343 268 q 420 300 394 268 q 446 383 446 332 q 420 466 446 435 q 343 497 394 497 q 260 466 286 497 q 233 383 233 435 q 260 300 233 332 q 343 268 286 268 m 744 268 q 824 300 797 268 q 850 383 850 332 q 824 466 850 435 q 744 497 799 497 q 663 466 689 497 q 636 383 636 435 q 663 300 636 332 q 744 268 689 268 m 421 0 l 540 118 l 658 0 l 540 -117 l 421 0 z "},"व":{"ha":789,"x_min":-14,"x_max":803,"o":"m 803 926 l 803 774 l 671 774 l 671 0 l 481 0 l 481 176 q 329 142 407 142 l 319 142 q 101 197 171 142 q 32 392 32 251 q 100 585 32 528 q 311 642 168 642 l 328 642 q 372 640 349 642 q 411 635 396 638 l 411 483 q 342 489 367 489 l 325 489 q 248 467 274 489 q 222 392 222 444 q 251 315 222 335 q 346 294 281 296 l 354 294 q 421 301 392 294 q 481 325 450 308 l 481 774 l -14 774 l -14 926 l 803 926 z "},"श":{"ha":1010,"x_min":56,"x_max":1024,"o":"m 592 660 q 528 435 590 525 q 335 318 465 346 q 355 216 338 251 q 408 167 372 181 q 507 154 443 154 l 590 154 l 590 0 l 496 0 q 247 70 332 0 q 156 306 163 140 l 56 306 l 56 460 l 215 460 q 359 507 318 460 q 401 660 400 554 q 388 763 401 735 q 338 792 374 792 q 291 767 306 792 q 275 683 276 743 l 275 596 l 83 596 l 83 707 q 146 876 85 819 q 338 933 207 933 q 533 869 475 933 q 592 660 592 804 m 1024 774 l 892 774 l 892 0 l 701 0 l 701 926 l 1024 926 l 1024 774 z "},"ष":{"ha":843,"x_min":-14,"x_max":857,"o":"m 857 926 l 857 774 l 725 774 l 725 0 l 533 0 l 533 290 q 371 251 465 251 q 160 314 231 251 q 90 531 90 376 l 90 774 l -14 774 l -14 926 l 857 926 m 533 774 l 376 774 l 533 535 l 533 774 m 281 531 q 308 433 281 461 q 407 404 336 404 q 476 417 439 404 l 281 711 l 281 531 z "},"स":{"ha":1140,"x_min":-14,"x_max":1154,"o":"m 1154 926 l 1154 774 l 1022 774 l 1022 0 l 832 0 l 832 342 l 619 342 l 619 496 l 832 496 l 832 774 l 588 774 l 588 549 q 523 365 588 417 q 318 313 458 313 l 310 313 l 310 271 q 346 180 310 206 q 469 154 382 154 l 664 154 l 664 0 l 469 0 q 209 58 300 0 q 118 271 118 115 l 118 596 l 310 596 l 310 465 l 318 465 q 377 481 358 465 q 396 549 396 497 l 396 774 l -14 774 l -14 926 l 1154 926 z "},"ह":{"ha":743,"x_min":-14,"x_max":776,"o":"m 325 540 q 274 529 290 540 q 257 492 257 518 q 288 432 257 463 q 397 446 338 446 l 433 446 q 622 381 556 446 q 688 207 688 315 l 688 178 l 522 178 l 522 207 q 499 268 522 244 q 433 292 476 292 l 397 292 q 324 269 356 292 q 293 193 293 247 q 344 91 293 118 q 479 64 396 64 l 589 64 l 589 -90 l 468 -90 q 202 -22 303 -90 q 101 203 101 46 q 143 340 101 283 q 89 419 111 375 q 67 508 67 463 q 126 651 67 610 q 313 693 185 693 l 429 693 l 429 774 l -14 774 l -14 926 l 776 926 l 776 774 l 621 774 l 621 540 l 325 540 z "},"क़":{"ha":1151,"x_min":-14,"x_max":1165,"o":"m 0 0 m 671 774 l 671 606 q 824 642 744 642 l 833 642 q 1051 587 982 642 q 1121 392 1121 532 q 1053 199 1121 256 q 843 142 986 142 l 826 142 q 782 144 806 142 q 743 149 758 146 l 743 300 q 813 294 785 294 l 829 294 q 905 317 879 294 q 931 392 931 339 q 902 469 931 449 q 808 489 874 489 l 799 489 q 732 482 761 489 q 671 458 703 475 l 671 0 l 481 0 l 481 176 q 329 142 407 142 l 319 142 q 101 197 171 142 q 32 392 32 251 q 100 585 32 528 q 311 642 168 642 l 328 642 q 372 640 349 642 q 411 635 396 638 l 411 483 q 342 489 367 489 l 325 489 q 248 467 274 489 q 222 392 222 444 q 251 315 222 335 q 346 294 281 296 l 354 294 q 421 301 392 294 q 481 325 450 308 l 481 774 l -14 774 l -14 926 l 1165 926 l 1165 774 l 671 774 m 156 -24 l 275 94 l 393 -24 l 275 -140 l 156 -24 z "},"ख़":{"ha":1332,"x_min":-14,"x_max":1346,"o":"m 0 0 m 1346 774 l 1214 774 l 1214 0 l 1024 0 l 1024 224 q 892 197 969 197 l 867 197 q 693 251 756 197 q 631 419 631 304 q 691 585 631 529 q 851 642 751 642 l 868 642 q 954 635 910 642 l 954 483 q 903 489 915 489 l 886 489 q 821 419 821 489 q 842 364 821 378 q 908 350 863 350 l 926 350 q 1024 372 972 350 l 1024 774 l 588 774 l 588 549 q 523 365 588 417 q 318 313 458 313 l 310 313 l 310 271 q 346 180 310 206 q 469 154 382 154 l 699 154 l 699 0 l 469 0 q 209 58 300 0 q 118 271 118 115 l 118 596 l 310 596 l 310 465 l 318 465 q 377 481 358 465 q 396 549 396 497 l 396 774 l -14 774 l -14 926 l 1346 926 l 1346 774 m 96 -140 l 215 -22 l 333 -140 l 215 -257 l 96 -140 z "},"ग़":{"ha":944,"x_min":-14,"x_max":958,"o":"m 0 0 m 958 774 l 826 774 l 826 0 l 636 0 l 636 774 l 467 774 l 467 436 q 274 219 467 219 q 131 257 186 219 q 43 383 76 294 l 185 461 q 216 395 201 417 q 249 374 231 374 q 271 388 265 374 q 276 438 276 403 l 276 774 l -14 774 l -14 926 l 958 926 l 958 774 m 251 0 l 371 118 l 489 0 l 371 -117 l 251 0 z "},"ज़":{"ha":993,"x_min":-14,"x_max":1007,"o":"m 0 0 m 1007 926 l 1007 774 l 875 774 l 875 0 l 685 0 l 685 475 l 589 475 l 589 406 q 531 199 589 264 q 329 133 474 133 q 138 199 196 133 q 81 406 81 265 l 81 628 l 260 628 l 260 389 q 275 313 260 338 q 329 288 290 288 q 385 312 371 288 q 399 389 399 336 l 399 628 l 685 628 l 685 774 l -14 774 l -14 926 l 1007 926 m 213 -46 l 332 72 l 450 -46 l 332 -162 l 213 -46 z "},"ड़":{"ha":753,"x_min":-14,"x_max":767,"o":"m 0 0 m 324 535 q 272 524 289 535 q 256 486 256 513 q 263 457 256 472 q 281 432 269 442 l 421 432 q 633 379 561 432 q 706 213 706 326 q 634 28 706 89 q 426 -32 563 -32 l 414 -32 q 202 -3 292 -32 q 24 82 113 25 l 93 231 q 253 148 182 174 q 400 122 324 122 l 415 122 q 515 201 515 122 q 421 279 515 279 l 178 279 q 101 372 138 310 q 65 504 65 435 q 128 647 65 606 q 324 688 190 688 l 419 688 l 419 774 l -14 774 l -14 926 l 767 926 l 767 774 l 610 774 l 610 654 l 608 654 l 608 535 l 324 535 m 265 -192 l 385 -74 l 503 -192 l 385 -308 l 265 -192 z "},"ढ़":{"ha":731,"x_min":-14,"x_max":744,"o":"m 0 0 m 371 518 q 256 481 293 518 q 219 336 219 443 q 235 223 219 263 q 279 169 250 183 q 357 154 308 154 l 383 154 q 483 173 451 154 q 515 236 515 192 l 515 279 q 508 303 515 296 q 486 311 501 311 q 456 278 456 311 l 456 222 l 288 222 l 288 300 q 337 417 288 382 q 501 453 386 453 q 658 408 610 453 q 707 276 707 363 l 707 239 q 628 60 707 118 q 383 1 549 1 l 357 1 q 108 77 188 1 q 28 336 28 153 q 112 595 28 519 q 371 671 196 671 l 421 671 l 421 774 l -14 774 l -14 926 l 744 926 l 744 774 l 613 774 l 613 518 l 371 518 m 253 -164 l 372 -46 l 490 -164 l 372 -281 l 253 -164 z "},"फ़":{"ha":1175,"x_min":-14,"x_max":1189,"o":"m 0 0 m 694 774 l 694 606 q 847 642 767 642 l 857 642 q 1075 587 1006 642 q 1144 392 1144 532 q 1076 199 1144 256 q 865 142 1008 142 l 849 142 q 804 144 828 142 q 765 149 781 146 l 765 300 q 835 294 810 294 l 851 294 q 928 317 903 294 q 954 392 954 339 q 925 469 954 449 q 831 489 896 489 l 822 489 q 756 482 785 489 q 694 458 726 475 l 694 0 l 504 0 l 504 289 q 433 260 471 269 q 344 251 396 251 q 153 313 217 251 q 90 531 90 375 l 90 774 l -14 774 l -14 926 l 1189 926 l 1189 774 l 694 774 m 381 404 q 504 446 447 404 l 504 774 l 281 774 l 281 531 q 303 433 281 461 q 381 404 325 404 m 106 93 l 225 211 l 343 93 l 225 -24 l 106 93 z "},"य़":{"ha":864,"x_min":-14,"x_max":878,"o":"m 0 0 m 878 926 l 878 774 l 746 774 l 746 0 l 554 0 l 554 210 q 397 176 476 176 q 234 197 299 176 q 121 278 169 218 q 39 450 72 338 q 181 533 142 492 q 219 629 219 575 q 164 774 219 693 l -14 774 l -14 926 l 878 926 m 397 331 q 554 369 476 331 l 554 774 l 354 774 q 396 688 381 731 q 411 614 411 644 q 375 495 411 547 q 257 400 339 443 q 313 345 276 360 q 397 331 349 331 m 89 28 l 208 146 l 326 28 l 208 -89 l 89 28 z "},"ॹ":{"ha":993,"x_min":-14,"x_max":1007,"o":"m 0 0 m 1007 926 l 1007 774 l 875 774 l 875 0 l 685 0 l 685 475 l 589 475 l 589 406 q 531 199 589 264 q 329 133 474 133 q 138 199 196 133 q 81 406 81 265 l 81 628 l 260 628 l 260 389 q 275 313 260 338 q 329 288 290 288 q 385 312 371 288 q 399 389 399 336 l 399 628 l 685 628 l 685 774 l -14 774 l -14 926 l 1007 926 m 58 11 l 178 129 l 296 11 l 178 -106 l 58 11 m 218 -146 l 338 -28 l 456 -146 l 338 -262 l 218 -146 m 376 11 l 496 129 l 614 11 l 496 -106 l 376 11 z "},"ॺ":{"ha":806,"x_min":-14,"x_max":878,"o":"m 878 926 l 878 774 l 746 774 l 746 0 l 554 0 l 554 210 q 397 176 476 176 q 234 197 299 176 q 121 278 169 218 q 39 450 72 338 q 181 533 142 492 q 219 629 219 575 q 164 774 219 693 l -14 774 l -14 926 l 878 926 m 554 774 l 393 774 l 554 558 l 554 774 m 257 400 q 313 345 276 360 q 397 331 349 331 q 526 357 461 331 l 396 532 q 257 400 363 456 z "},"ॻ":{"ha":944,"x_min":-14,"x_max":958,"o":"m 958 774 l 826 774 l 826 0 l 822 0 l 822 -93 l 69 -93 l 69 61 l 636 61 l 636 774 l 467 774 l 467 436 q 274 219 467 219 q 131 257 186 219 q 43 383 76 294 l 185 461 q 216 395 201 417 q 249 374 231 374 q 271 388 265 374 q 276 438 276 403 l 276 774 l -14 774 l -14 926 l 958 926 l 958 774 z "},"ॼ":{"ha":985,"x_min":-14,"x_max":1007,"o":"m 1007 926 l 1007 774 l 875 774 l 875 0 l 869 0 l 869 -93 l 69 -93 l 69 61 l 685 61 l 685 475 l 589 475 l 589 406 q 531 199 589 264 q 329 133 474 133 q 138 199 196 133 q 81 406 81 265 l 81 628 l 260 628 l 260 389 q 275 313 260 338 q 329 288 290 288 q 385 312 371 288 q 399 389 399 336 l 399 628 l 685 628 l 685 774 l -14 774 l -14 926 l 1007 926 z "},"ॾ":{"ha":753,"x_min":-14,"x_max":767,"o":"m 324 535 q 272 524 289 535 q 256 486 256 513 q 263 457 256 472 q 281 432 269 442 l 421 432 q 633 379 561 432 q 706 213 706 326 q 634 28 706 89 q 426 -32 563 -32 l 414 -32 q 202 -3 292 -32 q 24 82 113 25 l 93 231 q 253 148 182 174 q 400 122 324 122 l 415 122 q 515 201 515 122 q 421 279 515 279 l 178 279 q 101 372 138 310 q 65 504 65 435 q 128 647 65 606 q 324 688 190 688 l 419 688 l 419 774 l -14 774 l -14 926 l 767 926 l 767 774 l 610 774 l 610 654 l 608 654 l 608 535 l 324 535 m 69 -106 l 681 -106 l 681 -260 l 69 -260 l 69 -106 z "},"ॿ":{"ha":789,"x_min":-14,"x_max":803,"o":"m 803 926 l 803 774 l 671 774 l 671 0 l 665 0 l 665 -143 l 69 -143 l 69 10 l 481 10 l 481 176 q 329 142 407 142 l 319 142 q 101 197 171 142 q 32 392 32 251 q 100 585 32 528 q 311 642 168 642 l 328 642 q 372 640 349 642 q 411 635 396 638 l 411 483 q 342 489 367 489 l 338 489 l 481 325 l 481 774 l -14 774 l -14 926 l 803 926 m 354 294 l 360 294 l 231 442 q 222 392 222 421 q 251 315 222 335 q 346 294 281 296 l 354 294 z "},"⁄":{"ha":549,"x_min":-101,"x_max":650,"o":"m 478 1074 l 650 1074 l 71 -46 l -101 -46 l 478 1074 z "},"½":{"ha":1597,"x_min":83,"x_max":1578,"o":"m 83 0 m 458 315 l 458 182 l 83 182 l 83 315 l 199 315 l 199 801 l 103 801 l 103 935 l 343 935 l 343 315 l 458 315 m 1006 1074 l 1178 1074 l 599 -46 l 426 -46 l 1006 1074 m 1117 285 q 1295 478 1239 414 q 1381 593 1351 542 q 1411 689 1411 644 q 1311 788 1411 788 q 1140 746 1224 788 l 1140 881 q 1314 918 1225 918 q 1492 860 1426 918 q 1558 694 1558 803 q 1496 514 1558 606 q 1297 285 1433 422 l 1578 285 l 1578 151 l 1117 151 l 1117 285 z "},"¼":{"ha":1582,"x_min":83,"x_max":1568,"o":"m 83 0 m 458 315 l 458 182 l 83 182 l 83 315 l 199 315 l 199 801 l 103 801 l 103 935 l 343 935 l 343 315 l 458 315 m 1006 1074 l 1178 1074 l 599 -46 l 426 -46 l 1006 1074 m 1568 317 l 1496 317 l 1496 151 l 1351 151 l 1351 317 l 1057 317 l 1057 447 l 1336 917 l 1496 917 l 1496 447 l 1568 447 l 1568 317 m 1351 447 l 1351 686 l 1210 447 l 1351 447 z "},"¾":{"ha":1581,"x_min":56,"x_max":1567,"o":"m 56 0 m 390 581 q 478 506 449 551 q 507 404 507 461 q 434 229 507 292 q 236 167 361 167 q 56 194 126 167 l 56 329 q 225 297 129 297 q 322 324 285 297 q 358 404 358 351 q 319 482 358 456 q 207 508 281 508 l 135 508 l 135 650 l 207 650 q 313 674 276 650 q 349 744 349 697 q 319 799 349 779 q 236 818 290 818 q 65 790 135 818 l 65 924 q 236 949 133 949 q 431 894 365 949 q 497 744 497 840 q 390 581 497 638 m 1004 1074 l 1176 1074 l 597 -46 l 425 -46 l 1004 1074 m 1567 317 l 1494 317 l 1494 151 l 1350 151 l 1350 317 l 1056 317 l 1056 447 l 1335 917 l 1494 917 l 1494 447 l 1567 447 l 1567 317 m 1350 447 l 1350 686 l 1208 447 l 1350 447 z "},"¹":{"ha":542,"x_min":83,"x_max":458,"o":"m 458 315 l 458 182 l 83 182 l 83 315 l 199 315 l 199 801 l 103 801 l 103 935 l 343 935 l 343 315 l 458 315 z "},"²":{"ha":542,"x_min":61,"x_max":522,"o":"m 61 315 q 240 508 183 444 q 326 624 296 572 q 356 719 356 675 q 256 818 356 818 q 85 776 168 818 l 85 911 q 258 949 169 949 q 437 891 371 949 q 503 725 503 833 q 440 544 503 636 q 242 315 378 453 l 522 315 l 522 182 l 61 182 l 61 315 z "},"³":{"ha":542,"x_min":56,"x_max":507,"o":"m 390 581 q 478 506 449 551 q 507 404 507 461 q 434 229 507 292 q 236 167 361 167 q 56 194 126 167 l 56 329 q 225 297 129 297 q 322 324 285 297 q 358 404 358 351 q 319 482 358 456 q 207 508 281 508 l 135 508 l 135 650 l 207 650 q 313 674 276 650 q 349 744 349 697 q 319 799 349 779 q 236 818 290 818 q 65 790 135 818 l 65 924 q 236 949 133 949 q 431 894 365 949 q 497 744 497 840 q 390 581 497 638 z "},"०":{"ha":886,"x_min":90,"x_max":796,"o":"m 443 138 q 255 181 335 138 q 133 300 175 225 q 90 465 90 375 q 133 631 90 556 q 255 749 175 706 q 443 793 335 793 q 631 749 551 793 q 753 631 711 706 q 796 465 796 556 q 753 300 796 375 q 631 181 711 225 q 443 138 551 138 m 443 292 q 563 340 519 292 q 606 465 606 388 q 563 591 606 543 q 443 639 519 639 q 324 591 367 639 q 281 465 281 543 q 324 340 281 388 q 443 292 367 292 z "},"१":{"ha":667,"x_min":46,"x_max":628,"o":"m 628 672 q 561 439 628 538 q 382 289 494 340 l 561 85 l 436 -22 l 207 243 q 160 242 190 242 l 76 242 l 76 394 l 160 394 q 358 465 278 394 q 438 672 438 535 q 417 773 438 743 q 343 803 396 803 q 264 772 290 803 q 236 672 238 740 l 236 619 l 46 619 l 46 672 q 119 885 47 814 q 343 957 190 957 q 560 885 493 957 q 628 672 628 814 z "},"२":{"ha":686,"x_min":75,"x_max":635,"o":"m 635 154 l 635 0 l 551 0 q 263 85 369 0 q 153 360 156 169 l 75 360 l 75 513 l 240 513 q 374 541 331 513 q 418 643 418 569 q 374 746 417 718 q 240 774 331 774 l 75 774 l 75 926 l 240 926 q 519 861 429 926 q 610 643 608 796 q 543 447 608 513 q 344 365 478 381 q 401 199 346 244 q 551 154 456 154 l 635 154 z "},"३":{"ha":672,"x_min":39,"x_max":643,"o":"m 444 517 q 592 430 540 489 q 643 283 643 371 q 553 85 643 153 q 317 18 463 18 q 218 28 267 18 l 218 -76 l 39 -76 l 39 289 l 218 289 l 218 183 q 317 172 263 172 q 424 200 383 172 q 464 290 464 228 q 231 422 464 422 l 117 422 l 117 576 l 232 576 q 344 607 307 576 q 381 686 381 638 q 344 753 381 732 q 231 774 307 774 l 54 774 l 54 926 l 231 926 q 478 874 397 926 q 560 707 560 822 q 532 590 560 638 q 444 517 504 543 z "},"४":{"ha":797,"x_min":49,"x_max":749,"o":"m 749 858 q 731 692 749 754 q 681 591 714 629 q 588 514 647 553 l 550 489 q 651 385 617 442 q 686 242 686 328 q 651 106 686 167 q 550 12 615 46 q 399 -22 485 -22 q 247 12 313 -22 q 147 106 182 46 q 111 242 111 167 q 148 380 111 321 q 249 488 185 439 l 210 514 q 115 594 149 553 q 65 698 81 636 q 49 858 49 760 l 49 926 l 240 926 l 240 858 q 253 732 240 774 q 294 663 265 690 q 399 588 324 636 q 499 663 468 633 q 544 735 531 692 q 557 858 557 778 l 557 926 l 749 926 l 749 858 m 399 132 q 468 159 442 132 q 494 242 494 186 q 471 325 494 292 q 400 390 447 358 q 328 322 353 357 q 303 242 303 288 q 329 159 303 186 q 399 132 356 132 z "},"५":{"ha":794,"x_min":94,"x_max":700,"o":"m 700 757 l 700 225 q 614 38 700 99 q 374 -24 528 -24 q 247 -10 310 -24 q 138 21 185 3 l 111 192 q 350 131 219 131 q 467 157 425 131 q 508 260 508 183 l 508 326 q 374 299 449 299 q 163 360 231 299 q 94 578 94 422 l 94 926 l 286 926 l 286 578 q 308 480 286 508 q 385 451 329 451 q 508 482 457 451 l 508 757 l 700 757 z "},"६":{"ha":704,"x_min":35,"x_max":679,"o":"m 679 354 l 679 -33 l 488 -33 l 488 75 q 414 68 458 68 l 389 68 q 155 135 235 68 q 75 326 75 203 q 190 525 75 464 q 73 597 111 547 q 35 732 35 646 q 117 896 35 847 q 376 944 200 944 l 401 944 q 506 933 461 944 l 506 778 q 401 792 460 792 l 376 792 q 262 774 297 792 q 226 701 226 756 q 268 628 228 646 q 399 610 308 610 l 449 610 l 449 564 l 453 564 l 453 457 l 389 457 q 299 426 331 457 q 267 332 267 394 q 389 221 267 224 l 414 221 q 488 231 453 221 l 488 354 l 679 354 z "},"७":{"ha":819,"x_min":65,"x_max":754,"o":"m 410 35 q 149 121 232 35 q 65 408 65 207 l 65 926 l 256 926 l 256 421 q 272 278 256 329 q 322 208 289 228 q 410 189 356 189 q 495 208 463 189 q 546 278 528 228 q 564 421 564 329 l 564 771 q 560 796 564 789 q 543 803 556 803 q 526 795 531 803 q 521 771 521 788 l 521 636 l 331 636 l 331 782 q 381 903 331 861 q 543 944 431 944 q 705 903 656 944 q 754 782 754 861 l 754 408 q 668 122 754 208 q 410 35 582 35 z "},"८":{"ha":654,"x_min":7,"x_max":592,"o":"m 493 0 q 128 92 250 0 q 7 340 7 185 q 37 479 7 415 q 120 601 67 543 q 263 738 174 660 l 474 921 l 592 794 l 381 611 q 240 469 281 525 q 199 340 199 413 q 271 203 199 251 q 493 154 343 154 l 572 154 l 572 0 l 493 0 z "},"९":{"ha":724,"x_min":25,"x_max":704,"o":"m 369 186 l 339 214 q 171 372 233 308 q 67 511 108 436 q 25 668 25 586 q 109 876 25 807 q 347 944 193 944 q 553 876 479 944 q 626 668 626 807 l 626 581 l 436 581 l 436 668 q 333 792 436 792 q 249 763 278 792 q 219 668 219 735 q 248 562 219 613 q 320 467 276 511 q 449 347 364 422 l 489 311 l 704 118 l 585 -7 l 369 186 z "},"*":{"ha":858,"x_min":88,"x_max":771,"o":"m 553 867 l 771 769 l 685 619 l 490 760 l 515 522 l 343 522 l 368 760 l 174 619 l 88 769 l 307 867 l 88 964 l 174 1114 l 368 974 l 343 1211 l 515 1211 l 490 974 l 685 1114 l 771 964 l 553 867 z "},"\\":{"ha":597,"x_min":-25,"x_max":624,"o":"m -25 1293 l 192 1293 l 624 -246 l 407 -246 l -25 1293 z "},"·":{"ha":394,"x_min":83,"x_max":311,"o":"m 83 608 l 311 608 l 311 364 l 83 364 l 83 608 z "},"•":{"ha":482,"x_min":28,"x_max":454,"o":"m 242 315 q 134 344 183 315 q 56 422 85 372 q 28 529 28 471 q 56 638 28 589 q 134 714 85 686 q 242 742 183 742 q 350 714 301 742 q 426 638 399 686 q 454 529 454 589 q 426 422 454 471 q 350 344 399 372 q 242 315 301 315 z "},":":{"ha":394,"x_min":83,"x_max":311,"o":"m 83 0 m 83 244 l 311 244 l 311 0 l 83 0 l 83 244 m 83 793 l 311 793 l 311 549 l 83 549 l 83 793 z "},",":{"ha":394,"x_min":38,"x_max":343,"o":"m 121 244 l 343 244 l 228 -210 l 38 -210 l 121 244 z "},"…":{"ha":1183,"x_min":83,"x_max":1100,"o":"m 83 244 l 311 244 l 311 0 l 83 0 l 83 244 m 478 244 l 706 244 l 706 0 l 478 0 l 478 244 m 1100 244 l 1100 0 l 872 0 l 872 244 l 1100 244 z "},"!":{"ha":394,"x_min":78,"x_max":317,"o":"m 78 1053 l 317 1053 l 289 319 l 106 319 l 78 1053 m 83 233 l 311 233 l 311 0 l 83 0 l 83 233 z "},"¡":{"ha":394,"x_min":78,"x_max":317,"o":"m 83 1053 l 311 1053 l 311 819 l 83 819 l 83 1053 m 106 733 l 289 733 l 317 0 l 78 0 l 106 733 z "},"#":{"ha":976,"x_min":83,"x_max":892,"o":"m 768 549 l 747 388 l 850 388 l 850 196 l 722 196 l 697 0 l 503 0 l 529 196 l 376 196 l 351 0 l 157 0 l 183 196 l 83 196 l 83 388 l 207 388 l 228 549 l 125 549 l 125 740 l 253 740 l 278 936 l 472 936 l 446 740 l 599 740 l 624 936 l 818 936 l 792 740 l 892 740 l 892 549 l 768 549 m 574 549 l 422 549 l 401 388 l 553 388 l 574 549 z "},".":{"ha":394,"x_min":83,"x_max":311,"o":"m 83 244 l 311 244 l 311 0 l 83 0 l 83 244 z "},"?":{"ha":706,"x_min":63,"x_max":654,"o":"m 186 404 q 211 526 186 481 q 300 621 236 571 l 364 674 q 421 730 407 708 q 435 786 435 751 q 399 859 435 833 q 304 885 364 885 q 63 828 179 885 l 63 1021 q 192 1061 128 1050 q 328 1072 256 1072 q 563 1002 472 1072 q 654 803 654 932 q 635 694 654 740 q 586 616 615 647 q 511 547 557 585 l 469 514 q 417 455 431 481 q 403 385 403 429 l 403 319 l 186 319 l 186 404 m 181 233 l 408 233 l 408 0 l 181 0 l 181 233 z "},"¿":{"ha":706,"x_min":51,"x_max":643,"o":"m 313 1018 l 510 1018 l 510 856 l 313 856 l 313 1018 m 378 -19 q 142 51 233 -19 q 51 250 51 121 q 71 359 51 313 q 119 437 90 406 q 196 507 149 468 l 236 540 q 289 598 275 572 q 303 668 303 624 l 303 733 l 519 733 l 519 649 q 494 528 519 572 q 406 432 469 483 l 342 379 q 285 323 299 344 q 271 267 271 301 q 306 194 271 219 q 401 168 342 168 q 643 225 526 168 l 643 32 q 514 -8 578 3 q 378 -19 450 -19 z "},"\"":{"ha":686,"x_min":100,"x_max":586,"o":"m 100 633 m 100 1053 l 294 1053 l 294 633 l 100 633 l 100 1053 m 392 1053 l 586 1053 l 586 633 l 392 633 l 392 1053 z "},"'":{"ha":394,"x_min":100,"x_max":294,"o":"m 100 1053 l 294 1053 l 294 633 l 100 633 l 100 1053 z "},";":{"ha":394,"x_min":38,"x_max":343,"o":"m 38 0 m 121 244 l 343 244 l 228 -210 l 38 -210 l 121 244 m 83 793 l 311 793 l 311 549 l 83 549 l 83 793 z "},"/":{"ha":597,"x_min":-25,"x_max":624,"o":"m 407 1293 l 624 1293 l 192 -246 l -25 -246 l 407 1293 z "},"_":{"ha":694,"x_min":0,"x_max":694,"o":"m 0 -107 l 694 -107 l 694 -297 l 0 -297 l 0 -107 z "},"{":{"ha":544,"x_min":51,"x_max":501,"o":"m 372 693 q 347 557 372 599 q 251 499 321 515 q 347 439 321 481 q 372 304 372 397 l 372 113 q 385 32 372 53 q 438 11 399 11 q 501 17 474 11 l 501 -174 q 410 -179 457 -179 q 261 -159 315 -179 q 181 -90 207 -139 q 156 47 156 -42 l 156 269 q 149 353 156 325 q 129 392 143 382 q 89 403 115 403 l 51 403 l 51 594 l 89 594 q 129 605 115 594 q 149 644 143 615 q 156 728 156 672 l 156 950 q 181 1088 156 1039 q 261 1156 207 1136 q 410 1176 315 1176 q 501 1171 457 1176 l 501 981 q 438 986 474 986 q 385 965 399 986 q 372 885 372 944 l 372 693 z "},"}":{"ha":450,"x_min":-51,"x_max":399,"o":"m 0 0 m 78 693 q 103 557 78 599 q 199 499 129 515 q 103 439 129 481 q 78 304 78 397 l 78 113 q 65 32 78 53 q 13 11 51 11 q -51 17 -24 11 l -51 -174 q 40 -179 -7 -179 q 189 -159 135 -179 q 269 -90 243 -139 q 294 47 294 -42 l 294 269 q 301 353 294 325 q 321 392 307 382 q 361 403 335 403 l 399 403 l 399 594 l 361 594 q 321 605 335 594 q 301 644 307 615 q 294 728 294 672 l 294 950 q 269 1088 294 1039 q 189 1156 243 1136 q 40 1176 135 1176 q -51 1171 -7 1176 l -51 981 q 13 986 -24 986 q 65 965 51 986 q 78 885 78 944 l 78 693 z "},"[":{"ha":474,"x_min":97,"x_max":425,"o":"m 425 11 l 425 -179 l 97 -179 l 97 1176 l 418 1176 l 418 986 l 314 986 l 314 11 l 425 11 z "},"]":{"ha":474,"x_min":50,"x_max":376,"o":"m 376 -179 l 54 -179 l 54 11 l 160 11 l 160 986 l 50 986 l 50 1176 l 376 1176 l 376 -179 z "},"(":{"ha":522,"x_min":78,"x_max":485,"o":"m 331 -179 q 142 123 207 -39 q 78 499 78 285 q 142 874 78 713 q 331 1176 207 1036 l 485 1069 q 308 499 308 831 q 485 -72 308 167 l 331 -179 z "},")":{"ha":522,"x_min":38,"x_max":444,"o":"m 38 -72 q 214 499 214 167 q 38 1069 214 831 l 192 1176 q 380 874 315 1036 q 444 499 444 713 q 380 123 444 285 q 192 -179 315 -39 l 38 -72 z "},"—":{"ha":1389,"x_min":174,"x_max":1215,"o":"m 174 506 l 1215 506 l 1215 317 l 174 317 l 174 506 z "},"–":{"ha":694,"x_min":0,"x_max":694,"o":"m 0 506 l 694 506 l 694 317 l 0 317 l 0 506 z "},"-":{"ha":631,"x_min":111,"x_max":519,"o":"m 111 506 l 519 506 l 519 317 l 111 317 l 111 506 z "},"«":{"ha":1057,"x_min":132,"x_max":922,"o":"m 508 39 m 693 375 l 922 161 l 794 39 l 508 300 l 508 450 l 794 711 l 922 589 l 693 375 m 317 375 l 546 161 l 418 39 l 132 300 l 132 450 l 418 711 l 546 589 l 317 375 z "},"»":{"ha":1057,"x_min":135,"x_max":925,"o":"m 135 39 m 364 375 l 135 161 l 263 39 l 549 300 l 549 450 l 263 711 l 135 589 l 364 375 m 740 375 l 511 161 l 639 39 l 925 300 l 925 450 l 639 711 l 511 589 l 740 375 z "},"‹":{"ha":681,"x_min":132,"x_max":546,"o":"m 317 375 l 546 161 l 418 39 l 132 300 l 132 450 l 418 711 l 546 589 l 317 375 z "},"›":{"ha":681,"x_min":135,"x_max":549,"o":"m 135 39 m 364 375 l 135 161 l 263 39 l 549 300 l 549 450 l 263 711 l 135 589 l 364 375 z "},"„":{"ha":710,"x_min":38,"x_max":658,"o":"m 121 244 l 343 244 l 228 -210 l 38 -210 l 121 244 m 658 244 l 543 -210 l 353 -210 l 436 244 l 658 244 z "},"“":{"ha":710,"x_min":51,"x_max":672,"o":"m 242 1053 l 357 599 l 135 599 l 51 1053 l 242 1053 m 672 599 l 450 599 l 367 1053 l 557 1053 l 672 599 z "},"”":{"ha":710,"x_min":38,"x_max":658,"o":"m 38 599 m 121 1053 l 343 1053 l 228 599 l 38 599 l 121 1053 m 436 1053 l 658 1053 l 543 599 l 353 599 l 436 1053 z "},"‘":{"ha":394,"x_min":51,"x_max":357,"o":"m 51 599 m 135 599 l 357 599 l 242 1053 l 51 1053 l 135 599 z "},"’":{"ha":394,"x_min":38,"x_max":343,"o":"m 38 599 m 121 1053 l 343 1053 l 228 599 l 38 599 l 121 1053 z "},"‚":{"ha":394,"x_min":38,"x_max":343,"o":"m 38 0 m 121 244 l 343 244 l 228 -210 l 38 -210 l 121 244 z "},"ॽ":{"ha":676,"x_min":75,"x_max":610,"o":"m 610 636 q 540 431 610 503 q 324 347 469 360 l 324 0 l 132 0 l 132 497 l 254 497 q 381 529 343 497 q 418 636 418 561 q 375 742 418 710 q 240 774 332 774 l 75 774 l 75 926 l 240 926 q 517 855 425 926 q 610 636 610 783 z "},"।":{"ha":664,"x_min":339,"x_max":531,"o":"m 339 881 l 531 881 l 531 0 l 339 0 l 339 881 z "},"॥":{"ha":986,"x_min":339,"x_max":892,"o":"m 339 0 m 339 881 l 531 881 l 531 0 l 339 0 l 339 881 m 700 881 l 892 881 l 892 0 l 700 0 l 700 881 z "},"॰":{"ha":640,"x_min":60,"x_max":581,"o":"m 321 135 q 189 165 249 135 q 94 253 129 196 q 60 385 60 310 q 94 517 60 461 q 189 603 129 574 q 321 633 249 633 q 452 603 393 633 q 546 517 511 574 q 581 385 581 461 q 546 253 581 310 q 452 165 511 196 q 321 135 393 135 m 321 276 q 388 306 363 276 q 414 385 414 336 q 388 463 414 433 q 321 492 363 492 q 253 463 279 492 q 226 385 226 433 q 253 306 226 336 q 321 276 279 276 z "},"ॱ":{"ha":381,"x_min":72,"x_max":308,"o":"m 72 850 l 190 968 l 308 850 l 190 733 l 72 850 z "}," ":{"ha":306,"x_min":0,"x_max":0,"o":""},"‍":{"ha":0,"x_min":0,"x_max":0,"o":""},"":{"ha":833,"x_min":0,"x_max":0,"o":""},"¢":{"ha":764,"x_min":50,"x_max":743,"o":"m 743 50 q 560 -15 657 0 l 560 -133 l 378 -133 l 378 -18 q 134 106 218 3 q 50 381 50 210 q 134 651 50 549 q 378 775 218 754 l 378 890 l 560 890 l 560 775 q 686 742 624 767 l 686 546 q 560 585 618 576 l 560 176 q 682 229 619 190 l 743 50 m 272 382 q 378 183 272 226 l 378 574 q 272 382 272 532 z "},"¤":{"ha":764,"x_min":56,"x_max":701,"o":"m 57 257 l 149 350 q 121 467 121 410 q 149 582 121 529 l 56 676 l 169 792 l 264 697 q 378 724 317 724 q 493 696 438 724 l 588 790 l 701 675 l 608 581 q 635 467 635 525 q 607 351 635 404 l 700 257 l 586 142 l 492 236 q 378 210 439 210 q 264 236 319 210 l 171 142 l 57 257 m 378 346 q 458 381 425 346 q 490 467 490 417 q 458 552 490 517 q 378 588 425 588 q 298 552 331 588 q 265 467 265 517 q 298 381 265 417 q 378 346 331 346 z "},"$":{"ha":775,"x_min":33,"x_max":733,"o":"m 733 269 q 661 76 733 150 q 458 -18 589 1 l 458 -133 l 276 -133 l 276 -19 q 38 47 147 -7 l 38 246 q 276 171 150 186 l 276 381 q 96 478 158 414 q 33 664 33 543 q 104 863 33 790 q 306 951 175 936 l 306 1053 l 488 1053 l 488 947 q 678 885 589 932 l 678 692 q 488 757 593 740 l 488 543 l 503 539 q 678 442 622 506 q 733 269 733 378 m 243 682 q 258 628 243 647 q 306 597 272 610 l 306 764 q 243 682 243 749 m 524 251 q 508 296 524 279 q 458 325 493 313 l 458 174 q 510 203 496 183 q 524 251 524 222 z "},"€":{"ha":764,"x_min":36,"x_max":744,"o":"m 744 60 q 625 -3 689 17 q 479 -24 561 -24 q 265 51 346 -24 q 154 279 183 125 l 39 279 l 97 436 l 140 436 q 139 467 139 446 q 140 499 139 489 l 36 499 l 94 656 l 156 656 q 269 881 185 807 q 497 956 354 956 q 622 938 567 956 q 725 889 676 921 l 649 718 q 513 768 579 768 q 379 656 413 768 l 633 656 l 575 499 l 360 499 q 358 467 358 489 q 360 436 358 446 l 551 436 l 493 279 l 379 279 q 429 191 396 218 q 513 164 463 164 q 593 180 558 164 q 676 231 628 196 l 744 60 z "},"ƒ":{"ha":764,"x_min":138,"x_max":669,"o":"m 592 1003 q 532 985 551 1003 q 507 925 513 967 l 490 758 l 654 758 l 618 568 l 471 568 l 379 -325 l 165 -325 l 257 568 l 138 568 l 138 758 l 276 758 l 294 935 q 335 1089 304 1033 q 426 1169 365 1144 q 590 1193 486 1193 q 669 1188 631 1193 l 669 996 q 592 1003 636 1003 z "},"₹":{"ha":764,"x_min":46,"x_max":719,"o":"m 575 774 l 575 707 l 719 707 l 719 553 l 575 553 l 575 503 q 504 318 575 376 q 282 254 433 260 q 322 140 285 172 q 442 107 358 107 l 639 107 l 639 -46 l 442 -46 q 254 -19 331 -46 q 134 76 178 7 q 90 271 90 146 l 90 489 l 282 489 l 282 408 q 362 431 339 411 q 385 503 385 450 l 385 553 l 46 553 l 46 707 l 385 707 l 385 774 l 46 774 l 46 926 l 719 926 l 719 774 l 575 774 z "},"£":{"ha":764,"x_min":54,"x_max":721,"o":"m 721 190 l 721 0 l 54 0 l 54 190 l 186 190 l 186 392 l 96 392 l 96 583 l 186 583 l 186 656 q 212 826 186 761 q 300 923 238 890 q 475 956 363 956 q 574 948 525 956 q 650 931 624 940 l 650 736 q 507 765 579 765 q 425 741 450 765 q 400 658 400 717 l 400 583 l 583 583 l 583 392 l 400 392 l 400 190 l 721 190 z "},"¥":{"ha":764,"x_min":4,"x_max":761,"o":"m 547 519 l 694 519 l 694 364 l 490 364 l 490 300 l 694 300 l 694 144 l 490 144 l 490 0 l 274 0 l 274 144 l 69 144 l 69 300 l 274 300 l 274 364 l 69 364 l 69 519 l 217 519 l 4 936 l 214 936 l 382 596 l 551 936 l 761 936 l 547 519 z "},"≈":{"ha":764,"x_min":44,"x_max":717,"o":"m 497 471 q 423 483 457 471 q 350 517 389 496 q 301 540 321 532 q 263 547 282 547 q 207 533 233 547 q 135 482 181 519 l 44 610 q 150 699 103 669 q 251 728 197 728 q 324 716 292 728 q 400 682 357 704 q 449 659 429 667 q 488 651 468 651 q 544 665 518 651 q 615 717 571 679 l 706 588 q 600 499 647 528 q 497 471 553 471 m 510 193 q 435 205 469 193 q 361 239 401 217 q 313 262 332 254 q 274 269 293 269 q 218 255 244 269 q 146 204 192 240 l 57 332 q 162 421 114 392 q 264 450 210 450 q 338 438 304 450 q 411 404 372 425 q 460 381 440 389 q 499 374 479 374 q 556 388 529 374 q 628 439 583 401 l 717 310 q 613 222 660 250 q 510 193 565 193 z "},"~":{"ha":764,"x_min":47,"x_max":717,"o":"m 510 357 q 435 369 468 357 q 357 406 401 382 q 303 431 321 424 q 267 438 286 438 q 210 423 236 438 q 138 371 183 408 l 47 499 q 153 590 106 560 q 257 619 200 619 q 333 607 299 619 q 411 571 367 594 q 463 547 444 554 q 499 539 481 539 q 557 553 529 539 q 628 603 585 567 l 717 475 q 613 386 660 415 q 510 357 565 357 z "},"÷":{"ha":764,"x_min":93,"x_max":671,"o":"m 93 54 m 268 299 l 496 299 l 496 54 l 268 54 l 268 299 m 93 564 l 671 564 l 671 372 l 93 372 l 93 564 m 268 893 l 496 893 l 496 649 l 268 649 l 268 893 z "},"=":{"ha":764,"x_min":93,"x_max":671,"o":"m 93 703 l 671 703 l 671 511 l 93 511 l 93 703 m 93 425 l 671 425 l 671 233 l 93 233 l 93 425 z "},">":{"ha":764,"x_min":85,"x_max":671,"o":"m 85 85 m 442 463 l 85 254 l 175 85 l 671 376 l 671 550 l 175 843 l 85 674 l 442 463 z "},"≥":{"ha":764,"x_min":81,"x_max":671,"o":"m 81 0 m 443 529 l 81 360 l 165 211 l 671 453 l 671 604 l 165 860 l 81 710 l 443 529 m 671 190 l 93 190 l 93 0 l 671 0 l 671 190 z "},"∆":{"ha":1107,"x_min":40,"x_max":1067,"o":"m 1067 0 l 40 0 l 415 1065 l 690 1065 l 1067 0 m 778 190 l 553 833 l 329 190 l 778 190 z "},"∞":{"ha":764,"x_min":-4,"x_max":768,"o":"m 540 708 q 706 640 643 708 q 768 467 768 572 q 706 292 768 360 q 540 224 643 224 q 441 249 486 224 q 367 318 396 274 q 298 264 338 283 q 213 244 258 244 q 101 273 151 244 q 24 352 51 301 q -4 467 -4 403 q 24 581 -4 531 q 101 660 51 632 q 213 689 151 689 q 299 669 260 689 q 367 615 339 650 q 440 683 396 658 q 540 708 485 708 m 529 385 q 585 407 564 385 q 606 467 606 429 q 585 525 606 503 q 529 547 564 547 q 473 525 494 547 q 451 467 451 503 q 472 407 451 429 q 529 385 493 385 m 224 406 q 271 422 253 406 q 289 467 289 438 q 271 512 289 496 q 224 528 253 528 q 176 512 194 528 q 158 467 158 496 q 176 422 158 438 q 224 406 194 406 z "},"∫":{"ha":764,"x_min":122,"x_max":642,"o":"m 507 1193 q 642 1176 561 1193 l 642 992 q 563 1003 606 1003 q 505 984 521 1003 q 489 917 489 965 l 489 -136 q 433 -294 489 -242 q 257 -347 376 -347 q 122 -331 203 -347 l 122 -147 q 201 -157 161 -157 q 260 -136 244 -157 q 275 -61 275 -115 l 275 990 q 507 1193 275 1193 z "},"<":{"ha":764,"x_min":93,"x_max":679,"o":"m 322 463 l 679 254 l 589 85 l 93 376 l 93 550 l 589 843 l 679 674 l 322 463 z "},"≤":{"ha":764,"x_min":93,"x_max":683,"o":"m 321 529 l 683 360 l 599 211 l 93 453 l 93 604 l 599 860 l 683 710 l 321 529 m 93 190 l 671 190 l 671 0 l 93 0 l 93 190 z "},"¬":{"ha":764,"x_min":93,"x_max":671,"o":"m 671 564 l 671 179 l 478 179 l 478 372 l 93 372 l 93 564 l 671 564 z "},"−":{"ha":764,"x_min":93,"x_max":671,"o":"m 93 564 l 671 564 l 671 372 l 93 372 l 93 564 z "},"≠":{"ha":833,"x_min":93,"x_max":671,"o":"m 504 511 l 481 425 l 671 425 l 671 233 l 426 233 l 396 125 l 179 125 l 210 233 l 93 233 l 93 425 l 264 425 l 288 511 l 93 511 l 93 703 l 342 703 l 369 797 l 586 797 l 558 703 l 671 703 l 671 511 l 504 511 z "},"∂":{"ha":857,"x_min":35,"x_max":810,"o":"m 393 1072 q 810 418 810 821 q 708 96 810 215 q 413 -24 606 -24 q 137 74 239 -24 q 35 347 35 171 q 81 554 35 469 q 201 680 126 639 q 363 721 275 721 q 504 689 436 721 q 222 925 411 822 l 393 1072 m 593 404 q 590 468 593 426 q 417 529 506 529 q 299 487 347 529 q 251 347 251 444 q 297 212 251 257 q 418 167 343 167 q 547 228 500 167 q 593 404 593 290 z "},"%":{"ha":1432,"x_min":31,"x_max":1401,"o":"m 921 1074 l 1093 1074 l 514 -46 l 342 -46 l 921 1074 m 332 435 q 172 475 240 435 q 67 584 103 515 q 31 736 31 653 q 67 888 31 819 q 172 997 103 957 q 332 1036 240 1036 q 492 997 424 1036 q 595 889 560 957 q 631 736 631 821 q 595 583 631 651 q 492 475 560 515 q 332 435 424 435 m 332 579 q 435 624 399 579 q 472 736 472 669 q 435 848 472 804 q 332 892 399 892 q 228 847 267 892 q 190 736 190 803 q 228 624 190 669 q 332 579 267 579 m 1103 -24 q 942 17 1011 -24 q 838 126 874 57 q 801 278 801 194 q 838 429 801 361 q 942 537 874 497 q 1103 576 1011 576 q 1263 537 1194 576 q 1366 430 1331 497 q 1401 278 1401 363 q 1366 125 1401 193 q 1263 17 1331 57 q 1103 -24 1194 -24 m 1103 121 q 1206 166 1169 121 q 1243 278 1243 211 q 1206 390 1243 346 q 1103 433 1169 433 q 999 389 1038 433 q 961 278 961 344 q 999 166 961 211 q 1103 121 1038 121 z "},"‰":{"ha":2081,"x_min":31,"x_max":2050,"o":"m 921 1074 l 1093 1074 l 514 -46 l 342 -46 l 921 1074 m 332 435 q 172 475 240 435 q 67 584 103 515 q 31 736 31 653 q 67 888 31 819 q 172 997 103 957 q 332 1036 240 1036 q 492 997 424 1036 q 595 889 560 957 q 631 736 631 821 q 595 583 631 651 q 492 475 560 515 q 332 435 424 435 m 332 579 q 435 624 399 579 q 472 736 472 669 q 435 848 472 804 q 332 892 399 892 q 228 847 267 892 q 190 736 190 803 q 228 624 190 669 q 332 579 267 579 m 1103 -24 q 942 17 1011 -24 q 838 126 874 57 q 801 278 801 194 q 838 429 801 361 q 942 537 874 497 q 1103 576 1011 576 q 1263 537 1194 576 q 1366 430 1331 497 q 1401 278 1401 363 q 1366 125 1401 193 q 1263 17 1331 57 q 1103 -24 1194 -24 m 1750 -24 q 1590 17 1658 -24 q 1486 126 1522 57 q 1450 278 1450 194 q 1486 429 1450 361 q 1590 537 1522 497 q 1750 576 1658 576 q 1910 537 1842 576 q 2014 429 1978 497 q 2050 278 2050 361 q 2014 125 2050 193 q 1910 17 1978 57 q 1750 -24 1842 -24 m 1103 121 q 1206 166 1169 121 q 1243 278 1243 211 q 1206 390 1243 346 q 1103 433 1169 433 q 999 389 1038 433 q 961 278 961 344 q 999 166 961 211 q 1103 121 1038 121 m 1750 121 q 1853 166 1817 121 q 1890 278 1890 211 q 1853 390 1890 346 q 1750 433 1817 433 q 1647 389 1685 433 q 1608 278 1608 344 q 1647 166 1608 211 q 1750 121 1686 121 z "},"+":{"ha":764,"x_min":93,"x_max":671,"o":"m 671 372 l 479 372 l 479 178 l 285 178 l 285 372 l 93 372 l 93 564 l 285 564 l 285 756 l 479 756 l 479 564 l 671 564 l 671 372 z "},"±":{"ha":764,"x_min":93,"x_max":671,"o":"m 93 0 m 671 372 l 479 372 l 479 178 l 285 178 l 285 372 l 93 372 l 93 564 l 285 564 l 285 756 l 479 756 l 479 564 l 671 564 l 671 372 m 93 133 l 671 133 l 671 -58 l 93 -58 l 93 133 z "},"∏":{"ha":1128,"x_min":121,"x_max":1007,"o":"m 1007 -329 l 786 -329 l 786 863 l 342 863 l 342 -329 l 121 -329 l 121 1053 l 1007 1053 l 1007 -329 z "},"√":{"ha":972,"x_min":21,"x_max":1072,"o":"m 1072 1304 l 622 -240 l 447 -240 l 214 306 l 122 238 l 21 404 l 293 597 l 524 57 l 875 1304 l 1072 1304 z "},"∑":{"ha":1010,"x_min":111,"x_max":926,"o":"m 926 -139 l 926 -329 l 111 -329 l 111 -142 l 483 361 l 111 865 l 111 1053 l 903 1053 l 903 863 l 390 863 l 717 418 l 717 306 l 390 -139 l 926 -139 z "},"◌":{"ha":1069,"x_min":129,"x_max":940,"o":"m 536 742 q 496 758 513 742 q 479 799 479 775 q 496 838 479 821 q 536 856 513 856 q 576 838 558 856 q 593 799 593 821 q 576 758 593 775 q 536 742 558 742 m 358 697 q 319 714 336 697 q 303 754 303 731 q 319 794 303 778 q 358 811 336 811 q 399 794 382 811 q 415 754 415 778 q 399 715 415 732 q 358 697 382 697 m 708 697 q 669 715 686 697 q 651 754 651 732 q 669 794 651 778 q 708 811 686 811 q 749 794 732 811 q 765 754 765 778 q 749 714 765 731 q 708 697 732 697 m 229 568 q 189 585 206 568 q 172 625 172 601 q 189 665 172 649 q 229 682 206 682 q 269 665 253 682 q 286 625 286 649 q 269 585 286 601 q 229 568 253 568 m 840 568 q 800 585 817 568 q 783 625 783 601 q 801 665 783 649 q 840 682 818 682 q 881 665 864 682 q 897 625 897 649 q 881 585 897 601 q 840 568 864 568 m 186 392 q 146 408 163 392 q 129 449 129 425 q 146 489 129 472 q 186 506 163 506 q 226 489 210 506 q 243 449 243 472 q 226 409 243 426 q 186 392 210 392 m 883 392 q 844 409 861 392 q 828 449 828 426 q 844 489 828 472 q 883 506 861 506 q 924 489 907 506 q 940 449 940 472 q 924 408 940 425 q 883 392 907 392 m 229 217 q 189 233 206 217 q 172 274 172 250 q 189 313 172 297 q 229 329 206 329 q 269 313 253 329 q 286 274 286 296 q 269 234 286 251 q 229 217 253 217 m 840 217 q 801 234 818 217 q 783 274 783 251 q 800 313 783 296 q 840 329 817 329 q 881 313 864 329 q 897 274 897 297 q 881 233 897 250 q 840 217 864 217 m 358 85 q 319 101 336 85 q 303 142 303 118 q 319 181 303 165 q 358 197 336 197 q 399 181 382 197 q 415 142 415 164 q 399 102 415 119 q 358 85 382 85 m 708 85 q 669 102 686 85 q 651 142 651 119 q 668 181 651 164 q 708 197 685 197 q 749 181 732 197 q 765 142 765 165 q 749 101 765 118 q 708 85 732 85 m 536 42 q 496 58 513 42 q 479 99 479 75 q 496 139 479 122 q 536 156 513 156 q 576 139 558 156 q 593 99 593 122 q 576 59 593 76 q 536 42 558 42 z "},"◊":{"ha":764,"x_min":25,"x_max":751,"o":"m 751 468 l 476 0 l 301 0 l 25 468 l 301 936 l 475 936 l 751 468 m 529 467 l 388 707 l 247 469 l 389 229 l 529 467 z "},"|":{"ha":457,"x_min":121,"x_max":338,"o":"m 121 1176 l 338 1176 l 338 -179 l 121 -179 l 121 1176 z "},"¦":{"ha":457,"x_min":121,"x_max":338,"o":"m 121 1176 l 338 1176 l 338 654 l 121 654 l 121 1176 m 121 343 l 338 343 l 338 -179 l 121 -179 l 121 343 z "},"@":{"ha":1369,"x_min":69,"x_max":1300,"o":"m 919 222 q 914 189 914 206 q 956 150 914 150 q 1055 194 1013 150 q 1119 312 1097 239 q 1140 468 1140 385 q 1031 767 1140 663 q 725 872 921 872 q 479 801 593 872 q 297 604 365 731 q 229 317 229 478 q 342 -34 229 96 q 675 -164 456 -164 q 844 -138 764 -164 q 1015 -62 925 -112 l 1067 -190 q 874 -268 964 -242 q 675 -294 783 -294 q 360 -223 497 -294 q 146 -13 222 -151 q 69 317 69 125 q 158 672 69 515 q 398 916 247 829 q 725 1003 549 1003 q 1030 938 900 1003 q 1230 751 1160 872 q 1300 468 1300 631 q 1252 235 1300 338 q 1119 76 1204 133 q 924 19 1033 19 q 813 45 856 19 q 754 119 769 71 q 665 58 713 79 q 567 38 617 38 q 411 100 471 38 q 351 276 351 163 q 399 496 351 399 q 527 648 446 593 q 708 703 608 703 q 869 636 814 703 l 883 681 l 1054 681 l 919 222 m 603 183 q 768 290 693 183 l 831 504 q 724 558 786 558 q 619 522 665 558 q 548 423 574 485 q 521 290 522 361 q 542 208 521 233 q 603 183 563 183 z "},"&":{"ha":1131,"x_min":47,"x_max":1089,"o":"m 1089 190 l 1089 0 l 1004 0 q 864 19 931 0 q 729 78 797 38 q 425 -24 588 -24 q 144 53 242 -24 q 47 271 47 129 q 97 442 47 372 q 236 569 147 513 q 144 813 144 690 q 183 957 144 896 q 290 1050 222 1018 q 443 1082 357 1082 q 659 1012 576 1082 q 742 817 742 942 q 685 661 742 733 q 536 532 628 589 q 722 343 631 425 q 787 500 764 411 q 811 692 810 589 l 1031 692 q 991 445 1031 565 q 879 228 951 325 q 1006 190 943 190 l 1089 190 m 443 906 q 364 811 364 906 q 376 744 364 775 q 417 675 389 713 l 428 681 q 498 746 474 707 q 522 821 522 785 q 443 906 522 906 m 267 278 q 306 195 267 226 q 425 164 344 164 q 571 199 501 164 q 360 421 482 281 q 285 352 304 383 q 267 278 267 321 z "},"¶":{"ha":1071,"x_min":53,"x_max":951,"o":"m 443 349 l 403 349 q 140 438 228 349 q 53 699 53 528 q 403 1053 53 1053 l 951 1053 l 951 -139 l 757 -139 l 757 865 l 636 865 l 636 -139 l 443 -139 l 443 349 z "},"©":{"ha":1299,"x_min":93,"x_max":1206,"o":"m 650 -24 q 369 48 497 -24 q 167 244 242 119 q 93 525 93 369 q 168 798 93 672 q 371 998 243 924 q 650 1072 499 1072 q 926 998 799 1072 q 1130 798 1054 924 q 1206 525 1206 672 q 1131 245 1206 371 q 928 48 1056 119 q 650 -24 800 -24 m 650 118 q 848 172 756 118 q 995 319 940 225 q 1050 528 1050 414 q 994 728 1050 635 q 847 876 939 821 q 650 931 754 931 q 449 876 542 931 q 303 727 357 821 q 249 525 249 633 q 303 317 249 410 q 449 171 357 224 q 650 118 540 118 m 674 215 q 494 256 568 215 q 384 367 421 297 q 347 525 347 438 q 430 747 347 661 q 674 833 513 833 q 749 827 717 833 q 818 806 782 821 l 818 647 q 674 681 756 681 q 562 638 603 681 q 521 528 521 594 q 560 411 521 453 q 674 369 600 369 q 754 379 715 369 q 838 408 793 389 l 865 264 q 769 228 819 240 q 674 215 719 215 z "},"®":{"ha":1001,"x_min":99,"x_max":903,"o":"m 501 1068 q 702 1014 610 1068 q 849 868 794 960 q 903 671 903 776 q 849 467 903 558 q 702 324 794 376 q 501 272 610 272 q 298 324 390 272 q 152 467 206 375 q 99 671 99 558 q 153 868 99 776 q 299 1014 207 960 q 501 1068 392 1068 m 789 674 q 749 814 789 749 q 643 918 710 879 q 501 957 576 957 q 357 918 424 957 q 251 813 290 879 q 213 671 213 747 q 251 524 213 589 q 356 421 290 458 q 501 383 422 383 q 645 421 579 383 q 750 525 711 458 q 789 674 789 592 m 665 735 q 596 611 665 643 l 685 469 l 557 469 l 482 593 l 442 593 l 442 469 l 331 469 l 331 872 l 501 872 q 665 735 665 872 m 442 688 l 481 688 q 536 698 521 688 q 551 735 551 708 q 536 768 551 758 q 481 778 521 778 l 442 778 l 442 688 z "},"§":{"ha":764,"x_min":36,"x_max":728,"o":"m 728 418 q 607 239 728 300 q 665 86 665 183 q 587 -83 665 -24 q 371 -143 508 -143 q 239 -134 299 -143 q 122 -103 179 -125 l 122 82 q 371 33 231 33 q 445 47 421 33 q 469 85 469 61 q 454 119 469 107 q 408 140 439 132 l 265 179 q 148 222 196 199 q 68 288 100 244 q 36 400 36 331 q 157 578 36 519 q 101 728 101 631 q 178 897 101 838 q 392 956 256 956 q 524 947 465 956 q 640 914 583 938 l 640 729 q 392 779 535 779 q 297 729 297 779 q 312 697 297 708 q 356 676 326 685 l 499 638 q 666 561 604 607 q 728 418 728 515 m 232 432 q 256 378 233 396 q 343 343 278 361 l 468 308 q 532 388 532 338 q 508 438 532 421 q 421 474 483 456 l 294 508 q 232 432 232 482 z "},"™":{"ha":1583,"x_min":56,"x_max":1463,"o":"m 586 885 l 413 885 l 413 300 l 231 300 l 231 885 l 56 885 l 56 1053 l 586 1053 l 586 885 m 1463 1053 l 1463 300 l 1281 300 l 1281 764 l 1124 549 l 1026 549 l 869 764 l 869 300 l 688 300 l 688 1053 l 846 1053 l 1075 739 l 1304 1053 l 1463 1053 z "},"°":{"ha":657,"x_min":42,"x_max":615,"o":"m 329 406 q 185 444 251 406 q 81 549 119 483 q 42 693 42 615 q 81 837 42 771 q 185 941 119 903 q 329 979 251 979 q 473 941 407 979 q 577 837 539 903 q 615 693 615 771 q 577 549 615 615 q 473 444 539 483 q 329 406 407 406 m 329 571 q 410 606 378 571 q 442 693 442 642 q 410 779 442 744 q 329 814 379 814 q 247 779 279 814 q 215 693 215 744 q 248 606 215 642 q 329 571 281 571 z "},"^":{"ha":763,"x_min":3,"x_max":761,"o":"m 590 158 l 381 515 l 171 158 l 3 250 l 294 744 l 468 744 l 761 249 l 590 158 z "},"†":{"ha":644,"x_min":39,"x_max":606,"o":"m 606 710 l 431 710 l 431 65 l 214 65 l 214 710 l 39 710 l 39 913 l 214 913 l 214 1118 l 431 1118 l 431 913 l 606 913 l 606 710 z "},"‡":{"ha":644,"x_min":39,"x_max":606,"o":"m 431 710 l 431 496 l 606 496 l 606 293 l 431 293 l 431 -249 l 214 -249 l 214 293 l 39 293 l 39 496 l 214 496 l 214 710 l 39 710 l 39 913 l 214 913 l 214 1118 l 431 1118 l 431 913 l 606 913 l 606 710 l 431 710 z "},"ऽ":{"ha":674,"x_min":-17,"x_max":644,"o":"m -17 154 l 160 154 q 283 164 239 154 q 349 199 328 174 q 369 271 369 224 q 342 347 369 314 q 256 426 314 381 q 172 499 204 467 q 117 577 140 531 q 94 685 94 624 q 162 861 94 796 q 372 926 229 926 l 644 926 l 644 774 l 431 774 q 318 754 350 774 q 286 685 286 735 q 313 615 286 646 q 396 539 340 583 q 481 464 447 497 q 538 382 514 431 q 561 271 561 333 q 218 0 561 0 l -17 0 l -17 154 z "},"ॐ":{"ha":1297,"x_min":21,"x_max":1263,"o":"m 813 993 l 694 1110 l 813 1229 l 931 1110 l 813 993 m 813 763 q 578 825 651 763 q 506 1015 506 888 l 506 1042 l 683 1042 l 683 1015 q 714 939 683 961 q 813 917 744 917 q 911 939 881 917 q 942 1015 942 961 l 942 1042 l 1119 1042 l 1119 1015 q 1047 824 1119 885 q 813 763 975 763 m 954 704 q 1192 626 1122 704 q 1263 376 1263 549 q 1230 182 1263 254 q 1131 78 1197 110 q 961 47 1065 47 l 940 47 q 735 101 807 47 q 646 281 663 154 l 494 281 q 374 108 483 161 q 101 56 264 56 l 21 56 l 21 210 l 101 210 q 306 331 306 210 q 269 399 306 376 q 156 422 233 422 l 85 422 l 85 576 l 157 576 q 269 603 233 576 q 306 679 306 631 q 265 751 306 729 q 143 774 224 774 l 64 774 l 64 926 l 143 926 q 410 876 324 926 q 496 707 496 825 q 465 587 496 636 q 369 506 435 538 q 463 435 429 486 l 642 435 q 725 642 651 581 q 954 704 799 704 m 961 201 q 1044 238 1018 201 q 1071 376 1071 275 q 1044 513 1071 474 q 954 551 1017 551 q 859 514 888 551 q 831 376 831 476 q 858 238 831 275 q 949 201 886 201 l 961 201 z "},"̦":{"ha":903,"x_min":-590,"x_max":-324,"o":"m -546 -111 l -324 -111 l -387 -342 l -590 -342 l -546 -111 z "},"´":{"ha":903,"x_min":272,"x_max":656,"o":"m 411 1124 l 656 1124 l 488 911 l 272 911 l 411 1124 z "},"˘":{"ha":903,"x_min":221,"x_max":685,"o":"m 451 903 q 282 949 343 903 q 221 1094 221 996 l 221 1121 l 382 1121 l 382 1099 q 399 1044 382 1061 q 451 1026 415 1026 q 504 1044 488 1026 q 521 1099 521 1061 l 521 1121 l 683 1121 l 683 1094 q 624 949 685 996 q 451 903 563 903 z "},"ˇ":{"ha":901,"x_min":175,"x_max":726,"o":"m 726 1124 l 593 911 l 308 911 l 175 1124 l 385 1124 l 451 989 l 517 1124 l 726 1124 z "},"¸":{"ha":903,"x_min":285,"x_max":629,"o":"m 478 -68 q 590 -106 551 -68 q 629 -208 629 -144 q 580 -322 629 -279 q 436 -365 531 -365 q 356 -360 392 -365 q 285 -337 321 -354 l 285 -217 q 413 -246 349 -246 q 476 -212 476 -246 q 461 -189 476 -197 q 408 -181 446 -181 q 304 -197 354 -181 l 360 1 l 500 1 l 476 -68 l 478 -68 z "},"ˆ":{"ha":901,"x_min":175,"x_max":726,"o":"m 517 911 l 451 1046 l 385 911 l 175 911 l 308 1124 l 593 1124 l 726 911 l 517 911 z "},"¨":{"ha":903,"x_min":206,"x_max":697,"o":"m 506 1117 l 697 1117 l 697 917 l 506 917 l 506 1117 m 206 1117 l 397 1117 l 397 917 l 206 917 l 206 1117 z "},"˙":{"ha":903,"x_min":344,"x_max":558,"o":"m 344 1117 l 558 1117 l 558 917 l 344 917 l 344 1117 z "},"`":{"ha":903,"x_min":247,"x_max":631,"o":"m 247 1124 l 492 1124 l 631 911 l 415 911 l 247 1124 z "},"˝":{"ha":901,"x_min":133,"x_max":794,"o":"m 572 1124 l 794 1124 l 626 911 l 433 911 l 572 1124 m 272 1124 l 494 1124 l 326 911 l 133 911 l 272 1124 z "},"¯":{"ha":901,"x_min":236,"x_max":665,"o":"m 236 1086 l 665 1086 l 665 950 l 236 950 l 236 1086 z "},"˛":{"ha":903,"x_min":289,"x_max":585,"o":"m 478 -356 q 336 -319 383 -356 q 289 -218 289 -283 q 320 -106 289 -161 q 414 0 351 -50 l 585 0 q 453 -183 453 -101 q 511 -233 453 -233 q 585 -217 547 -233 l 585 -337 q 478 -356 532 -356 z "},"˚":{"ha":901,"x_min":288,"x_max":614,"o":"m 451 889 q 328 924 369 889 q 288 1017 288 960 q 327 1109 288 1075 q 451 1143 367 1143 q 574 1108 533 1143 q 614 1017 614 1074 q 574 924 614 958 q 451 889 533 889 m 451 975 q 486 986 474 975 q 499 1017 499 997 q 451 1057 499 1057 q 403 1017 403 1057 q 451 975 403 975 z "},"˜":{"ha":901,"x_min":197,"x_max":704,"o":"m 197 917 q 237 1068 199 1026 q 340 1110 275 1110 q 421 1094 375 1110 l 472 1075 q 524 1063 511 1063 q 553 1110 553 1063 l 704 1110 q 665 958 703 1000 q 561 917 626 917 q 481 932 518 917 l 429 950 q 378 963 392 963 q 349 917 349 963 l 197 917 z "},"ु":{"ha":0,"x_min":-639,"x_max":144,"o":"m -162 -464 q -425 -408 -308 -464 q -639 -267 -542 -351 l -536 -150 q -366 -268 -453 -226 q -174 -310 -279 -310 q -46 -225 -46 -310 q -71 -172 -46 -190 q -146 -153 -96 -153 l -319 -153 l -319 1 l -119 1 q 71 -56 -1 1 q 144 -217 143 -114 q 62 -401 144 -337 q -162 -464 -21 -464 z "},"ू":{"ha":0,"x_min":-524,"x_max":265,"o":"m -258 -451 q -450 -394 -378 -451 q -524 -233 -522 -336 q -441 -49 -524 -111 q -217 14 -358 14 q -8 -31 -96 14 q 139 -140 81 -75 q 265 -304 197 -204 l 122 -399 q 16 -253 58 -304 q -80 -172 -26 -203 q -206 -140 -133 -140 q -333 -225 -333 -140 q -308 -278 -333 -260 q -233 -297 -282 -297 l -118 -297 l -118 -451 l -258 -451 z "},"ृ":{"ha":0,"x_min":-433,"x_max":-4,"o":"m -167 -393 q -368 -341 -303 -393 q -433 -175 -433 -289 q -372 -14 -433 -71 q -181 43 -310 43 l -94 43 l -94 -99 l -169 -99 q -232 -117 -210 -99 q -254 -175 -254 -136 q -229 -233 -254 -215 q -156 -250 -204 -250 q -81 -237 -117 -250 q -4 -196 -44 -224 l -4 -347 q -167 -393 -83 -393 z "},"ॄ":{"ha":0,"x_min":-424,"x_max":29,"o":"m -122 -415 q 29 -372 -42 -415 l 29 -524 q -133 -557 -42 -557 q -326 -513 -264 -557 q -389 -375 -389 -469 q -315 -240 -389 -283 q -424 -93 -424 -203 q -189 78 -424 78 q -96 71 -129 78 l -96 -71 q -178 -64 -133 -64 q -244 -114 -244 -64 q -223 -154 -244 -142 q -143 -167 -201 -167 l -68 -167 l -68 -262 l -74 -262 l -74 -297 l -136 -297 q -190 -310 -171 -297 q -210 -351 -210 -324 q -190 -401 -210 -387 q -122 -415 -171 -415 z "},"ॢ":{"ha":0,"x_min":-747,"x_max":11,"o":"m -101 -528 q 11 -489 -46 -528 l 11 -632 q -143 -665 -29 -665 q -280 -623 -228 -665 q -332 -511 -332 -581 q -311 -432 -332 -465 q -251 -360 -290 -399 q -209 -310 -222 -329 q -196 -269 -196 -292 q -249 -218 -196 -218 q -293 -239 -278 -218 q -308 -297 -308 -260 l -308 -347 l -444 -347 l -444 -297 q -462 -239 -446 -260 q -510 -218 -478 -218 q -559 -242 -542 -218 q -576 -308 -576 -267 q -546 -401 -575 -365 q -442 -437 -517 -437 l -431 -437 l -431 -576 l -442 -576 q -676 -497 -606 -576 q -747 -303 -747 -418 q -694 -123 -747 -189 q -539 -57 -642 -57 q -382 -140 -432 -57 q -308 -76 -351 -96 l -308 97 l -118 97 l -118 -79 q -49 -148 -72 -103 q -25 -249 -25 -193 q -49 -357 -25 -315 q -112 -440 -72 -399 q -141 -472 -132 -460 q -150 -496 -150 -483 q -101 -528 -150 -528 z "},"ॣ":{"ha":0,"x_min":-747,"x_max":47,"o":"m -64 -751 q -5 -741 -31 -751 q 47 -714 21 -731 l 47 -857 q -106 -889 4 -889 q -244 -849 -193 -889 q -294 -737 -294 -808 q -261 -635 -294 -686 q -333 -511 -333 -585 q -312 -431 -333 -465 q -251 -360 -290 -397 q -209 -310 -222 -329 q -196 -269 -196 -292 q -249 -219 -196 -219 q -293 -240 -278 -219 q -308 -297 -308 -260 l -308 -346 l -343 -346 l -343 -347 l -444 -347 l -444 -297 q -462 -239 -446 -260 q -510 -218 -478 -218 q -559 -242 -542 -218 q -576 -308 -576 -267 q -546 -401 -575 -365 q -442 -437 -517 -437 l -431 -437 l -431 -576 l -442 -576 q -676 -497 -606 -576 q -747 -303 -747 -418 q -694 -123 -747 -189 q -539 -57 -642 -57 q -382 -140 -432 -57 q -308 -76 -351 -96 l -308 97 l -118 97 l -118 -79 q -49 -148 -72 -103 q -25 -249 -25 -193 q -49 -357 -25 -315 q -112 -440 -72 -399 q -141 -472 -132 -460 q -150 -496 -150 -483 q -101 -528 -150 -528 q -47 -519 -71 -528 q 1 -494 -24 -510 l 1 -637 q -93 -665 -28 -657 q -111 -714 -111 -690 q -100 -742 -111 -733 q -64 -751 -89 -751 z "},"ॅ":{"ha":0,"x_min":-499,"x_max":115,"o":"m -192 986 q -426 1049 -353 986 q -499 1239 -499 1111 l -499 1265 l -321 1265 l -321 1239 q -290 1163 -321 1185 q -192 1140 -260 1140 q -93 1163 -124 1140 q -62 1239 -62 1185 l -62 1265 l 115 1265 l 115 1239 q 43 1047 115 1108 q -192 986 -29 986 z "},"ँ":{"ha":0,"x_min":-499,"x_max":115,"o":"m 0 986 m -192 986 q -426 1049 -353 986 q -499 1239 -499 1111 l -499 1265 l -321 1265 l -321 1239 q -290 1163 -321 1185 q -192 1140 -260 1140 q -93 1163 -124 1140 q -62 1239 -62 1185 l -62 1265 l 115 1265 l 115 1239 q 43 1047 115 1108 q -192 986 -29 986 m -310 1347 l -192 1467 l -74 1347 l -192 1231 l -310 1347 z "},"ॆ":{"ha":833,"x_min":-1800,"x_max":-928,"o":"m -1119 936 q -1147 1029 -1119 1003 q -1244 1056 -1174 1056 l -1476 1056 q -1674 1085 -1604 1056 q -1772 1176 -1744 1115 q -1800 1339 -1800 1238 l -1800 1383 l -1608 1383 l -1608 1339 q -1599 1260 -1608 1288 q -1560 1221 -1589 1233 q -1476 1208 -1532 1208 l -1244 1208 q -1040 1180 -1108 1208 q -950 1095 -972 1151 q -928 936 -928 1039 l -928 867 l -1119 867 l -1119 936 z "},"े":{"ha":0,"x_min":-568,"x_max":-93,"o":"m -325 1043 q -363 1126 -339 1104 q -440 1147 -387 1147 l -568 1147 l -568 1300 l -440 1300 q -290 1282 -346 1300 q -197 1208 -235 1264 q -133 1043 -158 1153 l -93 867 l -285 867 l -325 1043 z "},"ै":{"ha":0,"x_min":-718,"x_max":-93,"o":"m -93 867 l -285 867 l -368 971 q -443 1026 -401 1013 q -576 1039 -485 1039 l -718 1039 l -718 1193 l -576 1193 q -410 1172 -468 1193 q -301 1099 -351 1151 l -321 1181 q -364 1244 -331 1228 q -465 1260 -397 1260 l -593 1260 l -593 1413 l -465 1413 q -316 1395 -372 1413 q -223 1328 -260 1378 q -164 1181 -186 1279 l -93 867 z "},"ं":{"ha":0,"x_min":-310,"x_max":-74,"o":"m -310 1090 l -192 1210 l -74 1090 l -192 974 l -310 1090 z "},"्":{"ha":0,"x_min":-328,"x_max":63,"o":"m -328 -208 l -218 -85 l 63 -301 l -49 -426 l -328 -208 z "},"़":{"ha":0,"x_min":-407,"x_max":-169,"o":"m -407 -162 l -287 -44 l -169 -162 l -287 -279 l -407 -162 z "},"ऺ":{"ha":0,"x_min":-286,"x_max":-94,"o":"m -286 1254 l -94 1254 l -94 851 l -286 851 l -286 1254 z "},"ॖ":{"ha":0,"x_min":-537,"x_max":154,"o":"m -192 -310 q -397 -265 -306 -310 q -537 -143 -489 -219 l -418 -47 q -313 -130 -368 -103 q -192 -157 -258 -157 q -70 -130 -125 -157 q 35 -47 -15 -103 l 154 -143 q 14 -265 106 -219 q -192 -310 -78 -310 z "},"ॗ":{"ha":0,"x_min":-537,"x_max":154,"o":"m -192 -310 q -397 -265 -306 -310 q -537 -143 -489 -219 l -418 -47 q -313 -130 -368 -103 q -192 -157 -258 -157 q -70 -130 -125 -157 q 35 -47 -15 -103 l 154 -143 q 14 -265 106 -219 q -192 -310 -78 -310 m -192 -567 q -397 -522 -306 -567 q -537 -400 -489 -476 l -418 -304 q -313 -387 -368 -360 q -192 -414 -258 -414 q -70 -387 -125 -414 q 35 -304 -15 -360 l 154 -400 q 14 -522 106 -476 q -192 -567 -78 -567 z "},"॑":{"ha":0,"x_min":-286,"x_max":-94,"o":"m -286 1392 l -94 1392 l -94 1026 l -286 1026 l -286 1392 z "},"॒":{"ha":0,"x_min":-535,"x_max":107,"o":"m -535 -278 l 107 -278 l 107 -454 l -535 -454 l -535 -278 z "},"॓":{"ha":0,"x_min":-612,"x_max":-174,"o":"m -612 1376 l -389 1376 l -174 1064 l -364 1064 l -612 1376 z "},"॔":{"ha":0,"x_min":-310,"x_max":129,"o":"m -94 1376 l 129 1376 l -119 1064 l -310 1064 l -94 1376 z "},"ः":{"ha":419,"x_min":90,"x_max":328,"o":"m 90 601 l 208 719 l 328 601 l 208 485 l 90 601 m 90 138 l 208 256 l 328 138 l 208 19 l 90 138 z "}}}
